<svg width="360" height="360" viewBox="0 0 360 360" fill="none" xmlns="http://www.w3.org/2000/svg">
<path d="M52.7208 307.279C30.2656 284.824 14.1508 256.828 6.01197 226.132C-2.12686 195.436 -1.99999 163.134 6.3797 132.503C14.7594 101.872 31.0936 74.0031 53.7245 51.7249C76.3554 29.4468 104.477 13.5524 135.236 5.65497C165.995 -2.24249 198.295 -1.86189 228.86 6.75814C259.424 15.3782 287.163 31.9308 309.263 54.736C331.363 77.5411 347.036 105.787 354.691 136.607C362.347 167.427 361.713 199.723 352.853 230.219L307.349 216.999C313.877 194.531 314.344 170.737 308.704 148.03C303.064 125.324 291.517 104.513 275.235 87.7117C258.953 70.9099 238.515 58.7148 215.997 52.364C193.479 46.0132 169.682 45.7328 147.02 51.5512C124.359 57.3697 103.64 69.0799 86.9664 85.4933C70.2931 101.907 58.2589 122.439 52.0852 145.006C45.9114 167.574 45.818 191.373 51.8142 213.988C57.8105 236.603 69.6831 257.229 86.227 273.773L52.7208 307.279Z" fill="#E6EAEE"/>
<path d="M180 0C211.756 3.78692e-07 242.948 8.40144 270.408 24.3516C297.868 40.3018 320.62 63.2329 336.354 90.8175C352.088 118.402 360.244 149.658 359.994 181.414C359.745 213.169 351.099 244.294 334.933 271.628C318.768 298.962 295.659 321.533 267.952 337.049C240.244 352.566 208.925 360.477 177.172 359.978C145.42 359.479 114.365 350.589 87.1583 334.209C59.952 317.829 37.5634 294.544 22.2646 266.715L63.7884 243.888C75.0598 264.39 91.5546 281.546 111.599 293.614C131.643 305.681 154.523 312.231 177.917 312.599C201.31 312.966 224.385 307.138 244.798 295.706C265.212 284.274 282.237 267.645 294.147 247.507C306.057 227.368 312.427 204.437 312.611 181.042C312.795 157.646 306.786 134.618 295.194 114.295C283.602 93.9718 266.839 77.0773 246.608 65.326C226.377 53.5747 203.397 47.3849 180 47.3849V0Z" fill="#FBC36E"/>
<path d="M153.555 93.4453V111.922C153.555 114.031 153.099 115.88 152.188 117.469C151.289 119.044 149.98 120.262 148.262 121.121C146.556 121.967 144.512 122.391 142.129 122.391C138.587 122.391 135.833 121.453 133.867 119.578C131.901 117.703 130.918 115.125 130.918 111.844V93.4453H135.605V111.512C135.605 113.868 136.152 115.607 137.246 116.727C138.34 117.846 140.02 118.406 142.285 118.406C146.686 118.406 148.887 116.095 148.887 111.473V93.4453H153.555ZM171.328 122.391C168.594 122.391 166.471 121.408 164.961 119.441H164.688C164.87 121.264 164.961 122.371 164.961 122.762V131.609H160.371V100.398H164.082C164.186 100.802 164.401 101.766 164.727 103.289H164.961C166.393 101.102 168.542 100.008 171.406 100.008C174.102 100.008 176.198 100.984 177.695 102.938C179.206 104.891 179.961 107.632 179.961 111.16C179.961 114.689 179.193 117.443 177.656 119.422C176.133 121.401 174.023 122.391 171.328 122.391ZM170.215 103.758C168.392 103.758 167.057 104.292 166.211 105.359C165.378 106.427 164.961 108.133 164.961 110.477V111.16C164.961 113.79 165.378 115.698 166.211 116.883C167.044 118.055 168.405 118.641 170.293 118.641C171.882 118.641 173.105 117.99 173.965 116.688C174.824 115.385 175.254 113.53 175.254 111.121C175.254 108.699 174.824 106.87 173.965 105.633C173.118 104.383 171.868 103.758 170.215 103.758ZM203.73 118.68C204.85 118.68 205.97 118.504 207.09 118.152V121.609C206.582 121.831 205.924 122.013 205.117 122.156C204.323 122.312 203.496 122.391 202.637 122.391C198.288 122.391 196.113 120.099 196.113 115.516V103.875H193.164V101.844L196.328 100.164L197.891 95.5938H200.723V100.398H206.875V103.875H200.723V115.438C200.723 116.544 200.996 117.365 201.543 117.898C202.103 118.419 202.832 118.68 203.73 118.68ZM230.586 111.16C230.586 114.689 229.681 117.443 227.871 119.422C226.061 121.401 223.542 122.391 220.312 122.391C218.294 122.391 216.51 121.935 214.961 121.023C213.411 120.112 212.22 118.803 211.387 117.098C210.553 115.392 210.137 113.413 210.137 111.16C210.137 107.658 211.035 104.923 212.832 102.957C214.629 100.991 217.161 100.008 220.43 100.008C223.555 100.008 226.029 101.017 227.852 103.035C229.674 105.04 230.586 107.749 230.586 111.16ZM214.863 111.16C214.863 116.147 216.706 118.641 220.391 118.641C224.036 118.641 225.859 116.147 225.859 111.16C225.859 106.225 224.023 103.758 220.352 103.758C218.424 103.758 217.025 104.396 216.152 105.672C215.293 106.948 214.863 108.777 214.863 111.16ZM127.168 151.633C127.168 157.258 126.035 161.457 123.77 164.23C121.504 167.004 118.092 168.391 113.535 168.391C111.803 168.391 110.56 168.286 109.805 168.078V164.23C110.964 164.556 112.129 164.719 113.301 164.719C116.4 164.719 118.711 163.885 120.234 162.219C121.758 160.552 122.591 157.935 122.734 154.367H122.5C121.732 155.539 120.801 156.385 119.707 156.906C118.626 157.427 117.357 157.688 115.898 157.688C113.372 157.688 111.387 156.9 109.941 155.324C108.496 153.749 107.773 151.587 107.773 148.84C107.773 145.858 108.607 143.488 110.273 141.73C111.953 139.96 114.238 139.074 117.129 139.074C119.16 139.074 120.931 139.569 122.441 140.559C123.952 141.548 125.117 142.987 125.938 144.875C126.758 146.75 127.168 149.003 127.168 151.633ZM117.207 142.883C115.618 142.883 114.401 143.404 113.555 144.445C112.708 145.474 112.285 146.926 112.285 148.801C112.285 150.428 112.676 151.711 113.457 152.648C114.251 153.573 115.449 154.035 117.051 154.035C118.6 154.035 119.902 153.573 120.957 152.648C122.012 151.724 122.539 150.643 122.539 149.406C122.539 148.247 122.311 147.167 121.855 146.164C121.413 145.148 120.788 144.348 119.98 143.762C119.173 143.176 118.249 142.883 117.207 142.883ZM150.059 153.723C150.059 158.684 149.258 162.368 147.656 164.777C146.068 167.186 143.633 168.391 140.352 168.391C137.174 168.391 134.766 167.147 133.125 164.66C131.484 162.173 130.664 158.527 130.664 153.723C130.664 148.684 131.458 144.973 133.047 142.59C134.648 140.194 137.083 138.996 140.352 138.996C143.542 138.996 145.957 140.246 147.598 142.746C149.238 145.246 150.059 148.905 150.059 153.723ZM135.312 153.723C135.312 157.616 135.71 160.396 136.504 162.062C137.311 163.729 138.594 164.562 140.352 164.562C142.109 164.562 143.392 163.716 144.199 162.023C145.02 160.331 145.43 157.564 145.43 153.723C145.43 149.895 145.02 147.128 144.199 145.422C143.392 143.703 142.109 142.844 140.352 142.844C138.594 142.844 137.311 143.684 136.504 145.363C135.71 147.043 135.312 149.829 135.312 153.723ZM172.91 153.723C172.91 158.684 172.109 162.368 170.508 164.777C168.919 167.186 166.484 168.391 163.203 168.391C160.026 168.391 157.617 167.147 155.977 164.66C154.336 162.173 153.516 158.527 153.516 153.723C153.516 148.684 154.31 144.973 155.898 142.59C157.5 140.194 159.935 138.996 163.203 138.996C166.393 138.996 168.809 140.246 170.449 142.746C172.09 145.246 172.91 148.905 172.91 153.723ZM158.164 153.723C158.164 157.616 158.561 160.396 159.355 162.062C160.163 163.729 161.445 164.562 163.203 164.562C164.961 164.562 166.243 163.716 167.051 162.023C167.871 160.331 168.281 157.564 168.281 153.723C168.281 149.895 167.871 147.128 167.051 145.422C166.243 143.703 164.961 142.844 163.203 142.844C161.445 142.844 160.163 143.684 159.355 145.363C158.561 147.043 158.164 149.829 158.164 153.723ZM182.695 163.801C182.07 166.223 180.924 169.341 179.258 173.156H175.879C176.777 169.641 177.448 166.372 177.891 163.352H182.402L182.695 163.801ZM206.465 153.723C206.465 158.684 205.664 162.368 204.062 164.777C202.474 167.186 200.039 168.391 196.758 168.391C193.581 168.391 191.172 167.147 189.531 164.66C187.891 162.173 187.07 158.527 187.07 153.723C187.07 148.684 187.865 144.973 189.453 142.59C191.055 140.194 193.49 138.996 196.758 138.996C199.948 138.996 202.363 140.246 204.004 142.746C205.645 145.246 206.465 148.905 206.465 153.723ZM191.719 153.723C191.719 157.616 192.116 160.396 192.91 162.062C193.717 163.729 195 164.562 196.758 164.562C198.516 164.562 199.798 163.716 200.605 162.023C201.426 160.331 201.836 157.564 201.836 153.723C201.836 149.895 201.426 147.128 200.605 145.422C199.798 143.703 198.516 142.844 196.758 142.844C195 142.844 193.717 143.684 192.91 145.363C192.116 147.043 191.719 149.829 191.719 153.723ZM229.316 153.723C229.316 158.684 228.516 162.368 226.914 164.777C225.326 167.186 222.891 168.391 219.609 168.391C216.432 168.391 214.023 167.147 212.383 164.66C210.742 162.173 209.922 158.527 209.922 153.723C209.922 148.684 210.716 144.973 212.305 142.59C213.906 140.194 216.341 138.996 219.609 138.996C222.799 138.996 225.215 140.246 226.855 142.746C228.496 145.246 229.316 148.905 229.316 153.723ZM214.57 153.723C214.57 157.616 214.967 160.396 215.762 162.062C216.569 163.729 217.852 164.562 219.609 164.562C221.367 164.562 222.65 163.716 223.457 162.023C224.277 160.331 224.688 157.564 224.688 153.723C224.688 149.895 224.277 147.128 223.457 145.422C222.65 143.703 221.367 142.844 219.609 142.844C217.852 142.844 216.569 143.684 215.762 145.363C214.967 147.043 214.57 149.829 214.57 153.723ZM252.168 153.723C252.168 158.684 251.367 162.368 249.766 164.777C248.177 167.186 245.742 168.391 242.461 168.391C239.284 168.391 236.875 167.147 235.234 164.66C233.594 162.173 232.773 158.527 232.773 153.723C232.773 148.684 233.568 144.973 235.156 142.59C236.758 140.194 239.193 138.996 242.461 138.996C245.651 138.996 248.066 140.246 249.707 142.746C251.348 145.246 252.168 148.905 252.168 153.723ZM237.422 153.723C237.422 157.616 237.819 160.396 238.613 162.062C239.421 163.729 240.703 164.562 242.461 164.562C244.219 164.562 245.501 163.716 246.309 162.023C247.129 160.331 247.539 157.564 247.539 153.723C247.539 149.895 247.129 147.128 246.309 145.422C245.501 143.703 244.219 142.844 242.461 142.844C240.703 142.844 239.421 143.684 238.613 145.363C237.819 147.043 237.422 149.829 237.422 153.723ZM147.715 213.391C145.02 213.391 142.917 212.414 141.406 210.461C139.896 208.508 139.141 205.767 139.141 202.238C139.141 198.697 139.902 195.943 141.426 193.977C142.962 191.997 145.085 191.008 147.793 191.008C150.632 191.008 152.793 192.056 154.277 194.152H154.512C154.29 192.603 154.18 191.379 154.18 190.48V182.609H158.789V213H155.195L154.395 210.168H154.18C152.708 212.316 150.553 213.391 147.715 213.391ZM148.945 209.68C150.833 209.68 152.207 209.152 153.066 208.098C153.926 207.03 154.368 205.305 154.395 202.922V202.277C154.395 199.556 153.952 197.622 153.066 196.477C152.181 195.331 150.794 194.758 148.906 194.758C147.292 194.758 146.048 195.415 145.176 196.73C144.303 198.033 143.867 199.895 143.867 202.316C143.867 204.712 144.29 206.542 145.137 207.805C145.983 209.055 147.253 209.68 148.945 209.68ZM174.785 213.391C171.426 213.391 168.796 212.414 166.895 210.461C165.007 208.495 164.062 205.793 164.062 202.355C164.062 198.827 164.941 196.053 166.699 194.035C168.457 192.017 170.872 191.008 173.945 191.008C176.797 191.008 179.049 191.874 180.703 193.605C182.357 195.337 183.184 197.72 183.184 200.754V203.234H168.789C168.854 205.331 169.421 206.945 170.488 208.078C171.556 209.198 173.06 209.758 175 209.758C176.276 209.758 177.461 209.641 178.555 209.406C179.661 209.159 180.846 208.755 182.109 208.195V211.926C180.99 212.46 179.857 212.837 178.711 213.059C177.565 213.28 176.257 213.391 174.785 213.391ZM173.945 194.484C172.487 194.484 171.315 194.947 170.43 195.871C169.557 196.796 169.036 198.143 168.867 199.914H178.672C178.646 198.13 178.216 196.783 177.383 195.871C176.549 194.947 175.404 194.484 173.945 194.484ZM201.914 213L200.996 209.992H200.84C199.798 211.307 198.75 212.206 197.695 212.688C196.641 213.156 195.286 213.391 193.633 213.391C191.51 213.391 189.85 212.818 188.652 211.672C187.467 210.526 186.875 208.905 186.875 206.809C186.875 204.582 187.702 202.902 189.355 201.77C191.009 200.637 193.529 200.018 196.914 199.914L200.645 199.797V198.645C200.645 197.264 200.319 196.236 199.668 195.559C199.03 194.868 198.034 194.523 196.68 194.523C195.573 194.523 194.512 194.686 193.496 195.012C192.48 195.337 191.504 195.721 190.566 196.164L189.082 192.883C190.254 192.271 191.536 191.809 192.93 191.496C194.323 191.171 195.638 191.008 196.875 191.008C199.622 191.008 201.693 191.607 203.086 192.805C204.492 194.003 205.195 195.884 205.195 198.449V213H201.914ZM195.078 209.875C196.745 209.875 198.079 209.413 199.082 208.488C200.098 207.551 200.605 206.242 200.605 204.562V202.688L197.832 202.805C195.671 202.883 194.095 203.247 193.105 203.898C192.129 204.536 191.641 205.52 191.641 206.848C191.641 207.811 191.927 208.56 192.5 209.094C193.073 209.615 193.932 209.875 195.078 209.875ZM222.441 194.875H217.168V213H212.559V194.875H209.004V192.727L212.559 191.32V189.914C212.559 187.362 213.158 185.474 214.355 184.25C215.553 183.013 217.383 182.395 219.844 182.395C221.458 182.395 223.047 182.661 224.609 183.195L223.398 186.672C222.266 186.307 221.185 186.125 220.156 186.125C219.115 186.125 218.353 186.451 217.871 187.102C217.402 187.74 217.168 188.703 217.168 189.992V191.398H222.441V194.875ZM124.082 259.391C121.387 259.391 119.284 258.414 117.773 256.461C116.263 254.508 115.508 251.767 115.508 248.238C115.508 244.697 116.27 241.943 117.793 239.977C119.329 237.997 121.452 237.008 124.16 237.008C126.999 237.008 129.16 238.056 130.645 240.152H130.879C130.658 238.603 130.547 237.379 130.547 236.48V228.609H135.156V259H131.562L130.762 256.168H130.547C129.076 258.316 126.921 259.391 124.082 259.391ZM125.312 255.68C127.201 255.68 128.574 255.152 129.434 254.098C130.293 253.03 130.736 251.305 130.762 248.922V248.277C130.762 245.556 130.319 243.622 129.434 242.477C128.548 241.331 127.161 240.758 125.273 240.758C123.659 240.758 122.415 241.415 121.543 242.73C120.671 244.033 120.234 245.895 120.234 248.316C120.234 250.712 120.658 252.542 121.504 253.805C122.35 255.055 123.62 255.68 125.312 255.68ZM156.953 259L156.309 256.168H156.074C155.436 257.171 154.525 257.958 153.34 258.531C152.168 259.104 150.827 259.391 149.316 259.391C146.699 259.391 144.746 258.74 143.457 257.438C142.168 256.135 141.523 254.163 141.523 251.52V237.398H146.152V250.719C146.152 252.372 146.491 253.616 147.168 254.449C147.845 255.27 148.906 255.68 150.352 255.68C152.279 255.68 153.691 255.107 154.59 253.961C155.501 252.802 155.957 250.868 155.957 248.16V237.398H160.566V259H156.953ZM185.312 259H180.703V245.68C180.703 244.026 180.391 242.796 179.766 241.988C179.141 241.168 178.164 240.758 176.836 240.758C175.065 240.758 173.763 241.337 172.93 242.496C172.109 243.642 171.699 245.556 171.699 248.238V259H167.109V237.398H170.703L171.348 240.23H171.582C172.181 239.202 173.047 238.408 174.18 237.848C175.326 237.288 176.582 237.008 177.949 237.008C181.27 237.008 183.47 238.141 184.551 240.406H184.863C185.501 239.339 186.4 238.505 187.559 237.906C188.717 237.307 190.046 237.008 191.543 237.008C194.121 237.008 195.996 237.659 197.168 238.961C198.353 240.263 198.945 242.249 198.945 244.918V259H194.355V245.68C194.355 244.026 194.036 242.796 193.398 241.988C192.773 241.168 191.797 240.758 190.469 240.758C188.685 240.758 187.376 241.318 186.543 242.438C185.723 243.544 185.312 245.25 185.312 247.555V259ZM216.387 237.008C219.082 237.008 221.178 237.984 222.676 239.938C224.186 241.891 224.941 244.632 224.941 248.16C224.941 251.702 224.18 254.462 222.656 256.441C221.133 258.408 219.017 259.391 216.309 259.391C213.574 259.391 211.452 258.408 209.941 256.441H209.629L208.789 259H205.352V228.609H209.941V235.836C209.941 236.37 209.915 237.164 209.863 238.219C209.811 239.273 209.772 239.944 209.746 240.23H209.941C211.4 238.082 213.548 237.008 216.387 237.008ZM215.195 240.758C213.346 240.758 212.012 241.305 211.191 242.398C210.384 243.479 209.967 245.296 209.941 247.848V248.16C209.941 250.79 210.358 252.698 211.191 253.883C212.025 255.055 213.385 255.641 215.273 255.641C216.901 255.641 218.132 254.996 218.965 253.707C219.811 252.418 220.234 250.556 220.234 248.121C220.234 243.212 218.555 240.758 215.195 240.758ZM244.785 252.848C244.785 254.957 244.017 256.578 242.48 257.711C240.944 258.831 238.743 259.391 235.879 259.391C233.001 259.391 230.69 258.954 228.945 258.082V254.117C231.484 255.289 233.848 255.875 236.035 255.875C238.861 255.875 240.273 255.022 240.273 253.316C240.273 252.77 240.117 252.314 239.805 251.949C239.492 251.585 238.978 251.207 238.262 250.816C237.546 250.426 236.549 249.983 235.273 249.488C232.786 248.525 231.1 247.561 230.215 246.598C229.342 245.634 228.906 244.384 228.906 242.848C228.906 240.999 229.648 239.566 231.133 238.551C232.63 237.522 234.661 237.008 237.227 237.008C239.766 237.008 242.168 237.522 244.434 238.551L242.949 242.008C240.618 241.044 238.659 240.562 237.07 240.562C234.648 240.562 233.438 241.253 233.438 242.633C233.438 243.31 233.75 243.883 234.375 244.352C235.013 244.82 236.393 245.465 238.516 246.285C240.299 246.975 241.595 247.607 242.402 248.18C243.21 248.753 243.809 249.417 244.199 250.172C244.59 250.914 244.785 251.806 244.785 252.848Z" fill="#F8A026"/>
</svg>
