<svg width="1344" height="293" viewBox="0 0 1344 293" fill="none" xmlns="http://www.w3.org/2000/svg">
<g opacity="0.5">
<path opacity="0.32" d="M292.5 150.9C292.5 155.3 292.3 159.7 291.8 164.1H291.7C286.3 163.1 280.8 162.9 275.4 163.9C261 166.5 251.1 161.6 244.8 150.5C241.7 145 239.4 139 236.4 133.5C236.2 133.2 236.1 132.9 235.9 132.6C233.6 129.3 228.3 130 227.1 133.9C227.1 133.9 227.1 133.9 227.1 134C224.2 143.8 222.2 153.8 218.9 163.4C217 169.1 214.1 174.8 210.2 179.3C202.1 188.4 190.1 186.9 186.4 175.4C185.3 172.2 184.4 168.9 183.6 165.6C183.3 164.3 182.9 163 182.6 161.7C182 159.3 181.5 156.8 181 154.4C179.7 148.1 178.6 141.7 177.4 135.3C177.2 134.1 177 133 176.8 131.8C176.5 130.4 176.3 129 176.1 127.6C173.8 113.8 172.1 99.9 169.9 86.1C169.5 83.5 168.7 80.9 167.7 78.6C167.6 78.3 167.4 78 167.3 77.7C167.1 77.3 166.8 76.9 166.6 76.5C164.7 73.8 160.5 73.8 159 76.8C158.8 77.1 158.7 77.4 158.7 77.8C156.7 89.1 154.7 100.5 153 111.9C152.3 116.4 151.7 120.9 151.1 125.3C150.9 127 150.7 128.7 150.5 130.4C149.2 140.7 148.1 150.9 146.9 161.2C145.6 172.9 144.3 184.5 142.8 196.2C142.6 198 142.2 199.7 141.6 201.5C140.5 204.9 139 208.3 137.2 211.4C132 220.9 122.2 222 115.7 213.2C112.5 208.9 109.8 204 108 198.8C107.4 197.1 106.9 195.5 106.5 193.8C103.1 180.3 100.5 166.5 97.7 152.8C96.9 148.7 96.1 144.7 95.2 140.6C94.2 135.7 92.8 130.9 91.2 126.2C91.1 125.8 90.9 125.5 90.6 125.1C89 123 85.7 122.9 84.1 125C83.8 125.3 83.6 125.7 83.5 126.1C80.9 136.6 78.7001 147.3 76.3 157.9C74.2001 166.7 72.3 175.6 69.6 184.2C67.2 191.6 62.9 198.1 54 198.2C45 198.3 40.3 192 37.2 184.6C34.5 178.1 32.5 171.4 29.9 164.8C25.4 153.3 21.7 150.9 9.60004 150.9C9.20004 150.9 8.70005 150.9 8.30005 150.9V150.6C8.30005 146.1 8.50002 141.7 8.90002 137.3C10 137.3 11.2 137.3 12.3 137.2C26.1 136.6 35.2 143.1 40.6 155.3C43.6 162.1 45.7 169.4 48.6 176.2C48.6 176.3 48.7 176.4 48.7 176.5C50.6 180.5 56.6 180.5 58.2 176.4C58.3 176.2 58.3 176 58.4 175.8C61.5 162.6 63.8 149.2 67 136C68.8 128.6 70.9 121 74.5 114.3C81.5 101.3 95.5 101.2 100.8 114.9C101.8 117.4 102.7 120 103.5 122.5C107.5 134.9 109.9 147.9 113.1 160.5C115.9 171.9 118.3 183.4 121.2 194.8C121.3 195.1 121.4 195.5 121.6 195.8C123.3 198.7 127.7 198.5 129.1 195.4C129.2 195.1 129.3 194.8 129.4 194.4C130.6 185.8 131.7 177.2 132.7 168.6C133.9 159.2 135 149.9 136.2 140.5C136.8 136 137.3 131.6 137.9 127.1C138.6 121.6 139.3 116.1 140 110.5C141.4 100.1 142.8 89.6 144.3 79.2C145 74.4 147.1 69.6 149.5 65.3C156.4 52.3 169.5 51.8 176.2 64.8C180.4 72.9 183.3 82 184.9 91C185.4 94.1 186 97.3 186.4 100.4C187.9 110.1 189.2 119.8 190.5 129.5C190.9 132.2 191.2 135 191.6 137.7C192.1 141.9 192.7 146 193.3 150.2C193.5 151.8 193.8 153.3 194.1 154.9C194.6 157.4 195.2 159.8 196 162.1C196 162.2 196.1 162.4 196.2 162.5C197.8 166.3 203.4 166.7 205.1 162.9C205.2 162.7 205.3 162.5 205.3 162.4C208 154 209.9 145.4 212.5 136.9C212.6 136.5 212.8 136 212.9 135.6C213.8 132.7 214.7 129.7 215.7 126.8C216.7 124.1 217.7 121.6 219.1 119.1C225.2 108.1 236.3 107.4 243.5 117.6C247.5 123.2 250.4 129.8 253 136.3C257.1 146.6 263.5 152.1 275.2 150.8C280.6 150.4 286.6 150.8 292.5 150.9Z" fill="url(#paint0_linear)"/>
</g>
<path d="M146.4 0C65.5 0 0 65.5 0 146.4C0 172.1 6.69999 197.1 19.4 219.3L0.600006 277.8C-0.699994 281.9 0.399994 286.4 3.39999 289.4C6.39999 292.4 10.9 293.5 15 292.2L73.6 273.3C95.7 286 120.8 292.7 146.5 292.7C227.4 292.7 292.9 227.2 292.9 146.3C292.8 65.5 227.3 0 146.4 0ZM146.4 269.9C123.2 269.9 100.6 263.4 81 251.2C78.2 249.4 74.7 249 71.4 250L29.1 263.6L42.7 221.3C43.7 218.1 43.3 214.6 41.5 211.7C29.3 192.1 22.8 169.5 22.8 146.3C22.8 78.2 78.2 22.8 146.3 22.8C214.4 22.8 269.8 78.2 269.8 146.3C269.8 214.4 214.5 269.9 146.4 269.9Z" fill="url(#paint1_linear)"/>
<path d="M152.7 92.2C157.3 87.5 165.6 91.2 166 97.9C169.1 156 166.3 103.5 168.1 137.1L152.1 121.5L150.8 97.5C150.6 95.5 151.3 93.6 152.7 92.2Z" fill="url(#paint2_linear)"/>
<path d="M181 103.7C187.5 102.1 193.2 109.3 190.2 115.1C180.2 133.9 179.2 135.8 174.1 145.3C172.1 140.5 172.9 147.4 171.3 117.1L176.6 107.1C177.5 105.4 179 104.2 181 103.7Z" fill="url(#paint3_linear)"/>
<path d="M180.9 141.8L190.9 131.5C193.3 129.1 197.3 129.2 199.9 131.7C202.5 134.3 202.8 138.3 200.4 140.7L166.6 175.6L173.7 162.1C175.2 159.3 175.9 156 175.7 152.4C175.7 152.4 175.7 151.7 175.6 151.7C175.7 151.6 175.4 152.1 180.9 141.8Z" fill="url(#paint4_linear)"/>
<path d="M101.1 116.1C109.3 116.3 116.4 123.1 116.8 131.4C116.8 131.4 117.9 152.3 118.5 163.4C118.9 171.6 129 175.5 134.2 170.2L153.1 150.7C153.9 149.9 153.8 148.5 152.9 147.7L140.1 135.2C139.2 134.4 139.1 134.6 131.2 134.4C127 134.3 123.4 130.8 123.2 126.6C123 122.4 126.2 119.1 130.4 119.2L141 119.5C143 119.6 145 120.4 146.5 121.9C167.9 142.7 167.2 141.8 168.7 144.1C172.1 149.5 172.2 155.5 169.8 160L158.6 181.3C150.8 196.1 135.4 205.2 117.7 204.8C104.2 204.5 92.7001 193.3 91.9001 179.8C91.5001 172.3 90.3001 164.4 95.2001 155.2C98.3001 149.4 99.7001 142.7 99.3001 135.9L98.4001 118.9C98.4001 117.3 99.5001 116.1 101.1 116.1Z" fill="url(#paint5_linear)"/>
<path d="M353.617 238V80.7344H446.215V109.094H387.24V141.428H446.215V170.002H387.24V209.426H446.215V238H353.617ZM495.951 238H459.75L497.133 184.504L461.684 132.619H499.926L510.346 152.17C511.635 154.676 512.781 157.255 513.783 159.904C514.857 162.554 515.824 165.347 516.684 168.283C517.471 165.562 518.438 162.876 519.584 160.227C520.73 157.505 522.126 154.748 523.773 151.955L534.945 132.619H571.254L535.16 183.859L573.188 238H535.16L522.807 216.408C521.374 213.687 520.085 211.001 518.939 208.352C517.865 205.63 516.97 202.909 516.254 200.188C515.538 202.98 514.607 205.702 513.461 208.352C512.315 210.93 510.811 213.687 508.949 216.623L495.951 238ZM614.115 185.148C614.115 194.673 616.443 202.085 621.098 207.385C625.824 212.684 632.377 215.334 640.756 215.334C649.135 215.334 655.652 212.684 660.307 207.385C665.033 202.085 667.396 194.673 667.396 185.148C667.396 175.624 664.997 168.14 660.199 162.697C655.473 157.183 648.92 154.426 640.541 154.426C632.449 154.426 626.003 157.183 621.205 162.697C616.479 168.212 614.115 175.695 614.115 185.148ZM586.186 285.91V132.619H615.512V150.021C619.522 143.003 624.428 137.775 630.229 134.338C636.101 130.829 642.904 129.074 650.639 129.074C665.606 129.074 677.315 134.051 685.766 144.006C694.216 153.889 698.441 167.71 698.441 185.471C698.441 202.587 694.18 216.337 685.658 226.721C677.136 237.033 665.928 242.189 652.035 242.189C643.656 242.189 636.531 240.65 630.658 237.57C624.857 234.419 619.88 229.514 615.727 222.854C616.085 225.503 616.335 228.404 616.479 231.555C616.693 234.634 616.801 238.179 616.801 242.189V285.91H586.186ZM751.293 159.689C754.372 149.449 758.777 141.786 764.506 136.701C770.307 131.617 777.468 129.074 785.99 129.074C787.924 129.074 791.111 129.432 795.551 130.148C796.41 130.292 797.055 130.399 797.484 130.471L792.865 163.342C790.574 162.411 788.246 161.73 785.883 161.301C783.591 160.799 781.156 160.549 778.578 160.549C769.268 160.549 762.572 162.948 758.49 167.746C754.408 172.473 752.367 180.422 752.367 191.594V238H721.752V132.619H751.938L751.293 159.689ZM883.959 174.406C883.1 167.746 880.665 162.733 876.654 159.367C872.715 155.93 867.309 154.211 860.434 154.211C853.559 154.211 848.044 155.93 843.891 159.367C839.809 162.733 837.195 167.746 836.049 174.406H883.959ZM914.252 192.883H835.082C836.299 200.474 839.057 206.167 843.354 209.963C847.65 213.687 853.487 215.549 860.863 215.549C866.449 215.549 871.247 214.475 875.258 212.326C879.34 210.178 882.742 206.919 885.463 202.551L910.17 214.904C904.441 224.143 897.494 231.018 889.33 235.529C881.166 239.969 871.462 242.189 860.219 242.189C843.174 242.189 829.675 237.105 819.721 226.936C809.766 216.766 804.789 203.088 804.789 185.9C804.789 169.357 809.981 155.751 820.365 145.08C830.821 134.41 844.177 129.074 860.434 129.074C877.191 129.074 890.44 134.087 900.18 144.113C909.919 154.068 914.789 167.674 914.789 184.934C914.789 185.865 914.753 186.903 914.682 188.049C914.61 189.123 914.467 190.734 914.252 192.883ZM927.143 219.523L950.668 207.385C951.456 211.467 953.568 214.689 957.006 217.053C960.443 219.416 964.704 220.598 969.789 220.598C974.802 220.598 978.741 219.702 981.605 217.912C984.47 216.05 985.902 213.508 985.902 210.285C985.902 205.201 980.818 200.939 970.648 197.502C967.497 196.428 964.991 195.533 963.129 194.816C950.74 190.161 942.146 185.471 937.348 180.744C932.621 176.018 930.258 170.181 930.258 163.234C930.258 152.922 934.304 144.579 942.396 138.205C950.489 131.831 961.16 128.645 974.408 128.645C983.861 128.645 992.025 130.542 998.9 134.338C1005.85 138.133 1010.9 143.505 1014.05 150.451L991.596 161.623C990.378 157.684 988.266 154.712 985.258 152.707C982.25 150.63 978.49 149.592 973.979 149.592C969.467 149.592 965.814 150.523 963.021 152.385C960.229 154.247 958.832 156.682 958.832 159.689C958.832 164.917 965.779 169.787 979.672 174.299C981.319 174.8 982.572 175.194 983.432 175.48C994.962 179.276 1003.16 183.716 1008.03 188.801C1012.9 193.814 1015.34 200.223 1015.34 208.029C1015.34 218.485 1011.29 226.792 1003.2 232.951C995.105 239.11 984.184 242.189 970.434 242.189C959.548 242.189 950.238 240.184 942.504 236.174C934.841 232.092 929.721 226.542 927.143 219.523ZM1027.47 219.523L1051 207.385C1051.79 211.467 1053.9 214.689 1057.34 217.053C1060.78 219.416 1065.04 220.598 1070.12 220.598C1075.13 220.598 1079.07 219.702 1081.94 217.912C1084.8 216.05 1086.23 213.508 1086.23 210.285C1086.23 205.201 1081.15 200.939 1070.98 197.502C1067.83 196.428 1065.32 195.533 1063.46 194.816C1051.07 190.161 1042.48 185.471 1037.68 180.744C1032.95 176.018 1030.59 170.181 1030.59 163.234C1030.59 152.922 1034.64 144.579 1042.73 138.205C1050.82 131.831 1061.49 128.645 1074.74 128.645C1084.19 128.645 1092.36 130.542 1099.23 134.338C1106.18 138.133 1111.23 143.505 1114.38 150.451L1091.93 161.623C1090.71 157.684 1088.6 154.712 1085.59 152.707C1082.58 150.63 1078.82 149.592 1074.31 149.592C1069.8 149.592 1066.15 150.523 1063.35 152.385C1060.56 154.247 1059.16 156.682 1059.16 159.689C1059.16 164.917 1066.11 169.787 1080 174.299C1081.65 174.8 1082.9 175.194 1083.76 175.48C1095.29 179.276 1103.49 183.716 1108.36 188.801C1113.23 193.814 1115.67 200.223 1115.67 208.029C1115.67 218.485 1111.62 226.792 1103.53 232.951C1095.44 239.11 1084.52 242.189 1070.77 242.189C1059.88 242.189 1050.57 240.184 1042.84 236.174C1035.17 232.092 1030.05 226.542 1027.47 219.523ZM1141.45 238V80.7344H1175.07V238H1141.45ZM1269.82 109.309V238H1236.09V109.309H1197.63V80.7344H1308.49V109.309H1269.82Z" fill="url(#paint6_linear)"/>
<defs>
<linearGradient id="paint0_linear" x1="7.84265" y1="137.303" x2="292.543" y2="137.303" gradientUnits="userSpaceOnUse">
<stop stop-color="#FBCB69"/>
<stop offset="1" stop-color="#FA81A9"/>
</linearGradient>
<linearGradient id="paint1_linear" x1="6.77905" y1="-37.7904" x2="332.27" y2="391.633" gradientUnits="userSpaceOnUse">
<stop stop-color="#F9CF6B"/>
<stop offset="0.135417" stop-color="#FBC36E"/>
<stop offset="0.307292" stop-color="#FBB67B"/>
<stop offset="0.583333" stop-color="#FC929B"/>
<stop offset="0.786458" stop-color="#FC8AA0"/>
<stop offset="1" stop-color="#FC76B0"/>
</linearGradient>
<linearGradient id="paint2_linear" x1="151.168" y1="84.0212" x2="193.865" y2="104.78" gradientUnits="userSpaceOnUse">
<stop stop-color="#F9CF6B"/>
<stop offset="0.135417" stop-color="#FBC36E"/>
<stop offset="0.307292" stop-color="#FBB67B"/>
<stop offset="0.583333" stop-color="#FC929B"/>
<stop offset="0.786458" stop-color="#FC8AA0"/>
<stop offset="1" stop-color="#FC76B0"/>
</linearGradient>
<linearGradient id="paint3_linear" x1="171.757" y1="98.074" x2="215.075" y2="125.007" gradientUnits="userSpaceOnUse">
<stop stop-color="#F9CF6B"/>
<stop offset="0.135417" stop-color="#FBC36E"/>
<stop offset="0.307292" stop-color="#FBB67B"/>
<stop offset="0.583333" stop-color="#FC929B"/>
<stop offset="0.786458" stop-color="#FC8AA0"/>
<stop offset="1" stop-color="#FC76B0"/>
</linearGradient>
<linearGradient id="paint4_linear" x1="167.42" y1="123.843" x2="220.348" y2="177.795" gradientUnits="userSpaceOnUse">
<stop stop-color="#F9CF6B"/>
<stop offset="0.135417" stop-color="#FBC36E"/>
<stop offset="0.307292" stop-color="#FBB67B"/>
<stop offset="0.583333" stop-color="#FC929B"/>
<stop offset="0.786458" stop-color="#FC8AA0"/>
<stop offset="1" stop-color="#FC76B0"/>
</linearGradient>
<linearGradient id="paint5_linear" x1="93.327" y1="104.648" x2="194.265" y2="224.63" gradientUnits="userSpaceOnUse">
<stop stop-color="#F9CF6B"/>
<stop offset="0.135417" stop-color="#FBC36E"/>
<stop offset="0.307292" stop-color="#FBB67B"/>
<stop offset="0.583333" stop-color="#FC929B"/>
<stop offset="0.786458" stop-color="#FC8AA0"/>
<stop offset="1" stop-color="#FC76B0"/>
</linearGradient>
<linearGradient id="paint6_linear" x1="336" y1="-3.5" x2="390.276" y2="496.028" gradientUnits="userSpaceOnUse">
<stop stop-color="#F9CF6B"/>
<stop offset="0.135417" stop-color="#FBC36E"/>
<stop offset="0.307292" stop-color="#FBB67B"/>
<stop offset="0.583333" stop-color="#FC929B"/>
<stop offset="0.786458" stop-color="#FC8AA0"/>
<stop offset="1" stop-color="#FC76B0"/>
</linearGradient>
</defs>
</svg>
