<svg width="257" height="56" viewBox="0 0 257 56" fill="none" xmlns="http://www.w3.org/2000/svg">
<g opacity="0.5">
<path opacity="0.32" d="M55.9045 28.841C55.9045 29.6819 55.8662 30.5229 55.7707 31.3638H55.7515C54.7195 31.1727 53.6683 31.1345 52.6362 31.3256C49.884 31.8225 47.9918 30.886 46.7877 28.7645C46.1952 27.7133 45.7556 26.5666 45.1823 25.5154C45.144 25.458 45.1249 25.4007 45.0867 25.3434C44.6471 24.7126 43.6341 24.8464 43.4048 25.5918C43.4048 25.5918 43.4048 25.5918 43.4048 25.6109C42.8505 27.484 42.4683 29.3952 41.8376 31.23C41.4744 32.3195 40.9202 33.4089 40.1748 34.2689C38.6266 36.0082 36.3331 35.7215 35.626 33.5236C35.4157 32.912 35.2437 32.2812 35.0908 31.6505C35.0335 31.4021 34.957 31.1536 34.8997 30.9051C34.785 30.4464 34.6894 29.9686 34.5939 29.5099C34.3454 28.3058 34.1352 27.0826 33.9058 25.8594C33.8676 25.63 33.8294 25.4198 33.7911 25.1905C33.7338 24.9229 33.6956 24.6553 33.6574 24.3877C33.2178 21.7502 32.8928 19.0935 32.4724 16.456C32.3959 15.9591 32.243 15.4621 32.0519 15.0225C32.0328 14.9652 31.9946 14.9079 31.9754 14.8505C31.9372 14.7741 31.8799 14.6976 31.8417 14.6212C31.4785 14.1051 30.6758 14.1051 30.3891 14.6785C30.3509 14.7358 30.3318 14.7932 30.3318 14.8696C29.9495 17.0294 29.5672 19.2082 29.2423 21.387C29.1085 22.2471 28.9939 23.1072 28.8792 23.9481C28.841 24.273 28.8027 24.598 28.7645 24.9229C28.5161 26.8915 28.3058 28.841 28.0765 30.8096C27.828 33.0457 27.5795 35.2628 27.2929 37.499C27.2546 37.843 27.1782 38.1679 27.0635 38.512C26.8533 39.1618 26.5666 39.8116 26.2225 40.4041C25.2287 42.2198 23.3556 42.43 22.1133 40.7481C21.5017 39.9263 20.9857 38.9898 20.6417 37.9959C20.527 37.671 20.4314 37.3652 20.355 37.0403C19.7051 34.4601 19.2082 31.8225 18.6731 29.2041C18.5202 28.4205 18.3673 27.656 18.1952 26.8724C18.0041 25.9358 17.7365 25.0184 17.4307 24.1201C17.4116 24.0437 17.3734 23.9864 17.3161 23.9099C17.0103 23.5085 16.3795 23.4894 16.0737 23.8908C16.0164 23.9481 15.9782 24.0246 15.9591 24.101C15.4621 26.1079 15.0417 28.1529 14.583 30.1788C14.1816 31.8608 13.8184 33.5618 13.3024 35.2055C12.8437 36.6198 12.0219 37.8621 10.3208 37.8812C8.6007 37.9004 7.7024 36.6963 7.10991 35.2819C6.59387 34.0396 6.21162 32.7591 5.71469 31.4976C4.85462 29.2997 4.14745 28.841 1.83483 28.841C1.75838 28.841 1.66282 28.841 1.58636 28.841V28.7836C1.58636 27.9236 1.62459 27.0826 1.70104 26.2416C1.91127 26.2416 2.14063 26.2416 2.35087 26.2225C4.98841 26.1079 6.72766 27.3502 7.75974 29.6819C8.33312 30.9816 8.73449 32.3768 9.28875 33.6765C9.28875 33.6956 9.30787 33.7147 9.30787 33.7338C9.67101 34.4983 10.8178 34.4983 11.1236 33.7147C11.1427 33.6765 11.1427 33.6382 11.1618 33.6C11.7543 31.0771 12.1939 28.5161 12.8055 25.9932C13.1495 24.5788 13.5509 23.1263 14.2389 21.8457C15.5768 19.3611 18.2526 19.342 19.2655 21.9604C19.4567 22.4382 19.6287 22.9352 19.7816 23.413C20.5461 25.7829 21.0048 28.2676 21.6164 30.6758C22.1516 32.8546 22.6103 35.0526 23.1645 37.2314C23.1836 37.2887 23.2027 37.3652 23.241 37.4225C23.5659 37.9768 24.4068 37.9386 24.6744 37.3461C24.6935 37.2887 24.7126 37.2314 24.7318 37.155C24.9611 35.5113 25.1713 33.8676 25.3625 32.2239C25.5918 30.4273 25.8021 28.6498 26.0314 26.8533C26.1461 25.9932 26.2417 25.1522 26.3563 24.2922C26.4901 23.241 26.6239 22.1898 26.7577 21.1195C27.0253 19.1318 27.2929 17.1249 27.5795 15.1372C27.7133 14.2198 28.1147 13.3024 28.5734 12.4806C29.8922 9.99591 32.3959 9.90035 33.6765 12.385C34.4792 13.9331 35.0335 15.6724 35.3393 17.3925C35.4348 17.985 35.5495 18.5966 35.626 19.1891C35.9126 21.043 36.1611 22.8969 36.4096 24.7509C36.486 25.2669 36.5434 25.8021 36.6198 26.3181C36.7154 27.1208 36.8301 27.9044 36.9447 28.7072C36.983 29.013 37.0403 29.2997 37.0976 29.6055C37.1932 30.0833 37.3079 30.542 37.4608 30.9816C37.4608 31.0007 37.4799 31.0389 37.499 31.058C37.8048 31.7843 38.8751 31.8608 39.2 31.1345C39.2191 31.0963 39.2382 31.058 39.2382 31.0389C39.7543 29.4335 40.1174 27.7898 40.6143 26.1652C40.6335 26.0887 40.6717 25.9932 40.6908 25.9167C40.8628 25.3625 41.0348 24.7891 41.226 24.2348C41.4171 23.7188 41.6082 23.241 41.8758 22.7632C43.0417 20.6608 45.1632 20.527 46.5393 22.4765C47.3038 23.5468 47.858 24.8082 48.355 26.0505C49.1386 28.0191 50.3618 29.0703 52.598 28.8219C53.63 28.7454 54.7768 28.8218 55.9045 28.841Z" fill="white"/>
</g>
<path d="M27.9809 0C12.5188 0 0 12.5188 0 27.9809C0 32.8928 1.28054 37.671 3.70785 41.914L0.114677 53.0949C-0.133787 53.8785 0.0764493 54.7386 0.649828 55.3119C1.22321 55.8853 2.08328 56.0956 2.86689 55.8471L14.0669 52.2348C18.2908 54.6621 23.0881 55.9427 28 55.9427C43.4621 55.9427 55.9809 43.4239 55.9809 27.9618C55.9618 12.5188 43.443 0 27.9809 0ZM27.9809 51.585C23.5468 51.585 19.2273 50.3427 15.4812 48.0109C14.9461 47.6669 14.2771 47.5904 13.6464 47.7816L5.56178 50.3809L8.16109 42.2962C8.35222 41.6846 8.27577 41.0157 7.93174 40.4614C5.6 36.7154 4.35768 32.3959 4.35768 27.9618C4.35768 14.9461 14.9461 4.35768 27.9618 4.35768C40.9775 4.35768 51.5659 14.9461 51.5659 27.9618C51.5659 40.9775 40.9966 51.585 27.9809 51.585Z" fill="white"/>
<path d="M29.1849 17.6218C30.0641 16.7235 31.6505 17.4307 31.7269 18.7112C32.3194 29.8157 31.7842 19.7815 32.1283 26.2034L29.0703 23.2218L28.8218 18.6348C28.7836 18.2525 28.9174 17.8894 29.1849 17.6218Z" fill="white"/>
<path d="M34.5938 19.8199C35.8361 19.5141 36.9255 20.8902 36.3522 21.9987C34.4409 25.5919 34.2498 25.9551 33.275 27.7708C32.8928 26.8534 33.0457 28.1721 32.7399 22.381L33.7528 20.4697C33.9248 20.1448 34.2115 19.9155 34.5938 19.8199Z" fill="white"/>
<path d="M34.5747 27.1018L36.486 25.1332C36.9447 24.6745 37.7092 24.6936 38.2061 25.1714C38.703 25.6683 38.7604 26.4329 38.3017 26.8916L31.8416 33.5619L33.1986 30.9817C33.4853 30.4465 33.6191 29.8158 33.5809 29.1277C33.5809 29.1277 33.5809 28.9939 33.5618 28.9939C33.5809 28.9748 33.5235 29.0704 34.5747 27.1018Z" fill="white"/>
<path d="M19.3228 22.1897C20.89 22.2279 22.247 23.5276 22.3235 25.1139C22.3235 25.1139 22.5337 29.1085 22.6484 31.23C22.7248 32.7972 24.6552 33.5426 25.6491 32.5296L29.2614 28.8027C29.4143 28.6498 29.3952 28.3822 29.2231 28.2293L26.7767 25.8402C26.6047 25.6873 26.5856 25.7255 25.0757 25.6873C24.273 25.6682 23.5849 24.9993 23.5467 24.1965C23.5085 23.3938 24.1201 22.7631 24.9228 22.7822L26.9487 22.8395C27.331 22.8586 27.7132 23.0115 27.9999 23.2982C32.09 27.2737 31.9562 27.1016 32.2429 27.5412C32.8928 28.5733 32.9119 29.7201 32.4532 30.5801L30.3126 34.6511C28.8218 37.4798 25.8784 39.219 22.4955 39.1426C19.9153 39.0853 17.7173 36.9446 17.5644 34.3644C17.488 32.931 17.2586 31.4211 18.1952 29.6627C18.7876 28.5542 19.0552 27.2737 18.9788 25.974L18.8068 22.7248C18.8068 22.419 19.017 22.1897 19.3228 22.1897Z" fill="white"/>
<path d="M67.5856 45.5869V15.5293H85.2834V20.9495H74.0118V27.1294H85.2834V32.5907H74.0118V40.1256H85.2834V45.5869H67.5856ZM94.7893 45.5869H87.8703L95.0152 35.3624L88.2399 25.4459H95.549L97.5405 29.1825C97.7869 29.6616 98.0059 30.1543 98.1975 30.6608C98.4028 31.1672 98.5876 31.701 98.7518 32.2622C98.9024 31.7421 99.0872 31.2288 99.3062 30.7224C99.5252 30.2022 99.7921 29.6753 100.107 29.1415L102.242 25.4459H109.182L102.283 35.2392L109.551 45.5869H102.283L99.9221 41.4602C99.6484 40.94 99.402 40.4268 99.183 39.9203C98.9777 39.4002 98.8066 38.8801 98.6697 38.36C98.5328 38.8938 98.3549 39.4139 98.1359 39.9203C97.9169 40.4131 97.6295 40.94 97.2736 41.5012L94.7893 45.5869ZM117.374 35.4856C117.374 37.306 117.818 38.7227 118.708 39.7355C119.611 40.7484 120.864 41.2548 122.465 41.2548C124.067 41.2548 125.312 40.7484 126.202 39.7355C127.105 38.7227 127.557 37.306 127.557 35.4856C127.557 33.6652 127.098 32.2348 126.181 31.1946C125.278 30.1407 124.026 29.6137 122.424 29.6137C120.878 29.6137 119.646 30.1407 118.729 31.1946C117.825 32.2485 117.374 33.6789 117.374 35.4856ZM112.035 54.7438V25.4459H117.64V28.7719C118.407 27.4305 119.345 26.4314 120.453 25.7744C121.576 25.1037 122.876 24.7683 124.354 24.7683C127.215 24.7683 129.453 25.7196 131.068 27.6222C132.683 29.511 133.491 32.1527 133.491 35.5472C133.491 38.8185 132.676 41.4465 131.047 43.4311C129.419 45.4021 127.276 46.3876 124.621 46.3876C123.02 46.3876 121.658 46.0933 120.535 45.5048C119.427 44.9025 118.475 43.965 117.682 42.692C117.75 43.1985 117.798 43.7528 117.825 44.355C117.866 44.9436 117.887 45.6211 117.887 46.3876V54.7438H112.035ZM143.592 30.6197C144.18 28.6624 145.022 27.1979 146.117 26.226C147.226 25.2542 148.595 24.7683 150.223 24.7683C150.593 24.7683 151.202 24.8368 152.051 24.9736C152.215 25.001 152.338 25.0216 152.42 25.0352L151.537 31.3178C151.099 31.1398 150.655 31.0098 150.203 30.9277C149.765 30.8319 149.299 30.784 148.807 30.784C147.027 30.784 145.748 31.2425 144.967 32.1595C144.187 33.0629 143.797 34.5822 143.797 36.7175V45.5869H137.946V25.4459H143.715L143.592 30.6197ZM168.948 33.4325C168.784 32.1595 168.318 31.2014 167.552 30.5581C166.799 29.9011 165.765 29.5726 164.451 29.5726C163.137 29.5726 162.084 29.9011 161.29 30.5581C160.51 31.2014 160.01 32.1595 159.791 33.4325H168.948ZM174.738 36.9638H159.606C159.839 38.4147 160.366 39.5029 161.187 40.2283C162.008 40.94 163.124 41.2959 164.534 41.2959C165.601 41.2959 166.518 41.0906 167.285 40.68C168.065 40.2693 168.715 39.6466 169.235 38.8116L173.957 41.1727C172.862 42.9384 171.535 44.2524 169.974 45.1147C168.414 45.9633 166.559 46.3876 164.41 46.3876C161.153 46.3876 158.573 45.4158 156.67 43.4722C154.768 41.5286 153.816 38.9143 153.816 35.6293C153.816 32.4675 154.809 29.8669 156.793 27.8275C158.792 25.788 161.344 24.7683 164.451 24.7683C167.654 24.7683 170.187 25.7265 172.048 27.6427C173.909 29.5452 174.84 32.1459 174.84 35.4445C174.84 35.6225 174.833 35.8209 174.82 36.0399C174.806 36.2452 174.779 36.5532 174.738 36.9638ZM177.201 42.0556L181.698 39.7355C181.848 40.5157 182.252 41.1317 182.909 41.5833C183.566 42.035 184.38 42.2609 185.352 42.2609C186.31 42.2609 187.063 42.0898 187.611 41.7476C188.158 41.3917 188.432 40.9058 188.432 40.2899C188.432 39.3181 187.46 38.5037 185.516 37.8467C184.914 37.6414 184.435 37.4703 184.079 37.3334C181.711 36.4437 180.069 35.5472 179.152 34.6438C178.248 33.7404 177.797 32.6249 177.797 31.2972C177.797 29.3262 178.57 27.7317 180.117 26.5135C181.663 25.2953 183.703 24.6862 186.235 24.6862C188.042 24.6862 189.602 25.0489 190.916 25.7744C192.244 26.4998 193.209 27.5264 193.811 28.854L189.52 30.9893C189.287 30.2365 188.884 29.6684 188.309 29.2852C187.734 28.8883 187.015 28.6898 186.153 28.6898C185.291 28.6898 184.593 28.8677 184.059 29.2236C183.525 29.5795 183.258 30.0448 183.258 30.6197C183.258 31.6189 184.586 32.5496 187.241 33.4119C187.556 33.5078 187.795 33.583 187.96 33.6378C190.163 34.3632 191.731 35.2118 192.661 36.1837C193.592 37.1418 194.057 38.3668 194.057 39.8587C194.057 41.8571 193.284 43.4448 191.737 44.622C190.191 45.7991 188.103 46.3876 185.475 46.3876C183.395 46.3876 181.616 46.0044 180.137 45.2379C178.673 44.4577 177.694 43.3969 177.201 42.0556ZM196.377 42.0556L200.874 39.7355C201.024 40.5157 201.428 41.1317 202.085 41.5833C202.742 42.035 203.556 42.2609 204.528 42.2609C205.486 42.2609 206.239 42.0898 206.787 41.7476C207.334 41.3917 207.608 40.9058 207.608 40.2899C207.608 39.3181 206.636 38.5037 204.693 37.8467C204.09 37.6414 203.611 37.4703 203.255 37.3334C200.887 36.4437 199.245 35.5472 198.328 34.6438C197.424 33.7404 196.973 32.6249 196.973 31.2972C196.973 29.3262 197.746 27.7317 199.293 26.5135C200.84 25.2953 202.879 24.6862 205.411 24.6862C207.218 24.6862 208.778 25.0489 210.092 25.7744C211.42 26.4998 212.385 27.5264 212.987 28.854L208.696 30.9893C208.463 30.2365 208.06 29.6684 207.485 29.2852C206.91 28.8883 206.191 28.6898 205.329 28.6898C204.467 28.6898 203.769 28.8677 203.235 29.2236C202.701 29.5795 202.434 30.0448 202.434 30.6197C202.434 31.6189 203.762 32.5496 206.417 33.4119C206.732 33.5078 206.971 33.583 207.136 33.6378C209.339 34.3632 210.907 35.2118 211.837 36.1837C212.768 37.1418 213.233 38.3668 213.233 39.8587C213.233 41.8571 212.46 43.4448 210.913 44.622C209.367 45.7991 207.279 46.3876 204.651 46.3876C202.571 46.3876 200.792 46.0044 199.313 45.2379C197.849 44.4577 196.87 43.3969 196.377 42.0556ZM218.161 45.5869V15.5293H224.587V45.5869H218.161ZM242.696 20.9906V45.5869H236.249V20.9906H228.899V15.5293H250.087V20.9906H242.696Z" fill="white"/>
</svg>
