<svg width="758" height="762" viewBox="0 0 758 762" fill="none" xmlns="http://www.w3.org/2000/svg">
<path d="M298.425 320.578C282.926 319.773 267.83 308.546 253.132 286.9L253.097 286.547L241.279 238.307C256.928 238.527 275.078 256.311 295.734 291.663C303.453 300.631 307.561 307.969 308.06 313.677C308.433 317.927 306.133 320.975 298.425 320.578Z" fill="url(#paint0_linear)"/>
<path fill-rule="evenodd" clip-rule="evenodd" d="M299.704 249.88C298.221 250.883 296.652 251.363 294.997 251.324C292.511 251.267 293.668 249.131 289.566 247.685C285.465 246.241 284.828 242.601 286.157 241.158C286.418 240.874 286.629 240.755 286.806 240.751C285.966 240.371 286.89 237.664 288.295 235.957C289.373 234.649 290.759 234.745 292.454 236.247C292.031 232.897 291.626 230.181 291.24 228.101C290.663 224.981 292.801 223.017 292.916 224.691C292.994 225.809 293.994 229.584 295.921 236.015C295.921 229.276 296.459 225.887 297.537 225.848C298.616 225.809 298.819 229.949 298.145 238.268C299.994 231.163 301.553 228.015 302.824 228.824C304.095 229.631 303.056 236.651 299.704 249.88ZM290.895 239.829C290.663 237.748 288.929 240.291 287.313 240.753C287.192 240.788 287.087 240.798 286.995 240.794C287.572 241.082 287.763 242.751 288.352 243.468C289.162 244.45 291.125 241.909 290.895 239.829Z" fill="url(#paint1_linear)"/>
<path d="M299.967 248.821L301.037 257.938L293.43 256.459L293.138 250.363L299.967 248.821Z" fill="url(#paint2_linear)"/>
<path d="M293.128 254.637C286.455 296.254 287.839 317.98 297.285 319.816C306.587 324.852 311.05 318.879 310.674 301.898C310.298 284.916 307.577 269.163 302.514 254.637H293.128Z" fill="url(#paint3_linear)"/>
<path d="M168.458 552.588C168.17 551.402 168.363 549.817 169.398 548.751C170.791 547.317 173.124 547.438 174.588 548.102C175.443 548.488 176.106 549.106 178.452 553.999C180.931 559.166 180.921 560 180.522 560.472C179.711 561.43 177.435 560.723 176.946 560.571C175.316 560.064 174.919 559.291 171.561 556.147C169.285 554.017 168.72 553.67 168.458 552.588Z" fill="url(#paint4_linear)"/>
<path d="M170.043 544.51L170.612 550.501C171.976 551.209 172.822 551.152 173.27 550.501L174.414 544.51H170.043Z" fill="url(#paint5_linear)"/>
<path d="M227.333 551.84C226.53 550.92 225.971 549.422 226.398 548.001C226.973 546.087 229.101 545.119 230.705 545.033C231.642 544.982 232.517 545.224 236.853 548.484C241.433 551.928 241.809 552.674 241.671 553.275C241.394 554.499 239.05 554.921 238.545 555.011C236.865 555.313 236.154 554.812 231.726 553.567C228.725 552.725 228.064 552.68 227.333 551.84Z" fill="url(#paint6_linear)"/>
<path d="M227.731 541.835L228.298 547.824C229.664 548.535 230.51 548.477 230.956 547.824L232.102 541.835H227.731Z" fill="url(#paint7_linear)"/>
<path d="M168.511 545.682C170.665 545.812 172.822 545.941 174.977 546.07C179.54 523.808 184.552 501.02 190.056 477.749C196.089 452.244 202.392 427.519 208.887 403.595C210.947 412.702 212.984 423.351 214.588 435.326C216.971 453.098 217.454 466.716 217.569 470.487C218.156 489.765 216.476 492.04 217.271 504.076C217.895 513.539 219.945 527.444 226.805 544.329C228.861 544.203 230.915 544.08 232.971 543.955C237.469 522.2 241.322 495.76 242.411 465.561C243.746 428.529 240.542 396.441 236.341 371.137C217.667 371.716 198.995 372.297 180.323 372.877C174.494 385.89 171.838 397.018 170.493 404.844C167.788 420.568 169.448 428.33 167.412 455.121C166.358 468.969 165.592 471.164 164.828 480.36C163.565 495.589 163.345 517.585 168.511 545.682Z" fill="url(#paint8_linear)"/>
<path style="mix-blend-mode:multiply" opacity="0.302" d="M180.919 492.535C182.623 474.43 176.09 474.804 179.132 459.163C181.929 444.772 187.863 442.375 192.242 424.003C195.756 409.258 193.072 406.023 195.818 399.569C199.209 391.596 209.119 382.894 237.6 379.194C237.194 376.444 236.775 373.745 236.341 371.137C217.667 371.716 198.995 372.297 180.323 372.877C174.494 385.89 171.838 397.018 170.493 404.844C167.788 420.568 169.448 428.33 167.412 455.121C166.358 468.969 165.592 471.164 164.828 480.36C163.565 495.589 163.345 517.585 168.511 545.682C170.665 545.812 172.822 545.941 174.977 546.07C175.11 545.423 175.252 544.766 175.385 544.119C174.297 542.353 173.307 540.371 172.576 538.124C167.848 523.599 178.791 515.161 180.919 492.535Z" fill="url(#paint9_linear)"/>
<path d="M252.054 309.337C250.209 315.587 251.696 333.879 251.454 351.787C251.136 373.867 248.184 395.361 233.104 392.981C205.806 388.671 159.33 411.922 162.583 371.135C164.834 342.877 162.534 298.946 162.982 269.306C163.07 263.332 163.274 257.942 163.647 253.374C164.257 245.927 169.671 239.749 176.979 238.188C194.133 234.513 227.251 229.693 248.755 240.928C278.832 256.642 256.168 295.371 252.054 309.337Z" fill="url(#paint10_linear)"/>
<path d="M214.352 211.569C213.623 217.369 212.179 222.379 210.022 226.593C207.1 232.307 193.918 234.99 191.2 236.099C188.483 237.21 195.678 241.667 203.154 243.029C210.63 244.39 232.291 244.405 236.399 241.858C240.509 239.311 233.492 238.966 228.271 236.559C223.05 234.154 220.783 223.385 222.116 218.686C223.003 215.551 220.415 213.181 214.352 211.569Z" fill="url(#paint11_linear)"/>
<path d="M228.563 211.148C231.145 208.806 231.675 203.277 229.048 200.014C227.099 197.592 224.102 197.278 221.919 197.048C220.908 196.941 213.785 196.28 210.717 200.763C209.743 202.189 209.297 204.337 209.511 206.169C209.62 207.114 209.988 208.348 210.891 210.754C211.692 212.888 211.622 212.803 211.877 213.43C212.483 214.933 213.734 217.519 216.39 220.824C216.807 219.945 217.386 218.871 218.187 217.741C218.495 217.306 219.723 215.613 221.313 214.327C224.544 211.719 226.544 212.978 228.563 211.148Z" fill="url(#paint12_linear)"/>
<path d="M212.81 217.33C214.223 221.286 217.088 223.566 221.407 224.172C227.208 224.987 230.705 212.327 227.616 208.846C226.585 207.683 224.219 206.8 222.118 206.944C220.877 207.03 220.378 207.435 218.349 207.535C216.476 207.628 216.014 207.326 215.383 207.667C214.597 208.092 213.818 209.376 214.159 213.36C213.298 212.027 212.074 211.333 211.056 211.577C210.893 211.616 210.444 211.803 210.14 212.163C209.035 213.463 209.985 215.613 212.81 217.33Z" fill="url(#paint13_linear)"/>
<path d="M213.752 209.854C214.422 213.247 215.085 215.422 215.747 216.377C216.739 217.813 219.495 219.355 222.845 218.677C225.078 218.228 226.877 217.679 228.238 217.03C227.772 221.3 227.224 223.611 226.595 223.962C225.649 224.488 219.364 226.086 217.918 225.385C216.47 224.687 213.689 220.546 213.403 218.429C213.214 217.018 213.272 214.602 213.576 211.183L213.752 209.854Z" fill="url(#paint14_linear)"/>
<path style="mix-blend-mode:multiply" opacity="0.4" d="M251.454 351.787C251.136 373.867 248.184 395.361 233.104 392.98C205.806 388.671 159.33 411.921 162.583 371.135C164.834 342.877 162.534 298.946 162.982 269.306C163.442 267.259 165.227 274.057 168.338 289.704C189.069 279.405 199.026 284.012 198.215 303.524C196.995 332.789 196.076 348.643 228.237 347.016C237.691 346.535 245.559 348.447 251.454 351.787Z" fill="url(#paint15_linear)"/>
<path d="M207.749 325.187C210.497 324.287 212.298 323.649 213.151 323.269C214.43 322.7 216.49 321.279 218.48 322.344C220.471 323.41 222.958 331.797 220.896 332.224C218.836 332.649 209.811 332.793 207.749 332.721C205.689 332.649 203.245 326.748 207.749 325.187Z" fill="url(#paint16_linear)"/>
<path d="M218.55 323.571C224.166 320.445 227.043 319.36 227.185 320.319C227.327 321.278 224.698 322.932 219.298 325.277L218.55 323.571Z" fill="url(#paint17_linear)"/>
<path d="M219.82 325.277C226.39 323.873 229.746 323.579 229.886 324.396C230.028 325.214 226.7 326.161 219.906 327.239L219.82 325.277Z" fill="url(#paint18_linear)"/>
<path d="M153.501 313.279C158.786 309.278 188.458 285.639 188.865 271.818C189.272 258 188.518 238.227 172.228 239.983C133.188 259.581 115.159 287.603 118.139 324.051C120.115 348.207 150.194 351.594 208.375 334.212L206.749 323.645C167.728 319.401 149.978 315.947 153.501 313.279Z" fill="url(#paint19_linear)"/>
<path d="M409.734 584.885C409.315 584.885 408.96 584.565 408.921 584.144L394.102 423.99C394.061 423.54 394.391 423.142 394.839 423.101C395.289 423.064 395.687 423.391 395.731 423.84L408.917 566.359V420.371C408.917 419.919 409.282 419.554 409.734 419.554C410.186 419.554 410.552 419.919 410.552 420.371V584.068C410.552 584.505 410.209 584.865 409.773 584.885C409.759 584.885 409.747 584.885 409.734 584.885Z" fill="#B7C0CE"/>
<path d="M574.983 437.889L412.408 420.078L100.075 434.274L263.654 453.862L574.983 437.889Z" fill="white"/>
<path d="M263.654 453.862L574.983 437.889V445.604L263.654 461.577L100.075 441.989V434.274L263.654 453.862Z" fill="#B7C0CE"/>
<path d="M264.761 640.744C264.749 640.744 264.739 640.744 264.728 640.742C264.289 640.725 263.942 640.364 263.942 639.926V459.7C263.942 459.25 264.307 458.882 264.759 458.882C265.211 458.882 265.577 459.25 265.577 459.7V618.982L278.038 459.636C278.073 459.186 278.463 458.851 278.917 458.884C279.366 458.921 279.703 459.314 279.668 459.763L265.574 639.99C265.542 640.415 265.184 640.744 264.761 640.744Z" fill="#B7C0CE"/>
<path d="M101.862 608.727C101.851 608.727 101.839 608.727 101.829 608.727C101.391 608.709 101.044 608.349 101.044 607.91V441.564C101.044 441.112 101.41 440.746 101.862 440.746C102.313 440.746 102.679 441.112 102.679 441.564V587.052L114.107 441.5C114.142 441.048 114.542 440.711 114.986 440.748C115.436 440.783 115.773 441.177 115.738 441.627L102.677 607.973C102.642 608.401 102.287 608.727 101.862 608.727Z" fill="#B7C0CE"/>
<path d="M573.443 608.727C573.02 608.727 572.663 608.403 572.628 607.978L558.76 441.631C558.721 441.182 559.055 440.785 559.505 440.748C559.957 440.711 560.351 441.046 560.388 441.496L572.626 588.262V445.604C572.626 445.154 572.991 444.786 573.443 444.786C573.895 444.786 574.261 445.154 574.261 445.604V607.91C574.261 608.347 573.913 608.709 573.476 608.725C573.466 608.727 573.453 608.727 573.443 608.727Z" fill="#B7C0CE"/>
<path d="M492.515 577.025C481.124 577.816 475.344 578.584 475.176 579.327C474.925 580.443 486.774 584.756 490.915 584.916C495.053 585.079 498.459 583.854 498.085 582.1C497.834 580.932 497.226 578.878 496.261 575.936L492.515 577.025Z" fill="url(#paint20_linear)"/>
<path d="M491.708 569.434L491.404 577.497C493.137 578.475 494.69 578.682 496.066 578.122L498.36 569.617L491.708 569.434Z" fill="url(#paint21_linear)"/>
<path d="M444.729 573.774C433.338 574.564 427.558 575.333 427.392 576.076C427.139 577.191 438.988 581.505 443.129 581.665C447.27 581.827 450.675 580.603 450.299 578.849C450.05 577.68 449.443 575.624 448.475 572.685L444.729 573.774Z" fill="url(#paint22_linear)"/>
<path d="M443.922 566.18L443.618 574.244C445.351 575.224 446.906 575.431 448.28 574.868L450.574 566.365L443.922 566.18Z" fill="url(#paint23_linear)"/>
<path d="M489.892 570.572C493.084 570.927 496.278 571.282 499.469 571.638C503.783 566.858 510.22 558.523 513.66 546.806C520.292 524.213 510.686 507.934 516.852 503.881C525.579 498.145 544.493 531.163 574.854 530.315C587.311 529.966 603.57 523.866 609.82 510.579C610.763 508.574 615.396 498.075 610.884 488.23C606.223 478.068 583.111 473.646 537.072 465.214C517.312 461.595 507.332 459.79 503.323 461.704C474.909 475.268 486.758 551.969 489.892 570.572Z" fill="url(#paint24_linear)"/>
<path d="M441.145 570.709C444.447 571.284 447.748 571.857 451.051 572.433C455.062 566.526 461.133 557.269 467.921 545.522C482.073 521.036 481.814 516.063 488.356 512.91C502.197 506.241 512.656 524.26 546.888 529.231C558.086 530.855 582.944 534.464 593.004 521.07C597.082 515.64 599.425 506.488 596.196 498.722C590.41 484.798 571.354 486.47 508.574 474.243C484.092 469.476 480.754 468.626 474.825 470.735C441.705 482.512 441.06 554.625 441.145 570.709Z" fill="url(#paint25_linear)"/>
<path d="M509.729 378.964C512.988 370.995 519.984 366.411 523.611 364.035C525.427 362.845 527.105 361.954 528.807 361.258C541.944 355.895 555.061 356.263 557.402 356.439C563.075 356.864 577.089 357.912 587.471 366.908C592.495 371.262 596.512 377.342 602.37 411.605C610.539 459.393 603.909 454.495 610.352 473.863C613.761 484.112 619.073 495.873 613.455 503.382C611.64 505.808 609.048 506.504 603.763 508.882C584.023 517.765 566.322 516.235 555.568 515.169C543.733 513.997 537.752 513.327 534.614 509.145C529.6 502.464 534.76 493.975 535.661 479.286C536.306 468.737 533.909 460.377 529.113 443.663C517.963 404.801 503.485 394.233 509.729 378.964Z" fill="url(#paint26_linear)"/>
<path d="M537.633 347.606C535.511 344.399 538.687 338.234 539.944 335.793C539.987 335.709 540.042 335.6 540.159 335.381C542.09 331.821 542.583 331.336 543.503 330.718L544.783 329.93C544.832 329.909 544.883 329.891 544.937 329.872C545.756 329.58 548.556 329.494 549.123 329.617C550.934 330.003 552.863 337.381 552.312 347.815C552.388 348.214 552.46 348.614 552.53 349.019C552.816 350.666 553.042 352.28 553.218 353.86C553.385 355.369 555.527 355.334 557.043 355.238C563.198 354.846 566.211 355.369 566.472 356.285C566.963 358.005 559.661 363.62 550.647 364.883C538.547 364.973 528.705 363.684 529.763 361.78C530.233 360.933 539.607 358.483 542.244 356.055C544.658 353.833 544.46 351.539 544.66 349.896C543.413 349.961 539.25 350.05 537.633 347.606Z" fill="url(#paint27_linear)"/>
<path d="M541.03 326.966C540.034 329.159 542.447 333.565 543.339 334.206C543.439 334.278 544.002 334.721 544.51 335.483C544.579 335.588 544.639 335.709 544.694 335.865C545.401 337.903 542.164 340.3 542.788 341.212C543.242 341.873 545.442 340.988 545.705 341.559C545.951 342.097 544.121 343.21 544.403 343.853C544.612 344.34 545.74 343.896 546.448 344.64C546.997 345.217 547.061 346.032 547.075 346.439C547.161 349.335 540.595 359.791 539.227 364.511C537.777 369.515 540.373 374.278 549.798 387.439C563.208 406.16 569.912 415.522 573.64 418.198C591.856 431.276 613.278 429.674 622.061 428.308C632.614 426.669 654.416 423.282 661.438 406.491C669.508 387.19 653.619 360.779 637.315 356.296C629.86 354.244 625.892 357.359 616.209 353.989C605.515 350.267 606.811 343.689 596.911 339.803C583.706 334.619 575.185 343.886 566.191 337.139C561.294 333.466 562.101 329.437 556.079 326.497C550.139 323.595 542.332 324.09 541.03 326.966Z" fill="#26264F"/>
<path d="M543.951 340.452C544.742 339.363 546.134 340.386 546.142 341.795C546.151 343.202 544.787 344.666 543.462 344.389C542.139 344.11 542.885 341.916 543.951 340.452Z" fill="url(#paint28_linear)"/>
<path style="mix-blend-mode:multiply" opacity="0.4" d="M565.782 501.287C562.301 494.353 570.833 485.139 565.258 474.57C560.526 465.594 551.926 467.605 547.973 459.377C543.195 449.44 553.582 442.015 553.21 426.898C552.766 408.826 537.216 390.737 528.064 392.323C522.145 393.35 521.383 402.182 517.217 411.854C520.904 419.936 525.211 430.064 529.114 443.663C533.909 460.377 536.306 468.737 535.661 479.283C534.76 493.977 529.6 502.466 534.614 509.145C537.752 513.325 543.733 513.997 555.568 515.169C566.322 516.233 584.023 517.765 603.763 508.882C606.262 507.759 608.131 506.917 609.658 506.085C578.816 510.716 568.544 506.785 565.782 501.287Z" fill="url(#paint29_linear)"/>
<path fill-rule="evenodd" clip-rule="evenodd" d="M477.756 363.123C478.842 362.431 479.929 364.871 481.015 370.439C480.933 363.833 481.352 360.547 482.274 360.58C483.194 360.613 483.656 363.509 483.656 369.27C485.302 363.772 486.158 360.547 486.224 359.592C486.322 358.158 488.15 359.839 487.655 362.504C487.327 364.283 486.982 366.604 486.618 369.467C488.068 368.184 489.253 368.101 490.173 369.221C491.375 370.679 492.166 372.994 491.447 373.318C491.599 373.32 491.78 373.423 492.001 373.665C493.137 374.9 492.593 378.011 489.087 379.246C485.581 380.48 486.569 382.306 484.445 382.355C483.03 382.388 481.689 381.978 480.422 381.121C477.558 369.814 476.669 363.813 477.756 363.123ZM490.124 375.641C490.629 375.027 490.792 373.602 491.285 373.353C491.206 373.359 491.116 373.349 491.013 373.32C489.631 372.924 488.15 370.751 487.951 372.53C487.754 374.306 489.434 376.479 490.124 375.641Z" fill="url(#paint30_linear)"/>
<path d="M480.198 380.215L479.282 388.01L485.786 386.745L486.035 381.534L480.198 380.215Z" fill="url(#paint31_linear)"/>
<path d="M527.302 365.06C525.404 364.595 523.827 365.251 521.541 366.238C517.445 368.005 509.32 372.893 502.156 391.906C500.461 396.404 499.317 400.379 498.447 403.823L498.397 403.685C494.984 417.143 492.283 420.801 490.297 414.659C488.309 408.516 487.045 398.637 486.503 385.021L477.386 383.598C476.145 388.642 475.254 393.792 474.675 398.951C474.149 403.62 473.459 408.321 473.446 413.029C473.434 417.716 473.999 422.493 474.695 427.125C475.741 434.087 481.292 440.765 486.869 444.763C493.445 449.477 501.686 450.122 509.271 447.711C510.805 447.224 512.325 446.633 513.783 445.953C515.319 445.238 516.427 444.599 516.956 444.293C532.383 435.367 535.09 416.559 536.471 406.967C538.919 389.945 536.033 367.194 527.302 365.06Z" fill="url(#paint32_linear)"/>
<path d="M317.123 603.494C317.405 601.949 322.394 600.55 324.865 602.619C326.091 603.648 326.937 605.73 326.226 606.671C325.968 607.012 327.025 607.616 326.013 607.626C322.651 607.665 316.844 605.028 317.123 603.494Z" fill="url(#paint33_linear)"/>
<path d="M322.581 603.502L327.757 603.761C326.561 601.586 326.682 597.543 328.12 591.632L322.529 591.797C322.622 593.512 322.782 595.646 323.008 598.195C323.125 599.503 322.909 601.477 322.581 603.502Z" fill="url(#paint34_linear)"/>
<path d="M321.899 603.424C326.017 602.475 328.299 602.409 328.744 603.227C329.414 604.451 329.932 607.733 326.013 607.626C322.092 607.521 321.55 604.463 321.899 603.424Z" fill="url(#paint35_linear)"/>
<path d="M285.608 609.787C286.103 608.296 291.238 607.61 293.397 610.005C294.467 611.194 295.011 613.375 294.177 614.207C293.873 614.509 294.837 615.254 293.832 615.123C290.499 614.692 285.117 611.268 285.608 609.787Z" fill="url(#paint36_linear)"/>
<path d="M291.677 611.222L296.763 612.221C295.892 609.898 296.593 605.915 298.862 600.269L293.308 599.63C293.152 601.341 293.004 603.475 292.863 606.032C292.791 607.345 292.296 609.265 291.677 611.222Z" fill="url(#paint37_linear)"/>
<path d="M290.347 610.387C294.557 610.023 296.827 610.278 297.153 611.149C297.642 612.455 297.698 615.776 293.832 615.123C289.965 614.47 289.856 611.366 290.347 610.387Z" fill="url(#paint38_linear)"/>
<path d="M319.198 592.341C322.39 592.694 325.583 593.05 328.775 593.405C333.088 588.626 339.525 580.291 342.966 568.573C349.557 546.126 339.238 531.391 346.157 525.649C354.137 519.027 369.897 536.916 404.69 541.967C415.89 543.594 440.748 547.202 450.808 533.809C454.885 528.378 457.227 519.226 454 511.458C448.214 497.537 429.158 499.209 366.378 486.982C342.195 482.272 338.373 480.73 332.628 483.472C304.215 497.038 316.064 573.737 319.198 592.341Z" fill="url(#paint39_linear)"/>
<path d="M290.7 601.37C293.894 601.725 297.086 602.08 300.277 602.434C304.591 597.654 311.027 589.322 314.468 577.604C321.059 555.155 310.74 540.422 317.66 534.677C325.639 528.058 341.401 545.947 376.194 550.998C387.392 552.622 412.252 556.233 422.31 542.837C426.387 537.407 428.731 528.255 425.502 520.489C419.716 506.565 400.66 508.237 337.88 496.012C313.698 491.301 309.875 489.758 304.13 492.502C275.717 506.066 287.566 582.767 290.7 601.37Z" fill="url(#paint40_linear)"/>
<path fill-rule="evenodd" clip-rule="evenodd" d="M307.037 384.259C308.123 383.567 309.21 386.005 310.298 391.575C310.214 384.97 310.633 381.682 311.555 381.715C312.477 381.747 312.938 384.646 312.938 390.407C314.585 384.908 315.441 381.682 315.507 380.729C315.606 379.295 317.431 380.975 316.939 383.641C316.61 385.42 316.263 387.741 315.901 390.604C317.349 389.32 318.534 389.238 319.457 390.357C320.658 391.816 321.447 394.128 320.73 394.453C320.882 394.457 321.061 394.56 321.285 394.802C322.42 396.037 321.876 399.146 318.37 400.381C314.864 401.617 315.852 403.443 313.728 403.492C312.313 403.525 310.972 403.114 309.705 402.258C306.84 390.949 305.95 384.95 307.037 384.259ZM319.407 396.776C319.913 396.164 320.075 394.736 320.568 394.49C320.488 394.494 320.399 394.486 320.297 394.455C318.914 394.061 317.431 391.888 317.234 393.666C317.037 395.443 318.715 397.616 319.407 396.776Z" fill="url(#paint41_linear)"/>
<path d="M309.479 401.352L308.565 409.145L315.067 407.882L315.316 402.669L309.479 401.352Z" fill="url(#paint42_linear)"/>
<path d="M339.035 400.732C342.294 392.763 349.29 388.178 352.917 385.802C361.5 380.178 366.996 381.205 386.708 378.206C412.975 374.21 416.12 370.422 424.95 373.491C436.546 377.523 442.603 388.051 445.38 392.873C459.375 417.196 443.012 429.556 447.214 478.002C448.929 497.787 453.326 514.98 442.761 525.149C440.535 527.291 438.047 528.411 433.069 530.65C413.329 539.533 395.628 538.001 384.874 536.937C373.039 535.764 367.056 535.094 363.92 530.912C358.906 524.233 364.066 515.744 364.967 501.053C365.612 490.504 363.215 482.147 358.417 465.43C347.267 426.568 332.791 416 339.035 400.732Z" fill="url(#paint43_linear)"/>
<path d="M383.005 363.87C381.809 359.61 383.9 355.665 384.36 354.815C386.291 351.255 386.784 350.768 387.706 350.152L388.986 349.361C389.035 349.343 389.084 349.322 389.138 349.304C389.959 349.012 392.757 348.928 393.323 349.049C395.135 349.435 397.064 356.815 396.513 367.247C396.589 367.645 396.661 368.046 396.731 368.45C397.016 370.098 397.242 371.712 397.419 373.292C397.585 374.801 399.727 374.766 401.243 374.67C407.399 374.277 410.412 374.801 410.673 375.717C411.164 377.436 403.864 383.052 394.847 384.315C382.75 384.405 372.908 383.117 373.965 381.211C374.434 380.365 383.81 377.917 386.445 375.489C388.858 373.265 388.663 370.971 388.86 369.327C388.129 368.948 383.886 367.009 383.005 363.87Z" fill="url(#paint44_linear)"/>
<path d="M385.231 346.4C385.241 349.631 386.765 353.083 387.54 353.638C387.64 353.71 388.205 354.155 388.71 354.915C388.78 355.02 388.842 355.141 388.895 355.297C389.604 357.335 386.365 359.732 386.989 360.644C387.443 361.305 389.645 360.42 389.906 360.993C390.152 361.529 388.322 362.642 388.604 363.287C388.815 363.774 389.941 363.328 390.651 364.074C391.005 364.443 390.9 364.737 391.276 365.871C391.487 366.514 391.783 367.214 392.013 367.604C393.13 369.502 396.293 370.196 396.903 369.436C397.072 369.225 396.926 369.046 397.101 368.338C397.207 367.898 397.413 367.426 397.719 366.918C398.372 365.83 399.953 365.051 401.547 363.905C404.499 361.779 405.3 359.968 405.542 359.356C405.626 359.136 405.68 358.972 405.719 358.853C406.487 356.472 406.489 352.972 405.419 350.82C403.624 347.215 399.578 348.926 396.265 345.354C392.442 341.234 394.718 335.6 392.644 334.978C390.358 334.292 385.211 340.423 385.231 346.4Z" fill="#26264F"/>
<path d="M388.152 359.884C388.944 358.795 390.335 359.818 390.343 361.227C390.351 362.634 388.988 364.098 387.663 363.821C386.34 363.544 387.086 361.348 388.152 359.884Z" fill="url(#paint45_linear)"/>
<path style="mix-blend-mode:multiply" opacity="0.4" d="M395.088 523.054C391.606 516.122 400.138 506.907 394.564 496.337C389.832 487.362 381.232 489.372 377.278 481.144C372.501 471.21 382.888 463.783 382.516 448.666C382.072 430.594 366.522 412.505 357.37 414.09C351.45 415.117 350.688 423.951 346.523 433.621C350.21 441.703 354.517 451.831 358.417 465.43C363.215 482.147 365.612 490.504 364.967 501.053C364.065 515.745 358.906 524.233 363.92 530.913C367.056 535.094 373.039 535.764 384.874 536.937C395.628 538.001 413.329 539.533 433.069 530.65C435.568 529.526 437.437 528.684 438.963 527.852C408.122 532.484 397.85 528.553 395.088 523.054Z" fill="url(#paint46_linear)"/>
<path d="M356.585 386.194C354.687 385.732 353.108 386.387 350.822 387.373C346.728 389.142 338.601 394.028 331.439 413.043C329.745 417.541 328.601 421.515 327.73 424.96L327.678 424.822C324.267 438.279 321.566 441.937 319.578 435.796C317.592 429.653 316.326 419.774 315.784 406.158L306.669 404.735C305.428 409.779 304.537 414.928 303.958 420.086C303.432 424.756 302.742 429.458 302.728 434.163C302.715 438.852 303.282 443.63 303.978 448.261C305.024 455.224 310.576 461.901 316.152 465.898C322.729 470.614 330.969 471.259 338.554 468.848C340.086 468.361 341.608 467.769 343.066 467.09C344.603 466.375 345.71 465.736 346.238 465.43C361.667 456.502 364.371 437.696 365.752 428.104C368.202 411.082 365.316 388.33 356.585 386.194Z" fill="url(#paint47_linear)"/>
<path d="M456.701 636.831C456.701 648.764 432.995 658.44 403.751 658.44C374.51 658.44 350.803 648.764 350.803 636.831C350.803 624.896 374.51 615.22 403.751 615.22C432.995 615.22 456.701 624.896 456.701 636.831Z" fill="#D8DEE8"/>
<path d="M456.701 634.296C456.701 645.562 432.995 654.696 403.751 654.696C374.51 654.696 350.803 645.562 350.803 634.296C350.803 623.031 374.51 604.597 403.751 604.597C432.995 604.597 456.701 623.031 456.701 634.296Z" fill="url(#paint48_linear)"/>
<path style="mix-blend-mode:multiply" opacity="0.302" d="M456.701 634.296C456.701 623.031 432.995 604.597 403.751 604.597C390.249 604.597 377.936 608.53 368.582 613.87C367.927 615.242 367.623 616.604 367.746 617.9C368.354 624.238 378.691 628.135 384.625 629.42C399.569 632.657 406.867 623.721 419.188 624.062C426.806 624.271 437.361 628.1 449.882 644.305C454.216 641.347 456.701 637.936 456.701 634.296Z" fill="url(#paint49_linear)"/>
<path d="M406.651 614.829C404.536 615.355 402.562 615.335 400.705 614.862C399.021 614.435 397.865 612.876 397.865 611.138V551.433H409.64V611.069C409.64 612.86 408.391 614.396 406.651 614.829Z" fill="white"/>
<path style="mix-blend-mode:multiply" opacity="0.651" d="M406.651 614.829C404.536 615.355 402.562 615.335 400.705 614.862C399.021 614.435 397.865 612.876 397.865 611.138V551.433H409.64V611.069C409.64 612.86 408.391 614.396 406.651 614.829Z" fill="url(#paint50_linear)"/>
<path d="M341.54 526.308L359.526 514.938C360.274 510.69 368.753 466.256 403.174 452.301C417.171 446.626 432.235 447.3 440.502 447.67C457.005 448.407 468.776 448.933 474.437 456.806C481.707 466.913 469.513 476.08 472.038 504.992C473.069 516.784 475.685 522.019 472.426 529.83C468.519 539.188 459.459 544.374 452.415 547.293C443.994 552.183 429.333 559.152 409.968 560.849C377.35 563.708 352.999 549.714 344.625 544.362C340.902 543.187 338.104 540.092 337.311 536.267C336.508 532.392 338.195 528.421 341.54 526.308Z" fill="url(#paint51_linear)"/>
<g style="mix-blend-mode:soft-light" opacity="0.259">
<path d="M349.809 534.404C350.475 530.405 361.619 533.72 372.16 525.889C387.915 514.186 379.737 494.359 393.445 475.338C406.023 457.884 431.345 449.001 439.206 455.651C449.67 464.504 424.06 497.611 439.206 518.971C446.563 529.35 457.771 528.851 457.83 534.936C457.921 544.553 430.025 555.642 403.554 555.157C375.097 554.635 348.756 540.749 349.809 534.404Z" fill="white"/>
</g>
<path d="M612.145 611.011C612.145 622.944 588.439 632.62 559.195 632.62C529.954 632.62 506.247 622.944 506.247 611.011C506.247 599.076 529.954 589.4 559.195 589.4C588.439 589.4 612.145 599.076 612.145 611.011Z" fill="#D8DEE8"/>
<path d="M612.145 608.476C612.145 619.742 588.439 628.876 559.195 628.876C529.954 628.876 506.247 619.742 506.247 608.476C506.247 597.211 529.954 578.777 559.195 578.777C588.439 578.777 612.145 597.211 612.145 608.476Z" fill="url(#paint52_linear)"/>
<path style="mix-blend-mode:multiply" opacity="0.302" d="M612.145 608.476C612.145 597.211 588.439 578.777 559.195 578.777C545.693 578.777 533.38 582.71 524.026 588.05C523.371 589.422 523.067 590.784 523.19 592.08C523.798 598.418 534.135 602.315 540.069 603.6C555.013 606.837 562.311 597.901 574.632 598.242C582.25 598.453 592.805 602.28 605.326 618.485C609.66 615.53 612.145 612.116 612.145 608.476Z" fill="url(#paint53_linear)"/>
<path d="M562.095 589.009C559.98 589.535 558.006 589.515 556.149 589.042C554.465 588.615 553.308 587.056 553.308 585.319V525.614H565.084V585.249C565.084 587.04 563.835 588.576 562.095 589.009Z" fill="white"/>
<path style="mix-blend-mode:multiply" opacity="0.651" d="M562.095 589.009C559.98 589.535 558.006 589.515 556.149 589.042C554.465 588.615 553.308 587.056 553.308 585.319V525.614H565.084V585.249C565.084 587.04 563.835 588.576 562.095 589.009Z" fill="url(#paint54_linear)"/>
<path d="M496.984 500.488L514.97 489.118C515.718 484.87 524.196 440.436 558.618 426.482C572.615 420.807 587.679 421.48 595.946 421.85C612.449 422.587 624.22 423.113 629.88 430.986C637.151 441.093 624.957 450.26 627.481 479.173C628.512 490.964 631.131 496.199 627.87 504.01C623.963 513.368 614.903 518.554 607.858 521.475C599.437 526.363 584.776 533.332 565.412 535.029C532.794 537.888 508.443 523.894 500.069 518.542C496.345 517.367 493.548 514.272 492.755 510.447C491.954 506.572 493.638 502.601 496.984 500.488Z" fill="url(#paint55_linear)"/>
<g style="mix-blend-mode:soft-light" opacity="0.259">
<path d="M505.253 508.585C505.919 504.586 517.063 507.901 527.604 500.069C543.359 488.366 535.181 468.54 548.889 449.518C561.467 432.064 586.789 423.181 594.65 429.832C605.114 438.684 579.504 471.791 594.65 493.152C602.007 503.53 613.215 503.031 613.275 509.117C613.365 518.733 585.469 529.822 558.998 529.338C530.541 528.816 504.2 514.929 505.253 508.585Z" fill="white"/>
</g>
<path d="M464.789 107.356C522.771 107.356 569.777 154.359 569.777 212.343C569.777 270.325 522.771 317.329 464.789 317.329C406.807 317.329 359.804 270.325 359.804 212.343C359.804 154.359 406.807 107.356 464.789 107.356Z" fill="url(#paint56_linear)"/>
<path d="M351.288 212.343C351.288 270.325 398.292 317.329 456.274 317.329C514.258 317.329 561.261 270.325 561.261 212.343C561.261 154.359 514.258 107.356 456.274 107.356C398.292 107.356 351.288 154.359 351.288 212.343Z" fill="url(#paint57_linear)"/>
<path d="M549.536 212.341C549.536 233.595 542.425 253.181 530.461 268.863C513.422 291.197 486.526 305.605 456.274 305.605C404.768 305.605 363.018 263.847 363.018 212.341C363.018 172.705 387.739 138.848 422.61 125.352C433.052 121.304 444.404 119.088 456.274 119.088C507.78 119.088 549.536 160.837 549.536 212.341Z" fill="url(#paint58_linear)"/>
<g style="mix-blend-mode:soft-light" opacity="0.4">
<path d="M530.461 268.863C513.422 291.197 486.526 305.605 456.274 305.605C404.768 305.605 363.018 263.847 363.018 212.341C363.018 172.705 387.739 138.848 422.61 125.352C417.379 143.073 401.091 213.391 467.923 226.275C506.377 233.685 525.462 250.464 530.461 268.863Z" fill="white"/>
</g>
<path d="M444.172 174.221C438.152 169.747 429.895 171.468 427.659 171.811C426.168 172.042 421.924 173.418 414.931 175.94L430.583 165.103C436.891 163.957 441.362 162.123 444 159.599C447.955 155.816 441.763 154.612 434.712 155.3C430.01 155.758 421.524 160.747 409.254 170.265L412.178 165.964C419.287 158.05 422.269 152.776 421.123 150.139C419.402 146.183 405.47 162.867 401.169 170.092C396.869 177.316 387.236 185.918 387.494 195.98C387.685 203.405 381.413 209.425 378.112 212.07C376.835 213.095 376.077 214.631 376.046 216.266C375.962 220.579 376.067 229.253 377.819 237.005C380.271 247.841 389.429 241.905 391.882 238.551C394.332 235.197 405.943 238.165 409.297 240.359C412.651 242.55 431.873 233.133 435.357 232.747C438.84 232.359 442.58 229.65 444.129 225.394C445.678 221.136 447.869 215.589 446.064 213.266C444.258 210.945 439.485 214.944 437.033 218.254C434.582 221.565 428.347 218.943 421.639 218.254C414.931 217.566 414.758 210.343 415.619 207.075C416.477 203.805 429.035 197.27 430.411 198.301C431.329 198.989 434.252 200.252 439.183 202.086C441.362 207.131 443.599 210.055 445.891 210.858C449.332 212.062 449.159 202.602 447.267 197.785C445.376 192.969 436.946 187.464 432.648 186.776C429.78 186.318 424.218 187.407 415.962 190.046C420.663 185.688 424.218 182.59 426.628 180.756C429.035 178.922 433.221 179.181 439.183 181.533C443.885 183.767 447.161 184.885 449.011 184.885C451.788 184.885 450.192 178.692 444.172 174.221Z" fill="white"/>
<path d="M458.558 255.693C464.58 260.165 472.836 258.446 475.071 258.1C476.562 257.872 480.806 256.496 487.801 253.972L472.148 264.811C465.841 265.957 461.367 267.791 458.73 270.313C454.774 274.098 460.967 275.302 468.02 274.614C472.721 274.156 481.206 269.167 493.476 259.649L490.551 263.95C483.443 271.862 480.461 277.136 481.609 279.775C483.328 283.731 497.261 267.045 501.56 259.822C505.861 252.596 515.494 243.996 515.235 233.934C515.046 226.509 521.317 220.487 524.618 217.842C525.895 216.819 526.653 215.283 526.684 213.646C526.768 209.334 526.665 200.661 524.911 192.909C522.461 182.073 513.3 188.007 510.85 191.361C508.398 194.715 496.787 191.749 493.433 189.555C490.079 187.362 470.856 196.779 467.375 197.167C463.892 197.553 460.149 200.262 458.601 204.52C457.054 208.778 454.861 214.325 456.666 216.646C458.473 218.969 463.247 214.97 465.697 211.66C468.147 208.347 474.383 210.971 481.091 211.66C487.801 212.348 487.972 219.571 487.113 222.839C486.253 226.107 473.695 232.644 472.319 231.611C471.403 230.923 468.478 229.662 463.547 227.828C461.367 222.781 459.133 219.859 456.838 219.056C453.398 217.85 453.571 227.312 455.462 232.127C457.354 236.943 465.783 242.448 470.084 243.136C472.949 243.596 478.511 242.505 486.768 239.868C482.067 244.226 478.511 247.322 476.104 249.156C473.695 250.992 469.509 250.733 463.547 248.381C458.845 246.147 455.569 245.029 453.719 245.029C450.942 245.029 452.538 251.22 458.558 255.693Z" fill="white"/>
<path d="M239.671 651.824C218.698 649.13 192.106 642.05 181.426 622.086C178.885 617.335 176.336 608.109 182.749 604.636C188.61 601.46 196.191 604.814 200.548 608.947C203.752 611.985 206.251 618.767 209.85 620.911C215.118 624.051 217.955 615.487 217.844 611.952C217.595 604.048 207.874 600.813 201.414 599.098C190.689 596.25 178.203 593.808 178.877 581.722C179.549 569.637 191.33 562.389 200.396 567.676C207.864 572.032 206.812 581.33 211.916 586.908C216.449 591.865 218.026 583.821 217.725 579.876C217.065 571.309 209.534 565.114 203.992 559.374C197.726 552.883 190.802 539.825 197.481 531.241C201.324 526.304 211.088 525.147 216.86 525.981C245.109 530.058 226.378 566.616 231.512 570.695C236.649 574.774 241.509 567.635 241.496 556.778C241.484 545.921 243.146 537.914 254.475 541.39C265.804 544.863 267.961 573.221 255.024 584.119C242.088 595.015 255.837 606.905 259.31 599.096C261.816 593.456 264.022 578.689 271.268 577.068C283.341 574.375 283.162 599.031 279.687 604.767C274.817 612.812 263.802 614.558 257.65 621.498C255.864 623.515 251.83 628.508 253.397 631.454C255.582 635.564 261.68 631.168 263.921 629.262C268.957 624.982 275.93 610.428 283.026 620.091C291.786 632.027 277.134 649.717 239.671 651.824Z" fill="url(#paint59_linear)"/>
<g style="mix-blend-mode:soft-light" opacity="0.8">
<g style="mix-blend-mode:soft-light" opacity="0.8">
<path d="M236.649 649.783C237.142 649.783 237.547 649.352 237.555 648.857C237.563 648.429 238.147 605.418 219.374 554.288C219.199 553.818 218.68 553.568 218.209 553.74C217.739 553.913 217.499 554.428 217.671 554.898C236.331 605.714 235.752 648.401 235.744 648.824C235.733 649.325 236.132 649.783 236.633 649.783C236.639 649.783 236.645 649.783 236.649 649.783Z" fill="white"/>
</g>
</g>
<path d="M228.937 633.432C232.336 630.54 239.56 635.062 242.556 636.784C244.296 637.782 246.676 639.312 248.767 638.425C250.965 637.49 250.811 635.184 249.482 633.551C247.104 630.624 242.538 629.819 239.221 628.393C235.657 626.861 232.385 624.774 230.627 621.178C229.227 618.311 228.906 614.071 230.484 611.247C234.848 603.43 241.203 609.53 244.756 614.193C246.481 616.454 250.343 620.352 253.27 617.684C256.383 614.846 253.711 609.787 251.296 607.556C248.139 604.64 244.317 602.613 240.878 600.078C237.779 597.794 234.593 594.52 236.658 590.468C238.251 587.338 242.265 585.606 245.693 585.871C253.615 586.483 254.849 598.051 260.066 602.494C261.912 604.063 266.104 605.312 268.306 603.771C270.545 602.2 269.089 598.605 268.284 596.644C265.895 590.831 248.757 571.344 262.96 568.896C266.536 568.28 271.463 569.405 274.271 571.679C279.572 575.967 282.384 584.46 283.778 590.903C285.976 601.041 285.851 612.301 283.4 622.384C279.788 637.24 273.739 647.053 265.25 651.824C259.743 653.636 252.859 654.529 247.151 653.322C240.441 651.902 232.416 646.934 229.097 640.737C228.023 638.733 226.83 635.223 228.937 633.432Z" fill="url(#paint60_linear)"/>
<defs>
<linearGradient id="paint0_linear" x1="294.352" y1="164.936" x2="331.451" y2="563.04" gradientUnits="userSpaceOnUse">
<stop stop-color="#FF9085"/>
<stop offset="1" stop-color="#FB6FBB"/>
</linearGradient>
<linearGradient id="paint1_linear" x1="301.522" y1="223.705" x2="318.576" y2="293.342" gradientUnits="userSpaceOnUse">
<stop stop-color="#FFC444"/>
<stop offset="0.996" stop-color="#F36F56"/>
</linearGradient>
<linearGradient id="paint2_linear" x1="294.506" y1="224.791" x2="312.26" y2="297.286" gradientUnits="userSpaceOnUse">
<stop stop-color="#FFC444"/>
<stop offset="0.996" stop-color="#F36F56"/>
</linearGradient>
<linearGradient id="paint3_linear" x1="302.628" y1="205.492" x2="328.793" y2="486.267" gradientUnits="userSpaceOnUse">
<stop stop-color="#FF9085"/>
<stop offset="1" stop-color="#FB6FBB"/>
</linearGradient>
<linearGradient id="paint4_linear" x1="171.98" y1="575.476" x2="161.843" y2="515.779" gradientUnits="userSpaceOnUse">
<stop stop-color="#AA80F9"/>
<stop offset="0.996" stop-color="#6165D7"/>
</linearGradient>
<linearGradient id="paint5_linear" x1="169.06" y1="550.831" x2="172.53" y2="514.592" gradientUnits="userSpaceOnUse">
<stop stop-color="#FFC444"/>
<stop offset="0.996" stop-color="#F36F56"/>
</linearGradient>
<linearGradient id="paint6_linear" x1="228.784" y1="566.671" x2="218.33" y2="505.106" gradientUnits="userSpaceOnUse">
<stop stop-color="#AA80F9"/>
<stop offset="0.996" stop-color="#6165D7"/>
</linearGradient>
<linearGradient id="paint7_linear" x1="225.969" y1="556.038" x2="229.439" y2="519.802" gradientUnits="userSpaceOnUse">
<stop stop-color="#FFC444"/>
<stop offset="0.996" stop-color="#F36F56"/>
</linearGradient>
<linearGradient id="paint8_linear" x1="135.464" y1="533.731" x2="191.085" y2="324.758" gradientUnits="userSpaceOnUse">
<stop stop-color="#444B8C"/>
<stop offset="0.996" stop-color="#26264F"/>
</linearGradient>
<linearGradient id="paint9_linear" x1="135.454" y1="533.731" x2="191.075" y2="324.758" gradientUnits="userSpaceOnUse">
<stop stop-color="#444B8C"/>
<stop offset="0.996" stop-color="#26264F"/>
</linearGradient>
<linearGradient id="paint10_linear" x1="246.055" y1="196.315" x2="321.121" y2="459.044" gradientUnits="userSpaceOnUse">
<stop stop-color="#FF9085"/>
<stop offset="1" stop-color="#FB6FBB"/>
</linearGradient>
<linearGradient id="paint11_linear" x1="232.566" y1="228.162" x2="207.465" y2="191.239" gradientUnits="userSpaceOnUse">
<stop stop-color="#FFC444"/>
<stop offset="0.996" stop-color="#F36F56"/>
</linearGradient>
<linearGradient id="paint12_linear" x1="211.264" y1="239.419" x2="232.888" y2="206.106" gradientUnits="userSpaceOnUse">
<stop stop-color="#444B8C"/>
<stop offset="0.996" stop-color="#3E4177"/>
</linearGradient>
<linearGradient id="paint13_linear" x1="242.877" y1="225.64" x2="212.205" y2="194.112" gradientUnits="userSpaceOnUse">
<stop stop-color="#FFC444"/>
<stop offset="0.996" stop-color="#F36F56"/>
</linearGradient>
<linearGradient id="paint14_linear" x1="228.508" y1="239.752" x2="209.535" y2="215.888" gradientUnits="userSpaceOnUse">
<stop stop-color="#444B8C"/>
<stop offset="0.996" stop-color="#3E4177"/>
</linearGradient>
<linearGradient id="paint15_linear" x1="203.731" y1="165.012" x2="357.016" y2="701.51" gradientUnits="userSpaceOnUse">
<stop stop-color="#FF9085"/>
<stop offset="1" stop-color="#FB6FBB"/>
</linearGradient>
<linearGradient id="paint16_linear" x1="223.597" y1="332.449" x2="184.075" y2="360.926" gradientUnits="userSpaceOnUse">
<stop stop-color="#FFC444"/>
<stop offset="0.996" stop-color="#F36F56"/>
</linearGradient>
<linearGradient id="paint17_linear" x1="216.362" y1="327.475" x2="181.304" y2="352.736" gradientUnits="userSpaceOnUse">
<stop stop-color="#FFC444"/>
<stop offset="0.996" stop-color="#F36F56"/>
</linearGradient>
<linearGradient id="paint18_linear" x1="216.348" y1="329.565" x2="174.772" y2="347.46" gradientUnits="userSpaceOnUse">
<stop stop-color="#FFC444"/>
<stop offset="0.996" stop-color="#F36F56"/>
</linearGradient>
<linearGradient id="paint19_linear" x1="178.546" y1="191.839" x2="251.442" y2="446.973" gradientUnits="userSpaceOnUse">
<stop stop-color="#FF9085"/>
<stop offset="1" stop-color="#FB6FBB"/>
</linearGradient>
<linearGradient id="paint20_linear" x1="496.049" y1="552.273" x2="499.808" y2="600.117" gradientUnits="userSpaceOnUse">
<stop offset="0.004" stop-color="#26264F"/>
<stop offset="1" stop-color="#444B8C"/>
</linearGradient>
<linearGradient id="paint21_linear" x1="490.007" y1="578.558" x2="498.648" y2="524.344" gradientUnits="userSpaceOnUse">
<stop stop-color="#FFC444"/>
<stop offset="0.996" stop-color="#F36F56"/>
</linearGradient>
<linearGradient id="paint22_linear" x1="448.264" y1="549.021" x2="452.023" y2="596.865" gradientUnits="userSpaceOnUse">
<stop offset="0.004" stop-color="#26264F"/>
<stop offset="1" stop-color="#444B8C"/>
</linearGradient>
<linearGradient id="paint23_linear" x1="442.222" y1="575.306" x2="450.862" y2="521.092" gradientUnits="userSpaceOnUse">
<stop stop-color="#FFC444"/>
<stop offset="0.996" stop-color="#F36F56"/>
</linearGradient>
<linearGradient id="paint24_linear" x1="493.757" y1="460.523" x2="610.483" y2="460.523" gradientUnits="userSpaceOnUse">
<stop stop-color="#444B8C"/>
<stop offset="0.996" stop-color="#26264F"/>
</linearGradient>
<linearGradient id="paint25_linear" x1="441.218" y1="469.241" x2="596.015" y2="469.241" gradientUnits="userSpaceOnUse">
<stop stop-color="#444B8C"/>
<stop offset="0.996" stop-color="#26264F"/>
</linearGradient>
<linearGradient id="paint26_linear" x1="573.478" y1="354.906" x2="638.401" y2="416.899" gradientUnits="userSpaceOnUse">
<stop offset="0.004" stop-color="#E38DDD"/>
<stop offset="1" stop-color="#9571F6"/>
</linearGradient>
<linearGradient id="paint27_linear" x1="550.569" y1="319.321" x2="578.36" y2="383.079" gradientUnits="userSpaceOnUse">
<stop stop-color="#FFC444"/>
<stop offset="0.996" stop-color="#F36F56"/>
</linearGradient>
<linearGradient id="paint28_linear" x1="540.401" y1="326.655" x2="566.415" y2="386.334" gradientUnits="userSpaceOnUse">
<stop stop-color="#FFC444"/>
<stop offset="0.996" stop-color="#F36F56"/>
</linearGradient>
<linearGradient id="paint29_linear" x1="537.428" y1="391.02" x2="607.102" y2="457.551" gradientUnits="userSpaceOnUse">
<stop offset="0.004" stop-color="#E38DDD"/>
<stop offset="1" stop-color="#9571F6"/>
</linearGradient>
<linearGradient id="paint30_linear" x1="484.921" y1="382.358" x2="484.921" y2="359.068" gradientUnits="userSpaceOnUse">
<stop stop-color="#FFC444"/>
<stop offset="0.996" stop-color="#F36F56"/>
</linearGradient>
<linearGradient id="paint31_linear" x1="484.807" y1="359.661" x2="469.632" y2="421.628" gradientUnits="userSpaceOnUse">
<stop stop-color="#FFC444"/>
<stop offset="0.996" stop-color="#F36F56"/>
</linearGradient>
<linearGradient id="paint32_linear" x1="543.33" y1="379.864" x2="517.877" y2="496.063" gradientUnits="userSpaceOnUse">
<stop offset="0.004" stop-color="#E38DDD"/>
<stop offset="1" stop-color="#9571F6"/>
</linearGradient>
<linearGradient id="paint33_linear" x1="316.799" y1="597.581" x2="326.622" y2="604.108" gradientUnits="userSpaceOnUse">
<stop stop-color="#444B8C"/>
<stop offset="0.996" stop-color="#26264F"/>
</linearGradient>
<linearGradient id="paint34_linear" x1="321.403" y1="606.139" x2="322.258" y2="588.989" gradientUnits="userSpaceOnUse">
<stop stop-color="#FFC444"/>
<stop offset="0.996" stop-color="#F36F56"/>
</linearGradient>
<linearGradient id="paint35_linear" x1="318.162" y1="596.033" x2="327.859" y2="602.477" gradientUnits="userSpaceOnUse">
<stop stop-color="#444B8C"/>
<stop offset="0.996" stop-color="#26264F"/>
</linearGradient>
<linearGradient id="paint36_linear" x1="286.436" y1="603.772" x2="295.081" y2="611.462" gradientUnits="userSpaceOnUse">
<stop stop-color="#444B8C"/>
<stop offset="0.996" stop-color="#26264F"/>
</linearGradient>
<linearGradient id="paint37_linear" x1="290.135" y1="613.664" x2="293.442" y2="596.814" gradientUnits="userSpaceOnUse">
<stop stop-color="#FFC444"/>
<stop offset="0.996" stop-color="#F36F56"/>
</linearGradient>
<linearGradient id="paint38_linear" x1="288.076" y1="602.679" x2="296.346" y2="610.035" gradientUnits="userSpaceOnUse">
<stop stop-color="#444B8C"/>
<stop offset="0.996" stop-color="#26264F"/>
</linearGradient>
<linearGradient id="paint39_linear" x1="442.94" y1="547.532" x2="390.147" y2="585.241" gradientUnits="userSpaceOnUse">
<stop stop-color="#444B8C"/>
<stop offset="0.996" stop-color="#26264F"/>
</linearGradient>
<linearGradient id="paint40_linear" x1="294.692" y1="490.741" x2="425.431" y2="490.741" gradientUnits="userSpaceOnUse">
<stop stop-color="#444B8C"/>
<stop offset="0.996" stop-color="#26264F"/>
</linearGradient>
<linearGradient id="paint41_linear" x1="314.204" y1="403.494" x2="314.204" y2="380.204" gradientUnits="userSpaceOnUse">
<stop stop-color="#FFC444"/>
<stop offset="0.996" stop-color="#F36F56"/>
</linearGradient>
<linearGradient id="paint42_linear" x1="314.09" y1="380.798" x2="298.915" y2="442.764" gradientUnits="userSpaceOnUse">
<stop stop-color="#FFC444"/>
<stop offset="0.996" stop-color="#F36F56"/>
</linearGradient>
<linearGradient id="paint43_linear" x1="413.665" y1="363.743" x2="476.205" y2="423.462" gradientUnits="userSpaceOnUse">
<stop stop-color="#FFC444"/>
<stop offset="0.996" stop-color="#F36F56"/>
</linearGradient>
<linearGradient id="paint44_linear" x1="394.77" y1="338.754" x2="422.561" y2="402.511" gradientUnits="userSpaceOnUse">
<stop stop-color="#FFC444"/>
<stop offset="0.996" stop-color="#F36F56"/>
</linearGradient>
<linearGradient id="paint45_linear" x1="384.603" y1="346.089" x2="410.616" y2="405.765" gradientUnits="userSpaceOnUse">
<stop stop-color="#FFC444"/>
<stop offset="0.996" stop-color="#F36F56"/>
</linearGradient>
<linearGradient id="paint46_linear" x1="366.734" y1="412.788" x2="436.408" y2="479.319" gradientUnits="userSpaceOnUse">
<stop stop-color="#FFC444"/>
<stop offset="0.996" stop-color="#F36F56"/>
</linearGradient>
<linearGradient id="paint47_linear" x1="372.613" y1="401.001" x2="347.159" y2="517.2" gradientUnits="userSpaceOnUse">
<stop stop-color="#FFC444"/>
<stop offset="0.996" stop-color="#F36F56"/>
</linearGradient>
<linearGradient id="paint48_linear" x1="350.803" y1="604.185" x2="456.7" y2="604.185" gradientUnits="userSpaceOnUse">
<stop stop-color="#AA80F9"/>
<stop offset="0.996" stop-color="#6165D7"/>
</linearGradient>
<linearGradient id="paint49_linear" x1="367.816" y1="604.185" x2="456.7" y2="604.185" gradientUnits="userSpaceOnUse">
<stop stop-color="#AA80F9"/>
<stop offset="0.996" stop-color="#6165D7"/>
</linearGradient>
<linearGradient id="paint50_linear" x1="397.865" y1="551.024" x2="409.639" y2="551.024" gradientUnits="userSpaceOnUse">
<stop stop-color="#AA80F9"/>
<stop offset="0.996" stop-color="#6165D7"/>
</linearGradient>
<linearGradient id="paint51_linear" x1="396.958" y1="615.554" x2="375.978" y2="588.216" gradientUnits="userSpaceOnUse">
<stop stop-color="#893976"/>
<stop offset="0.792" stop-color="#E65B6F"/>
</linearGradient>
<linearGradient id="paint52_linear" x1="506.247" y1="578.366" x2="612.144" y2="578.366" gradientUnits="userSpaceOnUse">
<stop stop-color="#AA80F9"/>
<stop offset="0.996" stop-color="#6165D7"/>
</linearGradient>
<linearGradient id="paint53_linear" x1="523.26" y1="578.365" x2="612.144" y2="578.365" gradientUnits="userSpaceOnUse">
<stop stop-color="#AA80F9"/>
<stop offset="0.996" stop-color="#6165D7"/>
</linearGradient>
<linearGradient id="paint54_linear" x1="553.309" y1="525.204" x2="565.083" y2="525.204" gradientUnits="userSpaceOnUse">
<stop stop-color="#AA80F9"/>
<stop offset="0.996" stop-color="#6165D7"/>
</linearGradient>
<linearGradient id="paint55_linear" x1="552.402" y1="589.734" x2="531.422" y2="562.396" gradientUnits="userSpaceOnUse">
<stop stop-color="#893976"/>
<stop offset="0.792" stop-color="#E65B6F"/>
</linearGradient>
<linearGradient id="paint56_linear" x1="561.949" y1="282.147" x2="486.969" y2="388.572" gradientUnits="userSpaceOnUse">
<stop stop-color="#444B8C"/>
<stop offset="0.996" stop-color="#26264F"/>
</linearGradient>
<linearGradient id="paint57_linear" x1="690.707" y1="140.23" x2="436.74" y2="396.615" gradientUnits="userSpaceOnUse">
<stop offset="0.004" stop-color="#E38DDD"/>
<stop offset="1" stop-color="#9571F6"/>
</linearGradient>
<linearGradient id="paint58_linear" x1="532.741" y1="267.645" x2="346.489" y2="532.108" gradientUnits="userSpaceOnUse">
<stop offset="0.004" stop-color="#E38DDD"/>
<stop offset="1" stop-color="#9571F6"/>
</linearGradient>
<linearGradient id="paint59_linear" x1="161.455" y1="483.557" x2="215.206" y2="899.69" gradientUnits="userSpaceOnUse">
<stop stop-color="#FF9085"/>
<stop offset="1" stop-color="#FB6FBB"/>
</linearGradient>
<linearGradient id="paint60_linear" x1="215.551" y1="543.902" x2="249.963" y2="810.315" gradientUnits="userSpaceOnUse">
<stop stop-color="#E65B6F"/>
<stop offset="1" stop-color="#FC8E9E"/>
</linearGradient>
</defs>
</svg>
