<svg width="667" height="667" viewBox="0 0 667 667" fill="none" xmlns="http://www.w3.org/2000/svg">
<g clip-path="url(#clip0)">
<path d="M526.198 168.605C526.198 208.812 493.472 241.06 452.731 240.629C411.58 240.192 377.912 206.641 377.912 165.693C377.912 124.745 411.58 92.5152 452.731 93.6964C493.472 94.865 526.198 128.398 526.198 168.605Z" fill="url(#paint0_linear)"/>
<path d="M524.667 168.575C524.667 207.944 492.618 239.514 452.731 239.083C412.451 238.649 379.5 205.803 379.5 165.723C379.5 125.644 412.451 94.0937 452.731 95.2407C492.618 96.3788 524.667 129.206 524.667 168.575Z" fill="url(#paint1_linear)"/>
<path opacity="0.8" d="M517.259 168.429C517.259 203.746 488.497 232.037 452.731 231.618C416.648 231.195 387.162 201.759 387.162 165.874C387.162 129.989 416.648 101.711 452.731 102.705C488.497 103.692 517.259 133.114 517.259 168.429Z" fill="white"/>
<g style="mix-blend-mode:soft-light" opacity="0.502">
<path d="M460.022 217.864C456.095 209.803 457.098 205.896 454.042 175.894C449.493 131.25 445.621 123.661 442.43 118.879C439.172 113.994 433.325 107.09 422.355 100.933C397.117 111.682 379.5 136.446 379.5 165.723C379.5 205.803 412.451 238.649 452.731 239.083C460.512 239.167 467.991 238.034 474.99 235.866C468.87 231.095 463.592 225.192 460.022 217.864Z" fill="white"/>
</g>
<g style="mix-blend-mode:multiply">
<path style="mix-blend-mode:multiply" d="M489.055 133.069L485.047 129.779C484.059 128.967 482.538 129.071 481.65 130.009L417.824 197.594C416.904 198.57 416.983 200.021 418.002 200.837L422.137 204.138C423.155 204.952 424.724 204.819 425.641 203.845L489.24 136.241C490.126 135.299 490.042 133.88 489.055 133.069Z" fill="url(#paint2_linear)"/>
<g style="mix-blend-mode:multiply">
<path style="mix-blend-mode:multiply" d="M459.966 143.283V145.755L424.264 184.029H418.669C416.453 184.029 414.358 182.855 414.358 180.638V153.264C414.358 151.048 416.453 149.043 418.669 149.043H434.974V149.336C441.847 146.111 448.15 142.894 454.723 139.671C455.962 139.067 457.301 139.144 458.472 139.872C459.649 140.609 459.966 141.895 459.966 143.283Z" fill="url(#paint3_linear)"/>
<path style="mix-blend-mode:multiply" d="M445.184 189.637L459.966 173.702V190.622C459.966 192.008 459.515 193.295 458.335 194.03C457.167 194.76 455.741 194.838 454.5 194.225C451.376 192.698 448.3 191.163 445.184 189.637Z" fill="url(#paint4_linear)"/>
<g style="mix-blend-mode:multiply">
<path style="mix-blend-mode:multiply" d="M488.305 167.843C488.305 177.003 484.949 185.381 479.408 191.823C478.268 193.141 476.252 193.241 475.021 192.001L474.897 191.884C473.804 190.784 473.719 189.025 474.733 187.846C479.368 182.483 482.174 175.493 482.174 167.843C482.174 162.876 480.988 158.187 478.881 154.039L483.305 149.336C486.484 154.776 488.305 161.101 488.305 167.843Z" fill="url(#paint5_linear)"/>
<path style="mix-blend-mode:multiply" d="M478.09 167.843C478.09 174.175 475.873 179.98 472.177 184.545C471.067 185.91 469.014 185.994 467.767 184.754L467.75 184.73C466.657 183.646 466.603 181.918 467.565 180.716C470.402 177.197 472.107 172.719 472.107 167.843C472.107 165.851 471.819 163.929 471.285 162.108L475.873 157.232C477.299 160.481 478.09 164.069 478.09 167.843Z" fill="url(#paint6_linear)"/>
</g>
</g>
</g>
<path d="M583.172 278.7C580.216 265.874 570.477 259.093 568.059 257.462C553.61 247.73 536.39 251.36 530.878 252.522C511.321 256.644 508.668 267.21 494.29 266.088C482.119 265.137 479.749 257.23 469.656 258.512C459.105 259.851 449.643 270.022 446.953 280.106C441.772 299.544 460.065 325.016 480.434 329.987C501.6 335.152 508.705 314.209 545.604 313.26C559.061 312.915 567.45 315.46 575.053 309.118C583.381 302.171 585.529 288.928 583.172 278.7Z" fill="url(#paint7_linear)"/>
<path d="M363.97 240.467L363.497 236.314L358.263 234.698C357.095 234.336 355.831 234.775 355.135 235.78C351.453 241.103 341.092 258.605 346.608 280.331C346.898 281.472 347.872 282.31 349.042 282.429C350.461 282.571 351.946 282.614 353.499 282.556L363.97 240.467Z" fill="url(#paint8_linear)"/>
<path d="M402.978 273.395L406.823 285.787C407.89 288.009 408.465 289.634 408.551 290.663C410.002 291.348 411.945 291.398 414.382 290.817L414.157 274.68L403.337 273.161L402.978 273.395Z" fill="url(#paint9_linear)"/>
<path d="M422.923 265.899C394.166 257.525 374.358 247.664 363.497 236.314C351.822 247.186 348.489 262.6 353.499 282.558C385.634 277.193 408.026 275.665 420.674 277.974C423.523 275.586 424.273 271.561 422.923 265.899Z" fill="url(#paint10_linear)"/>
<path d="M420.534 271.643C420.604 269.365 421.4 267.451 422.923 265.899C423.895 264.81 426.894 273.17 420.674 277.975C420.627 275.865 420.58 273.754 420.534 271.643Z" fill="url(#paint11_linear)"/>
<path d="M408.031 281.665C403.447 280.505 401.252 280.78 401.448 282.495C401.743 285.066 402.87 292.167 406.563 291.511C410.257 290.853 411.295 286.29 408.031 281.665Z" fill="url(#paint12_linear)"/>
<path d="M339.789 228.979C340.249 229.984 340.166 231.199 339.465 232.152C320.146 258.427 332.15 278.098 332.27 278.288C333.198 279.753 332.758 281.693 331.292 282.619C329.825 283.545 327.885 283.108 326.96 281.641C326.359 280.692 312.575 258.122 334.406 228.432C335.433 227.035 337.4 226.735 338.796 227.763C339.241 228.089 339.573 228.511 339.789 228.979Z" fill="url(#paint13_linear)"/>
<path d="M330.258 220.737C330.832 221.987 330.73 223.499 329.858 224.684C305.833 257.358 320.762 281.819 320.91 282.056C322.064 283.878 321.516 286.29 319.693 287.443C317.87 288.593 315.459 288.049 314.306 286.226C313.558 285.046 296.418 256.978 323.567 220.058C324.843 218.321 327.288 217.947 329.025 219.225C329.579 219.632 329.992 220.157 330.258 220.737Z" fill="url(#paint14_linear)"/>
<path d="M452.478 293.171C443.086 293.126 437.142 297.755 434.65 307.059C422.765 351.417 411.518 306.942 413.159 290.801C407.089 289.521 403.578 289.199 402.624 289.839C394.235 334.214 402.417 353.715 427.166 348.343C451.913 342.969 463.941 331.202 463.245 313.042L452.478 293.171Z" fill="url(#paint15_linear)"/>
<path d="M445.862 557.914C446.565 558.583 446.912 559.505 446.904 560.677C446.901 561.201 446.658 561.7 446.23 562.031C445.292 562.756 443.221 564.187 440.001 565.496C435.445 567.349 433.911 567.169 433.728 566.411C433.543 565.652 435.894 563.606 437.912 561.819C439.255 560.627 441.905 559.325 445.862 557.914Z" fill="url(#paint16_linear)"/>
<path d="M447.368 550.859C446.372 555.438 445.907 558.565 445.975 560.24C444.754 561.303 443.287 561.29 441.574 560.203C442.491 556.023 442.739 553.062 442.32 551.321L447.368 550.859Z" fill="url(#paint17_linear)"/>
<path d="M496.678 560.708C497.465 561.272 497.938 562.137 498.091 563.3C498.159 563.82 497.988 564.347 497.611 564.733C496.784 565.582 494.928 567.284 491.921 569.028C487.665 571.493 486.122 571.527 485.835 570.801C485.547 570.075 487.593 567.725 489.342 565.675C490.509 564.309 492.954 562.653 496.678 560.708Z" fill="url(#paint18_linear)"/>
<path d="M498.862 554.378C497.866 558.957 497.401 562.083 497.469 563.757C496.248 564.82 494.781 564.807 493.068 563.719C493.985 559.539 494.233 556.578 493.814 554.838L498.862 554.378Z" fill="url(#paint19_linear)"/>
<path d="M430.697 406.983C430.08 427.633 430.181 449.794 431.337 473.277C432.78 502.609 435.664 529.803 439.323 554.575C440.702 554.971 442.597 555.354 444.86 555.347C446.457 555.34 447.845 555.142 448.961 554.899C449.615 551.985 450.633 547.546 451.963 542.151C454.373 532.377 454.946 531.078 455.701 527.719C458.837 513.79 454.908 509.811 456.94 495.43C457.386 492.275 457.562 492.555 461.915 477.394C467.34 458.488 470.082 449.04 471.377 441.798C474.852 422.366 476.589 412.648 471.195 406.606C464.146 398.708 447.591 399.788 430.697 406.983Z" fill="url(#paint20_linear)"/>
<path style="mix-blend-mode:multiply" opacity="0.302" d="M444.003 542.805C446.317 536.412 442.379 533.118 442.493 522.061C442.59 512.526 445.558 511.359 446.531 500.644C447.424 490.818 445.274 488.003 444.788 478.935C443.872 461.841 450.669 456.167 452.082 443.082C453.057 434.071 451.537 420.94 439.666 403.733C453.202 399.693 465.406 400.119 471.195 406.606C476.589 412.648 474.852 422.366 471.377 441.798C470.082 449.04 467.34 458.488 461.915 477.394C457.562 492.555 457.386 492.275 456.94 495.43C454.908 509.811 458.837 513.79 455.701 527.719C454.946 531.078 454.373 532.377 451.964 542.151C450.633 547.546 449.616 551.985 448.961 554.899C447.845 555.142 446.457 555.34 444.86 555.347C442.597 555.354 440.702 554.971 439.323 554.575C439.1 553.063 438.879 551.541 438.661 550.009C440.955 548.136 442.926 545.78 444.003 542.805Z" fill="url(#paint21_linear)"/>
<path d="M452.884 405.727C460.98 428.3 468.854 453.38 475.812 480.808C482.579 507.477 487.521 532.6 491.137 555.74C492.21 556.244 494.251 557.029 496.911 556.995C499.182 556.967 500.953 556.354 501.99 555.904C504.72 549.151 507.583 540.36 509.324 529.839C510.442 523.084 511.661 515.726 510.843 506.253C509.755 493.668 506.309 491.653 504.806 479.204C503.682 469.902 505.25 468.078 505.737 454.626C506.496 433.762 506.886 423.009 501.732 415.543C490.66 399.502 458.253 404.79 452.884 405.727Z" fill="url(#paint22_linear)"/>
<path d="M503.029 446.707C499.355 446.556 495.73 445.941 492.485 444.722C476.299 438.625 435.729 448.717 422.276 444.722C408.822 440.729 424.377 423.701 425.177 408.97C425.976 394.231 423.117 376.404 427.741 370.938C432.365 365.473 433.408 355.534 435.519 328.687C436.926 310.788 442.579 298.949 452.478 293.171C497.605 290.438 506.149 311.031 498.371 324.273C496.588 327.308 494.973 330.453 493.612 333.631C489.004 344.343 487.23 355.509 491.484 364.414C496.992 375.976 505.097 389.438 505.728 401.124C506.359 412.805 520.023 428.746 527.169 435.263C532.886 440.475 517.642 447.294 503.029 446.707Z" fill="url(#paint23_linear)"/>
<path d="M544.416 399.037C543.253 400.4 542.636 402.102 542.562 404.144C542.453 407.208 543.044 413.317 538.519 412.244C533.994 411.17 531.642 412.105 532.678 408.58C531.702 406.221 532.615 404.436 535.416 403.224C538.219 402.014 539.769 399.925 540.069 396.96L544.416 399.037Z" fill="url(#paint24_linear)"/>
<path d="M472.761 281.089C472.11 282.842 471.231 286.715 473.094 290.229C474.724 293.306 477.79 294.677 479.016 295.24C481.979 296.599 483.771 296.216 483.847 296.779C484.014 298.023 475.501 301.966 466.745 300.128C461.598 299.05 456.742 296.051 457.08 294.397C457.459 292.54 464.072 293.888 466.384 290.305C467.86 288.015 466.929 284.721 465.756 282.08C467.472 280.661 471.042 282.51 472.761 281.089Z" fill="url(#paint25_linear)"/>
<path d="M472.603 284.647C470.623 287.153 468.11 288 465.063 287.189C460.978 286.102 461.947 275.773 464.917 274.105C465.908 273.549 467.718 273.58 469.084 274.293C469.892 274.716 470.12 275.158 471.452 275.82C472.682 276.429 473.07 276.341 473.403 276.774C473.82 277.317 474.007 278.488 472.736 281.327C473.662 280.595 474.663 280.437 475.283 280.915C475.382 280.99 475.634 281.258 475.745 281.612C476.146 282.892 474.945 284.203 472.603 284.647Z" fill="url(#paint26_linear)"/>
<g style="mix-blend-mode:multiply" opacity="0.302">
<path style="mix-blend-mode:multiply" opacity="0.302" d="M503.03 446.707C502.904 441.847 501.6 437.987 499.817 434.884C491.401 420.17 470.086 418.714 469.11 407.003C468.403 398.435 479.645 397.291 484.102 384.956C490.795 366.415 470.615 354.459 477.738 341.729C480.562 336.675 485.312 335.726 493.613 333.631C489.005 344.343 487.23 355.509 491.484 364.414C496.992 375.976 505.097 389.438 505.728 401.124C506.359 412.805 520.023 428.746 527.169 435.263C532.886 440.475 517.642 447.294 503.03 446.707Z" fill="url(#paint27_linear)"/>
</g>
<path d="M487.863 298.102C541.75 321.336 560.632 356.485 544.508 403.549L536.629 399.738C547.069 366.003 529.478 343.345 483.85 331.765C477.461 322.238 478.798 311.018 487.863 298.102Z" fill="url(#paint28_linear)"/>
<path d="M242.497 260.991C241.956 260.515 241.393 260.067 240.825 259.621C240.118 259.069 238.865 257.866 237.887 257.919C237.655 257.931 237.443 258.053 237.195 258.052C236.415 258.048 235.694 257.685 234.969 257.442C233.696 257.016 232.265 256.502 231.174 255.702C230.088 254.905 229.421 253.501 228.928 252.295C228.776 251.919 227.675 250.037 227.986 249.663C228.152 249.465 228.517 249.776 228.659 249.906C229.88 251.009 230.739 251.899 231.239 252.574C227.251 247.142 226.242 243.842 228.213 242.671C229.265 242.045 229.912 241.276 231.222 241.334C232.278 241.378 233.554 242.049 234.052 242.856C234.82 244.095 235.525 245.229 236.487 246.342C237.445 247.452 238.448 248.525 239.329 249.697C239.854 250.395 240.44 251.146 240.652 252.007C240.785 252.547 240.76 253.084 241.033 253.588C241.299 254.075 241.747 254.389 242.218 254.659C242.858 255.026 243.55 255.321 244.269 255.493L242.497 260.991Z" fill="url(#paint29_linear)"/>
<path d="M285.007 319.196C283.407 322.914 280.951 326.256 277.51 328.932C275.022 330.861 272.355 332.33 269.574 333.41C260.696 336.853 250.619 336.297 241.141 333.973C238.48 333.317 236.093 332.123 233.944 330.492C221.111 320.784 214.709 299.598 214.738 266.935C228.583 268.093 241.882 276.271 254.636 291.47C273.772 314.267 245.508 267.053 238.867 260.238L239.98 258.933L243.196 255.146L244.291 253.859C258.314 261.913 269.759 271.377 278.628 282.249C286.537 291.945 290.06 307.433 285.007 319.196Z" fill="url(#paint30_linear)"/>
<path style="mix-blend-mode:multiply" opacity="0.302" d="M285.007 319.196C283.407 322.914 280.951 326.256 277.51 328.932C275.022 330.861 272.355 332.33 269.574 333.41C260.696 336.853 250.619 336.297 241.141 333.973C238.48 333.317 236.093 332.123 233.944 330.492C232.745 322.508 232.425 314.186 234.949 309.4C249.99 328.031 266.676 331.296 285.007 319.196Z" fill="url(#paint31_linear)"/>
<path d="M159.447 556.931C158.404 557.768 158.201 559.874 158.07 561.249C158.011 561.864 157.98 562.171 158.048 562.389C158.539 563.976 161.612 564.162 166.428 564.681C174.039 565.503 176.302 566.116 176.904 564.987C177.469 563.928 176.128 562.18 175.977 561.988C175.164 560.952 174.161 560.571 172.225 559.922C168.638 558.718 166.214 558.056 165.481 557.856C160.898 556.603 160.132 556.38 159.447 556.931Z" fill="url(#paint32_linear)"/>
<path d="M165.308 549.678L165.026 558.385C164.762 558.775 162.049 559.714 160.145 558.398L159.223 549.694L165.308 549.678Z" fill="url(#paint33_linear)"/>
<path d="M213.05 548.828C211.554 549.921 210.763 552.339 211.57 553.779C212.363 555.194 214.114 554.617 218.526 555.669C223.251 556.796 224.259 558.175 227.675 557.952C229.056 557.862 231.543 557.465 231.692 556.523C231.796 555.861 230.694 555.28 227.044 553.155C221.867 550.138 221.911 550.041 220.77 549.601C217.904 548.495 215.026 547.384 213.05 548.828Z" fill="url(#paint34_linear)"/>
<path d="M217.701 541.703L218.445 550.129C218.176 550.518 215.457 551.435 213.562 550.106L211.615 541.672L217.701 541.703Z" fill="url(#paint35_linear)"/>
<path d="M232.477 363.569C227.301 390.301 222.915 420.656 220.538 454.128C218.19 487.21 218.215 517.545 219.517 544.486C216.304 544.675 213.091 544.863 209.878 545.052C203.649 536.257 196.256 522.91 194.872 505.924C194.014 495.381 196.042 490.475 196.724 477.869C197.808 457.796 193.951 446.363 191.033 429.392C188.412 414.14 186.147 392.085 188.362 363.691C203.068 363.65 217.773 363.61 232.477 363.569Z" fill="url(#paint36_linear)"/>
<path style="mix-blend-mode:multiply" opacity="0.302" d="M209.082 488.622C207.717 474.532 201.662 469.94 203.372 457.096C204.582 448.01 207.951 447.764 209.053 439.06C210.723 425.857 204.066 417.788 201.452 408.927C198.691 399.567 199.257 385.292 213.823 363.621C205.335 363.644 196.85 363.668 188.362 363.691C186.147 392.085 188.412 414.141 191.033 429.392C193.951 446.363 197.808 457.796 196.724 477.869C196.042 490.475 194.014 495.381 194.872 505.924C196.256 522.91 203.649 536.257 209.879 545.052C210.697 545.006 211.513 544.957 212.331 544.908C205.785 534.152 204.258 525.2 204.593 518.178C205.134 506.749 210.459 502.828 209.082 488.622Z" fill="url(#paint37_linear)"/>
<path d="M196.341 369.994C190.305 404.146 184.527 438.976 179.051 474.473C174.943 501.109 171.108 527.435 167.534 553.439C164.336 553.448 161.137 553.457 157.941 553.466C155.578 547.429 152.579 538.274 151.15 526.831C149.412 512.932 151.157 505.014 151.369 490.853C151.605 474.969 149.613 471.262 147.74 450.964C143.935 409.768 142.033 389.168 153.187 377.844C156.806 374.167 167.85 365.182 196.341 369.994Z" fill="url(#paint38_linear)"/>
<path d="M241.161 402.503C240.517 403.578 238.036 407.639 233.344 409.462C226.647 412.075 220.261 408.233 211.29 404.878C200.125 400.698 191.066 399.547 183.051 398.53C170.844 396.985 165.377 398.073 148.863 395.506C141.278 394.325 137.055 393.32 135.406 390.021C132.988 385.192 138.411 380.111 141.098 369.94C143.265 361.744 141.848 357.082 141.061 346.568C140.516 339.383 138.955 318.54 144.721 298.379C145.135 296.937 145.546 295.494 145.971 294.062C146.077 293.701 146.183 293.343 146.296 292.987C146.508 292.27 146.733 291.558 146.958 290.852C147.071 290.496 147.182 290.14 147.301 289.789C147.483 289.251 147.664 288.714 147.851 288.184C147.939 287.903 148.038 287.621 148.146 287.34C148.232 287.108 148.313 286.871 148.401 286.646C148.533 286.298 148.657 285.952 148.795 285.609C149.189 284.579 149.608 283.567 150.062 282.567C150.656 281.229 151.307 279.93 152.026 278.668C153.619 275.82 155.542 273.17 157.935 270.802C158.46 270.272 159.023 269.759 159.604 269.267C159.891 269.022 160.184 268.772 160.49 268.535C160.79 268.29 161.103 268.053 161.416 267.823C161.878 267.472 162.358 267.134 162.852 266.811C174.822 258.925 188.405 261.149 199.007 262.886C206.748 264.155 224.279 264.181 232.476 280.038C234.326 283.604 234.389 291.682 235.674 300.03C237.486 311.793 236.28 329.144 236.3 339.077C236.355 363.125 239.218 373.702 241.184 379.442C241.992 381.786 242.641 383.324 242.898 384.641C243.534 387.984 245.203 395.768 241.161 402.503Z" fill="url(#paint39_linear)"/>
<path opacity="0.302" d="M241.161 402.503C240.517 403.578 238.036 407.639 233.344 409.462C226.647 412.075 220.261 408.233 211.29 404.878C200.125 400.698 191.066 399.547 183.051 398.53C170.844 396.985 165.377 398.073 148.863 395.506C141.278 394.325 137.055 393.32 135.406 390.021C132.988 385.192 138.411 380.111 141.098 369.94C143.265 361.744 141.848 357.082 141.061 346.568C140.516 339.383 138.955 318.54 144.721 298.379C145.135 296.937 145.546 295.494 145.971 294.063C146.077 293.701 146.183 293.343 146.296 292.987C146.508 292.27 146.733 291.558 146.958 290.852C147.071 290.496 147.182 290.14 147.301 289.789C147.483 289.251 147.664 288.714 147.851 288.184C147.939 287.903 148.038 287.621 148.146 287.34C148.232 287.108 148.313 286.871 148.401 286.646C148.533 286.298 148.657 285.952 148.795 285.609C149.194 284.579 149.613 283.567 150.062 282.567C150.663 281.237 151.312 279.93 152.026 278.668C153.631 275.825 155.549 273.17 157.935 270.802C158.466 270.277 159.023 269.765 159.604 269.267C159.891 269.022 160.184 268.772 160.49 268.535C160.79 268.29 161.103 268.053 161.416 267.823C162.133 296.95 171.124 309.644 179.234 315.854C189.993 324.095 196.627 318.941 207.067 328.586C218.675 339.302 216.957 350.292 230.739 368.671C233.281 372.064 236.638 375.782 241.184 379.442C241.992 381.786 242.641 383.324 242.898 384.641C243.534 387.984 245.203 395.768 241.161 402.503Z" fill="url(#paint40_linear)"/>
<path d="M196.891 248.46C195.192 250.283 193.714 256.919 192.306 258.589C191.377 259.693 189.903 260.585 180.473 261.664C175.561 262.224 174.713 262.126 174.677 262.406C174.536 263.512 187.623 266.129 200.864 266.385C206.277 266.489 209.044 266.097 209.161 265.209C209.305 264.132 203.656 263.843 201.83 260.036C200.174 256.588 203.07 253.212 201.447 251.86C200.069 250.711 198.847 246.358 196.891 248.46Z" fill="url(#paint41_linear)"/>
<path d="M213.012 249.445C216.104 248.358 219.046 244.345 218.053 240.875C217.465 238.82 215.511 236.995 213.433 236.645C211.13 236.256 210.249 237.946 207.93 237.384C206.055 236.929 206.101 235.697 203.847 234.831C203.253 234.602 200.767 233.648 198.669 234.705C195.733 236.186 195.945 240.679 195.656 242.988C195.514 244.131 196.103 244.884 196.395 245.976C196.797 247.486 197.416 249.875 198.383 253.83C199.057 253.208 199.947 252.468 201.065 251.754C201.495 251.479 203.198 250.418 205.118 249.827C209.05 248.617 210.328 250.387 213.012 249.445Z" fill="url(#paint42_linear)"/>
<path d="M196.06 249.649C196.118 251.712 196.925 253.676 198.484 255.538C199.358 256.585 200.418 257.964 202.117 258.348C205.438 259.1 208.593 255.551 209.54 254.487C213.169 250.407 214.382 244.415 212.777 243.255C212.032 242.718 211.193 243.59 209.204 242.914C207.615 242.374 206.534 241.267 206.482 241.211C205.553 240.242 205.621 239.672 204.866 239.255C203.726 238.626 202.284 239.212 201.973 239.34C199.873 240.194 198.604 243.112 198.599 246.661C198.193 245.229 197.243 244.228 196.192 244.108C196.024 244.088 195.537 244.102 195.133 244.313C193.669 245.075 193.901 247.243 196.06 249.649Z" fill="url(#paint43_linear)"/>
<path d="M210.47 253.41C208.999 255.488 207.953 256.017 207.329 254.995C206.394 253.464 205.458 251.932 203.246 252.442C201.77 252.782 200.273 249.846 198.753 243.637L197.207 243.931C198.455 245.974 198.795 247.45 198.227 248.358C197.376 249.719 197.152 255.709 196.948 257.971C196.7 260.727 199.848 266.822 206.646 262.144C208.235 261.049 209.51 258.138 210.47 253.41Z" fill="url(#paint44_linear)"/>
<path d="M142.476 394.515C139.326 391.732 102.373 358.093 111.716 317.79C120.765 278.756 168.916 252.157 181.987 259.839C185.906 262.142 186.359 267.348 186.688 271.127C188.871 296.225 159.528 307.428 148.209 332.993C142.938 344.898 139.896 363.715 152.25 392.881C148.991 393.426 145.733 393.97 142.476 394.515Z" fill="url(#paint45_linear)"/>
<path d="M201.785 255.919C203.807 255.856 205.292 256.63 206.24 258.237C205.76 255.432 204.275 254.661 201.785 255.919Z" fill="url(#paint46_linear)"/>
<path d="M146.857 396.117C148.306 399.224 148.173 404.004 146.458 410.462C143.883 420.147 139.781 415.554 139.132 413.454C138.7 412.055 138.921 406.669 139.795 397.298L146.857 396.117Z" fill="url(#paint47_linear)"/>
<path d="M234.694 202.007C229.457 195.449 226.44 187.749 226.44 179.513C226.44 155.566 251.941 136.151 283.396 136.151C314.851 136.151 340.35 155.566 340.35 179.513C340.35 203.462 314.851 222.877 283.396 222.877C271.606 222.877 260.655 220.149 251.567 215.479C245.56 216.503 236.238 218.226 231.318 219.141C229.869 219.411 228.682 217.994 229.2 216.615L234.694 202.007Z" fill="url(#paint48_linear)"/>
<g style="mix-blend-mode:multiply" opacity="0.302">
<path style="mix-blend-mode:multiply" opacity="0.302" d="M252.229 188.691C265 183.322 279.043 194.652 287.824 186.749C296.675 178.781 287.112 163.027 295.589 151.801C299.631 146.449 306.421 143.916 314.189 143.031C329.928 150.746 340.35 164.202 340.35 179.513C340.35 203.462 314.851 222.877 283.396 222.877C271.606 222.877 260.655 220.149 251.567 215.479C246.828 216.288 240.027 217.53 234.949 218.467C238.694 199.05 245.582 191.483 252.229 188.691Z" fill="url(#paint49_linear)"/>
</g>
<path d="M275.34 186.569V183.905C275.34 181.6 275.832 179.596 276.816 177.891C277.801 176.187 279.601 174.375 282.218 172.455C284.739 170.653 286.4 169.19 287.206 168.061C288.009 166.932 288.412 165.671 288.412 164.28C288.412 162.719 287.835 161.531 286.682 160.715C285.53 159.898 283.923 159.49 281.857 159.49C278.258 159.49 274.151 160.666 269.542 163.019L265.617 155.132C270.971 152.132 276.649 150.632 282.65 150.632C287.596 150.632 291.526 151.821 294.444 154.197C297.36 156.574 298.818 159.742 298.818 163.703C298.818 166.344 298.217 168.625 297.018 170.545C295.817 172.465 293.538 174.626 290.176 177.026C287.871 178.731 286.413 180.027 285.801 180.915C285.188 181.803 284.883 182.968 284.883 184.408V186.569H275.34ZM274.187 198.885C274.187 196.867 274.729 195.343 275.809 194.311C276.888 193.279 278.461 192.763 280.525 192.763C282.519 192.763 284.059 193.292 285.152 194.347C286.246 195.404 286.79 196.916 286.79 198.885C286.79 200.781 286.238 202.275 285.134 203.368C284.031 204.46 282.493 205.006 280.525 205.006C278.509 205.006 276.949 204.472 275.845 203.404C274.739 202.335 274.187 200.828 274.187 198.885Z" fill="white"/>
<path d="M390.632 500.716C406.367 482.611 409.268 458.393 387.407 448.531C365.543 438.672 368.265 468.786 347.085 478.413C341.882 480.781 336.511 485.058 334.638 490.61C332.252 497.675 333.96 505.178 337.829 511.31C339.641 514.18 342.824 517.25 343.48 520.675C344.564 526.342 337.076 528.992 333.439 531.464C332.17 532.327 330.931 533.262 329.777 534.276C327.713 536.092 325.854 538.235 324.561 540.673C323.326 543.001 322.648 545.658 322.199 548.24C321.438 552.596 322.409 556.832 324.707 560.586C329.07 567.709 338.216 571.815 346.162 573.221C346.211 573.228 346.259 573.237 346.31 573.246C352.494 574.337 358.594 574.808 364.876 574.388C372.139 573.902 379.946 570.803 383.554 564.152C387.191 557.45 385.598 549.29 382.351 542.738C380.898 539.804 377.623 537.266 375.722 534.544C372.19 529.488 371.438 524.742 374.957 519.472C379.428 512.781 385.364 506.776 390.632 500.716Z" fill="url(#paint50_linear)"/>
<g style="mix-blend-mode:soft-light" opacity="0.8">
<g style="mix-blend-mode:soft-light" opacity="0.8">
<path d="M345.747 566.274C345.693 566.256 345.643 566.229 345.598 566.191C345.387 566.02 345.355 565.711 345.528 565.501C345.713 565.273 364.105 542.399 363.163 518.638C362.203 494.49 379.395 474.945 379.57 474.749C379.749 474.548 380.059 474.53 380.262 474.71C380.465 474.891 380.481 475.201 380.301 475.404C380.131 475.596 363.2 494.855 364.142 518.599C365.101 542.735 346.477 565.889 346.288 566.121C346.153 566.285 345.936 566.34 345.747 566.274Z" fill="white"/>
</g>
</g>
<path d="M358.228 534.023C357.012 530.481 355.473 527.056 353.771 523.884C348.018 513.169 344.735 502.463 343.897 490.286C343.237 480.695 345.718 470.496 346.182 460.865C346.518 453.885 345.788 446.881 344.947 439.959C343.153 425.224 339.365 407.722 328.68 396.593C323.734 391.443 315.162 389.017 308.08 390.188C298.906 391.705 289.913 396.766 287.132 406.111C283.306 418.96 291.22 436.259 278.971 446.005C260.216 460.928 262.118 482.899 279.559 497.568C285.244 502.348 292.092 507.154 296.303 513.425C300.524 519.713 295.274 527.489 293.169 533.688C291.195 539.504 288.933 546.269 291.519 552.256C295.88 562.357 310.441 569.76 320.282 572.991C329.804 576.115 341.1 577.66 349.749 571.495C362.783 562.204 362.783 547.298 358.228 534.023Z" fill="url(#paint51_linear)"/>
<g style="mix-blend-mode:soft-light" opacity="0.8">
<g style="mix-blend-mode:soft-light" opacity="0.8">
<path d="M333.559 567.61C333.367 567.565 333.212 567.403 333.185 567.194C333.069 566.287 321.314 475.92 311.309 438.255C311.241 437.992 311.396 437.725 311.658 437.654C311.921 437.586 312.188 437.741 312.259 438.003C322.278 475.731 334.043 566.161 334.16 567.069C334.194 567.338 334.005 567.585 333.736 567.619C333.676 567.626 333.615 567.622 333.559 567.61Z" fill="white"/>
</g>
</g>
<path d="M342.727 558.824C342.574 556.037 342.009 553.34 341.123 550.698C339.589 546.117 337.542 542.51 332.849 540.691C329.426 539.364 325.527 538.496 321.902 537.965C302.139 535.069 300.999 527.548 292.935 510.467C284.872 493.386 209.442 505.072 247.436 539.682C251.227 543.247 261.126 545.529 277.129 546.526C281.519 546.8 287.019 547.447 290.163 550.886C295.711 556.95 287.371 566.182 293.13 571.432C296.488 574.492 302.446 576.288 306.766 577.237C310.712 578.107 314.745 578.429 318.783 578.58C320.951 578.663 323.123 578.695 325.282 578.737C331.319 578.852 338.917 578.334 341.941 572.119C342.804 570.348 342.498 566.857 342.63 564.879C342.763 562.865 342.836 560.841 342.727 558.824Z" fill="url(#paint52_linear)"/>
<g style="mix-blend-mode:soft-light" opacity="0.8">
<g style="mix-blend-mode:soft-light" opacity="0.8">
<path d="M333.356 572.838C333.207 572.811 333.072 572.716 333 572.568C332.907 572.376 323.515 553.227 306.588 546.057C299.968 543.253 294.631 538.684 289.471 534.267C280.768 526.817 272.55 519.78 258.489 520.104C258.217 520.109 257.992 519.895 257.987 519.624C257.982 519.352 258.196 519.127 258.467 519.122C272.902 518.789 281.65 526.279 290.109 533.521C295.213 537.89 300.492 542.408 306.971 545.153C324.245 552.468 333.791 571.946 333.885 572.142C334.003 572.387 333.901 572.68 333.656 572.797C333.559 572.843 333.455 572.856 333.356 572.838Z" fill="white"/>
</g>
</g>
<g opacity="0.3">
<mask id="mask0" mask-type="alpha" maskUnits="userSpaceOnUse" x="561" y="443" width="11" height="11">
<path d="M566.228 453.425C569.116 453.425 571.457 451.091 571.457 448.212C571.457 445.334 569.116 443 566.228 443C563.341 443 561 445.334 561 448.212C561 451.091 563.341 453.425 566.228 453.425Z" fill="#FC8E9E"/>
</mask>
<g mask="url(#mask0)">
<path d="M566.228 453.425C569.116 453.425 571.457 451.091 571.457 448.212C571.457 445.334 569.116 443 566.228 443C563.341 443 561 445.334 561 448.212C561 451.091 563.341 453.425 566.228 453.425Z" fill="#FC8E9E"/>
</g>
<mask id="mask1" mask-type="alpha" maskUnits="userSpaceOnUse" x="591" y="443" width="11" height="11">
<path d="M596.509 453.425C599.397 453.425 601.738 451.091 601.738 448.212C601.738 445.334 599.397 443 596.509 443C593.622 443 591.281 445.334 591.281 448.212C591.281 451.091 593.622 453.425 596.509 453.425Z" fill="#FC8E9E"/>
</mask>
<g mask="url(#mask1)">
<path d="M596.509 453.425C599.397 453.425 601.738 451.091 601.738 448.212C601.738 445.334 599.397 443 596.509 443C593.622 443 591.281 445.334 591.281 448.212C591.281 451.091 593.622 453.425 596.509 453.425Z" fill="#FC8E9E"/>
</g>
<mask id="mask2" mask-type="alpha" maskUnits="userSpaceOnUse" x="621" y="443" width="12" height="11">
<path d="M626.79 453.425C629.678 453.425 632.019 451.091 632.019 448.212C632.019 445.334 629.678 443 626.79 443C623.903 443 621.562 445.334 621.562 448.212C621.562 451.091 623.903 453.425 626.79 453.425Z" fill="#FC8E9E"/>
</mask>
<g mask="url(#mask2)">
<path d="M626.79 453.425C629.678 453.425 632.019 451.091 632.019 448.212C632.019 445.334 629.678 443 626.79 443C623.903 443 621.562 445.334 621.562 448.212C621.562 451.091 623.903 453.425 626.79 453.425Z" fill="#FC8E9E"/>
</g>
<mask id="mask3" mask-type="alpha" maskUnits="userSpaceOnUse" x="651" y="443" width="12" height="11">
<path d="M657.072 453.425C659.959 453.425 662.3 451.091 662.3 448.212C662.3 445.334 659.959 443 657.072 443C654.184 443 651.843 445.334 651.843 448.212C651.843 451.091 654.184 453.425 657.072 453.425Z" fill="#FC8E9E"/>
</mask>
<g mask="url(#mask3)">
<path d="M657.072 453.425C659.959 453.425 662.3 451.091 662.3 448.212C662.3 445.334 659.959 443 657.072 443C654.184 443 651.843 445.334 651.843 448.212C651.843 451.091 654.184 453.425 657.072 453.425Z" fill="#FC8E9E"/>
</g>
<mask id="mask4" mask-type="alpha" maskUnits="userSpaceOnUse" x="561" y="469" width="11" height="11">
<path d="M566.228 479.596C569.116 479.596 571.457 477.262 571.457 474.383C571.457 471.505 569.116 469.171 566.228 469.171C563.341 469.171 561 471.505 561 474.383C561 477.262 563.341 479.596 566.228 479.596Z" fill="#FC8E9E"/>
</mask>
<g mask="url(#mask4)">
<path d="M566.228 479.596C569.116 479.596 571.457 477.262 571.457 474.383C571.457 471.505 569.116 469.171 566.228 469.171C563.341 469.171 561 471.505 561 474.383C561 477.262 563.341 479.596 566.228 479.596Z" fill="#FC8E9E"/>
</g>
<mask id="mask5" mask-type="alpha" maskUnits="userSpaceOnUse" x="591" y="469" width="11" height="11">
<path d="M596.509 479.596C599.397 479.596 601.738 477.262 601.738 474.383C601.738 471.505 599.397 469.171 596.509 469.171C593.622 469.171 591.281 471.505 591.281 474.383C591.281 477.262 593.622 479.596 596.509 479.596Z" fill="#FC8E9E"/>
</mask>
<g mask="url(#mask5)">
<path d="M596.509 479.596C599.397 479.596 601.738 477.262 601.738 474.383C601.738 471.505 599.397 469.171 596.509 469.171C593.622 469.171 591.281 471.505 591.281 474.383C591.281 477.262 593.622 479.596 596.509 479.596Z" fill="#FC8E9E"/>
</g>
<mask id="mask6" mask-type="alpha" maskUnits="userSpaceOnUse" x="621" y="469" width="12" height="11">
<path d="M626.79 479.596C629.678 479.596 632.019 477.262 632.019 474.383C632.019 471.505 629.678 469.171 626.79 469.171C623.903 469.171 621.562 471.505 621.562 474.383C621.562 477.262 623.903 479.596 626.79 479.596Z" fill="#FC8E9E"/>
</mask>
<g mask="url(#mask6)">
<path d="M626.79 479.596C629.678 479.596 632.019 477.262 632.019 474.383C632.019 471.505 629.678 469.171 626.79 469.171C623.903 469.171 621.562 471.505 621.562 474.383C621.562 477.262 623.903 479.596 626.79 479.596Z" fill="#FC8E9E"/>
</g>
<mask id="mask7" mask-type="alpha" maskUnits="userSpaceOnUse" x="651" y="469" width="12" height="11">
<path d="M657.072 479.596C659.959 479.596 662.3 477.262 662.3 474.383C662.3 471.505 659.959 469.171 657.072 469.171C654.184 469.171 651.843 471.505 651.843 474.383C651.843 477.262 654.184 479.596 657.072 479.596Z" fill="#FC8E9E"/>
</mask>
<g mask="url(#mask7)">
<path d="M657.072 479.596C659.959 479.596 662.3 477.262 662.3 474.383C662.3 471.505 659.959 469.171 657.072 469.171C654.184 469.171 651.843 471.505 651.843 474.383C651.843 477.262 654.184 479.596 657.072 479.596Z" fill="#FC8E9E"/>
</g>
<mask id="mask8" mask-type="alpha" maskUnits="userSpaceOnUse" x="561" y="495" width="11" height="11">
<path d="M566.228 505.712C569.116 505.712 571.457 503.379 571.457 500.5C571.457 497.621 569.116 495.288 566.228 495.288C563.341 495.288 561 497.621 561 500.5C561 503.379 563.341 505.712 566.228 505.712Z" fill="#FC8E9E"/>
</mask>
<g mask="url(#mask8)">
<path d="M566.228 505.712C569.116 505.712 571.457 503.379 571.457 500.5C571.457 497.621 569.116 495.288 566.228 495.288C563.341 495.288 561 497.621 561 500.5C561 503.379 563.341 505.712 566.228 505.712Z" fill="#FC8E9E"/>
</g>
<mask id="mask9" mask-type="alpha" maskUnits="userSpaceOnUse" x="591" y="495" width="11" height="11">
<path d="M596.509 505.712C599.397 505.712 601.738 503.379 601.738 500.5C601.738 497.621 599.397 495.288 596.509 495.288C593.622 495.288 591.281 497.621 591.281 500.5C591.281 503.379 593.622 505.712 596.509 505.712Z" fill="#FC8E9E"/>
</mask>
<g mask="url(#mask9)">
<path d="M596.509 505.712C599.397 505.712 601.738 503.379 601.738 500.5C601.738 497.621 599.397 495.288 596.509 495.288C593.622 495.288 591.281 497.621 591.281 500.5C591.281 503.379 593.622 505.712 596.509 505.712Z" fill="#FC8E9E"/>
</g>
<mask id="mask10" mask-type="alpha" maskUnits="userSpaceOnUse" x="621" y="495" width="12" height="11">
<path d="M626.79 505.712C629.678 505.712 632.019 503.379 632.019 500.5C632.019 497.621 629.678 495.288 626.79 495.288C623.903 495.288 621.562 497.621 621.562 500.5C621.562 503.379 623.903 505.712 626.79 505.712Z" fill="#FC8E9E"/>
</mask>
<g mask="url(#mask10)">
<path d="M626.79 505.712C629.678 505.712 632.019 503.379 632.019 500.5C632.019 497.621 629.678 495.288 626.79 495.288C623.903 495.288 621.562 497.621 621.562 500.5C621.562 503.379 623.903 505.712 626.79 505.712Z" fill="#FC8E9E"/>
</g>
<mask id="mask11" mask-type="alpha" maskUnits="userSpaceOnUse" x="651" y="495" width="12" height="11">
<path d="M657.072 505.712C659.959 505.712 662.3 503.379 662.3 500.5C662.3 497.621 659.959 495.288 657.072 495.288C654.184 495.288 651.843 497.621 651.843 500.5C651.843 503.379 654.184 505.712 657.072 505.712Z" fill="#FC8E9E"/>
</mask>
<g mask="url(#mask11)">
<path d="M657.072 505.712C659.959 505.712 662.3 503.379 662.3 500.5C662.3 497.621 659.959 495.288 657.072 495.288C654.184 495.288 651.843 497.621 651.843 500.5C651.843 503.379 654.184 505.712 657.072 505.712Z" fill="#FC8E9E"/>
</g>
<mask id="mask12" mask-type="alpha" maskUnits="userSpaceOnUse" x="561" y="521" width="11" height="11">
<path d="M566.228 531.883C569.116 531.883 571.457 529.55 571.457 526.671C571.457 523.792 569.116 521.458 566.228 521.458C563.341 521.458 561 523.792 561 526.671C561 529.55 563.341 531.883 566.228 531.883Z" fill="#FC8E9E"/>
</mask>
<g mask="url(#mask12)">
<path d="M566.228 531.883C569.116 531.883 571.457 529.55 571.457 526.671C571.457 523.792 569.116 521.458 566.228 521.458C563.341 521.458 561 523.792 561 526.671C561 529.55 563.341 531.883 566.228 531.883Z" fill="#FC8E9E"/>
</g>
<mask id="mask13" mask-type="alpha" maskUnits="userSpaceOnUse" x="591" y="521" width="11" height="11">
<path d="M596.509 531.883C599.397 531.883 601.738 529.55 601.738 526.671C601.738 523.792 599.397 521.458 596.509 521.458C593.622 521.458 591.281 523.792 591.281 526.671C591.281 529.55 593.622 531.883 596.509 531.883Z" fill="#FC8E9E"/>
</mask>
<g mask="url(#mask13)">
<path d="M596.509 531.883C599.397 531.883 601.738 529.55 601.738 526.671C601.738 523.792 599.397 521.458 596.509 521.458C593.622 521.458 591.281 523.792 591.281 526.671C591.281 529.55 593.622 531.883 596.509 531.883Z" fill="#FC8E9E"/>
</g>
<mask id="mask14" mask-type="alpha" maskUnits="userSpaceOnUse" x="621" y="521" width="12" height="11">
<path d="M626.79 531.883C629.678 531.883 632.019 529.55 632.019 526.671C632.019 523.792 629.678 521.458 626.79 521.458C623.903 521.458 621.562 523.792 621.562 526.671C621.562 529.55 623.903 531.883 626.79 531.883Z" fill="#FC8E9E"/>
</mask>
<g mask="url(#mask14)">
<path d="M626.79 531.883C629.678 531.883 632.019 529.55 632.019 526.671C632.019 523.792 629.678 521.458 626.79 521.458C623.903 521.458 621.562 523.792 621.562 526.671C621.562 529.55 623.903 531.883 626.79 531.883Z" fill="#FC8E9E"/>
</g>
<mask id="mask15" mask-type="alpha" maskUnits="userSpaceOnUse" x="651" y="521" width="12" height="11">
<path d="M657.072 531.883C659.959 531.883 662.3 529.55 662.3 526.671C662.3 523.792 659.959 521.458 657.072 521.458C654.184 521.458 651.843 523.792 651.843 526.671C651.843 529.55 654.184 531.883 657.072 531.883Z" fill="#FC8E9E"/>
</mask>
<g mask="url(#mask15)">
<path d="M657.072 531.883C659.959 531.883 662.3 529.55 662.3 526.671C662.3 523.792 659.959 521.458 657.072 521.458C654.184 521.458 651.843 523.792 651.843 526.671C651.843 529.55 654.184 531.883 657.072 531.883Z" fill="#FC8E9E"/>
</g>
<mask id="mask16" mask-type="alpha" maskUnits="userSpaceOnUse" x="561" y="547" width="11" height="11">
<path d="M566.228 558C569.116 558 571.457 555.666 571.457 552.788C571.457 549.909 569.116 547.575 566.228 547.575C563.341 547.575 561 549.909 561 552.788C561 555.666 563.341 558 566.228 558Z" fill="#FC8E9E"/>
</mask>
<g mask="url(#mask16)">
<path d="M566.228 558C569.116 558 571.457 555.666 571.457 552.788C571.457 549.909 569.116 547.575 566.228 547.575C563.341 547.575 561 549.909 561 552.788C561 555.666 563.341 558 566.228 558Z" fill="#FC8E9E"/>
</g>
<mask id="mask17" mask-type="alpha" maskUnits="userSpaceOnUse" x="591" y="547" width="11" height="11">
<path d="M596.509 558C599.397 558 601.738 555.666 601.738 552.788C601.738 549.909 599.397 547.575 596.509 547.575C593.622 547.575 591.281 549.909 591.281 552.788C591.281 555.666 593.622 558 596.509 558Z" fill="#FC8E9E"/>
</mask>
<g mask="url(#mask17)">
<path d="M596.509 558C599.397 558 601.738 555.666 601.738 552.788C601.738 549.909 599.397 547.575 596.509 547.575C593.622 547.575 591.281 549.909 591.281 552.788C591.281 555.666 593.622 558 596.509 558Z" fill="#FC8E9E"/>
</g>
<mask id="mask18" mask-type="alpha" maskUnits="userSpaceOnUse" x="621" y="547" width="12" height="11">
<path d="M626.79 558C629.678 558 632.019 555.666 632.019 552.788C632.019 549.909 629.678 547.575 626.79 547.575C623.903 547.575 621.562 549.909 621.562 552.788C621.562 555.666 623.903 558 626.79 558Z" fill="#FC8E9E"/>
</mask>
<g mask="url(#mask18)">
<path d="M626.79 558C629.678 558 632.019 555.666 632.019 552.788C632.019 549.909 629.678 547.575 626.79 547.575C623.903 547.575 621.562 549.909 621.562 552.788C621.562 555.666 623.903 558 626.79 558Z" fill="#FC8E9E"/>
</g>
<mask id="mask19" mask-type="alpha" maskUnits="userSpaceOnUse" x="651" y="547" width="12" height="11">
<path d="M657.072 558C659.959 558 662.3 555.666 662.3 552.788C662.3 549.909 659.959 547.575 657.072 547.575C654.184 547.575 651.843 549.909 651.843 552.788C651.843 555.666 654.184 558 657.072 558Z" fill="#FC8E9E"/>
</mask>
<g mask="url(#mask19)">
<path d="M657.072 558C659.959 558 662.3 555.666 662.3 552.788C662.3 549.909 659.959 547.575 657.072 547.575C654.184 547.575 651.843 549.909 651.843 552.788C651.843 555.666 654.184 558 657.072 558Z" fill="#FC8E9E"/>
</g>
</g>
<g opacity="0.3">
<mask id="mask20" mask-type="alpha" maskUnits="userSpaceOnUse" x="8" y="144" width="11" height="11">
<path d="M13.5095 154.425C16.397 154.425 18.7378 152.091 18.7378 149.212C18.7378 146.334 16.397 144 13.5095 144C10.6219 144 8.28107 146.334 8.28107 149.212C8.28107 152.091 10.6219 154.425 13.5095 154.425Z" fill="#FC8E9E"/>
</mask>
<g mask="url(#mask20)">
<path d="M13.5095 154.425C16.397 154.425 18.7378 152.091 18.7378 149.212C18.7378 146.334 16.397 144 13.5095 144C10.6219 144 8.28107 146.334 8.28107 149.212C8.28107 152.091 10.6219 154.425 13.5095 154.425Z" fill="#FC8E9E"/>
</g>
<mask id="mask21" mask-type="alpha" maskUnits="userSpaceOnUse" x="38" y="144" width="12" height="11">
<path d="M43.7905 154.425C46.6781 154.425 49.0189 152.091 49.0189 149.212C49.0189 146.334 46.6781 144 43.7905 144C40.903 144 38.5621 146.334 38.5621 149.212C38.5621 152.091 40.903 154.425 43.7905 154.425Z" fill="#FC8E9E"/>
</mask>
<g mask="url(#mask21)">
<path d="M43.7905 154.425C46.6781 154.425 49.0189 152.091 49.0189 149.212C49.0189 146.334 46.6781 144 43.7905 144C40.903 144 38.5621 146.334 38.5621 149.212C38.5621 152.091 40.903 154.425 43.7905 154.425Z" fill="#FC8E9E"/>
</g>
<mask id="mask22" mask-type="alpha" maskUnits="userSpaceOnUse" x="68" y="144" width="12" height="11">
<path d="M74.0716 154.425C76.9592 154.425 79.3 152.091 79.3 149.212C79.3 146.334 76.9592 144 74.0716 144C71.184 144 68.8432 146.334 68.8432 149.212C68.8432 152.091 71.184 154.425 74.0716 154.425Z" fill="#FC8E9E"/>
</mask>
<g mask="url(#mask22)">
<path d="M74.0716 154.425C76.9592 154.425 79.3 152.091 79.3 149.212C79.3 146.334 76.9592 144 74.0716 144C71.184 144 68.8432 146.334 68.8432 149.212C68.8432 152.091 71.184 154.425 74.0716 154.425Z" fill="#FC8E9E"/>
</g>
<mask id="mask23" mask-type="alpha" maskUnits="userSpaceOnUse" x="99" y="144" width="11" height="11">
<path d="M104.353 154.425C107.24 154.425 109.581 152.091 109.581 149.212C109.581 146.334 107.24 144 104.353 144C101.465 144 99.1243 146.334 99.1243 149.212C99.1243 152.091 101.465 154.425 104.353 154.425Z" fill="#FC8E9E"/>
</mask>
<g mask="url(#mask23)">
<path d="M104.353 154.425C107.24 154.425 109.581 152.091 109.581 149.212C109.581 146.334 107.24 144 104.353 144C101.465 144 99.1243 146.334 99.1243 149.212C99.1243 152.091 101.465 154.425 104.353 154.425Z" fill="#FC8E9E"/>
</g>
<mask id="mask24" mask-type="alpha" maskUnits="userSpaceOnUse" x="8" y="170" width="11" height="11">
<path d="M13.5095 180.596C16.397 180.596 18.7378 178.262 18.7378 175.383C18.7378 172.505 16.397 170.171 13.5095 170.171C10.6219 170.171 8.28107 172.505 8.28107 175.383C8.28107 178.262 10.6219 180.596 13.5095 180.596Z" fill="#FC8E9E"/>
</mask>
<g mask="url(#mask24)">
<path d="M13.5095 180.596C16.397 180.596 18.7378 178.262 18.7378 175.383C18.7378 172.505 16.397 170.171 13.5095 170.171C10.6219 170.171 8.28107 172.505 8.28107 175.383C8.28107 178.262 10.6219 180.596 13.5095 180.596Z" fill="#FC8E9E"/>
</g>
<mask id="mask25" mask-type="alpha" maskUnits="userSpaceOnUse" x="38" y="170" width="12" height="11">
<path d="M43.7905 180.596C46.6781 180.596 49.0189 178.262 49.0189 175.383C49.0189 172.505 46.6781 170.171 43.7905 170.171C40.903 170.171 38.5621 172.505 38.5621 175.383C38.5621 178.262 40.903 180.596 43.7905 180.596Z" fill="#FC8E9E"/>
</mask>
<g mask="url(#mask25)">
<path d="M43.7905 180.596C46.6781 180.596 49.0189 178.262 49.0189 175.383C49.0189 172.505 46.6781 170.171 43.7905 170.171C40.903 170.171 38.5621 172.505 38.5621 175.383C38.5621 178.262 40.903 180.596 43.7905 180.596Z" fill="#FC8E9E"/>
</g>
<mask id="mask26" mask-type="alpha" maskUnits="userSpaceOnUse" x="68" y="170" width="12" height="11">
<path d="M74.0716 180.596C76.9592 180.596 79.3 178.262 79.3 175.383C79.3 172.505 76.9592 170.171 74.0716 170.171C71.184 170.171 68.8432 172.505 68.8432 175.383C68.8432 178.262 71.184 180.596 74.0716 180.596Z" fill="#FC8E9E"/>
</mask>
<g mask="url(#mask26)">
<path d="M74.0716 180.596C76.9592 180.596 79.3 178.262 79.3 175.383C79.3 172.505 76.9592 170.171 74.0716 170.171C71.184 170.171 68.8432 172.505 68.8432 175.383C68.8432 178.262 71.184 180.596 74.0716 180.596Z" fill="#FC8E9E"/>
</g>
<mask id="mask27" mask-type="alpha" maskUnits="userSpaceOnUse" x="99" y="170" width="11" height="11">
<path d="M104.353 180.596C107.24 180.596 109.581 178.262 109.581 175.383C109.581 172.505 107.24 170.171 104.353 170.171C101.465 170.171 99.1243 172.505 99.1243 175.383C99.1243 178.262 101.465 180.596 104.353 180.596Z" fill="#FC8E9E"/>
</mask>
<g mask="url(#mask27)">
<path d="M104.353 180.596C107.24 180.596 109.581 178.262 109.581 175.383C109.581 172.505 107.24 170.171 104.353 170.171C101.465 170.171 99.1243 172.505 99.1243 175.383C99.1243 178.262 101.465 180.596 104.353 180.596Z" fill="#FC8E9E"/>
</g>
<mask id="mask28" mask-type="alpha" maskUnits="userSpaceOnUse" x="8" y="196" width="11" height="11">
<path d="M13.5095 206.712C16.397 206.712 18.7378 204.379 18.7378 201.5C18.7378 198.621 16.397 196.288 13.5095 196.288C10.6219 196.288 8.28107 198.621 8.28107 201.5C8.28107 204.379 10.6219 206.712 13.5095 206.712Z" fill="#FC8E9E"/>
</mask>
<g mask="url(#mask28)">
<path d="M13.5095 206.712C16.397 206.712 18.7378 204.379 18.7378 201.5C18.7378 198.621 16.397 196.288 13.5095 196.288C10.6219 196.288 8.28107 198.621 8.28107 201.5C8.28107 204.379 10.6219 206.712 13.5095 206.712Z" fill="#FC8E9E"/>
</g>
<mask id="mask29" mask-type="alpha" maskUnits="userSpaceOnUse" x="38" y="196" width="12" height="11">
<path d="M43.7905 206.712C46.6781 206.712 49.0189 204.379 49.0189 201.5C49.0189 198.621 46.6781 196.288 43.7905 196.288C40.903 196.288 38.5621 198.621 38.5621 201.5C38.5621 204.379 40.903 206.712 43.7905 206.712Z" fill="#FC8E9E"/>
</mask>
<g mask="url(#mask29)">
<path d="M43.7905 206.712C46.6781 206.712 49.0189 204.379 49.0189 201.5C49.0189 198.621 46.6781 196.288 43.7905 196.288C40.903 196.288 38.5621 198.621 38.5621 201.5C38.5621 204.379 40.903 206.712 43.7905 206.712Z" fill="#FC8E9E"/>
</g>
<mask id="mask30" mask-type="alpha" maskUnits="userSpaceOnUse" x="68" y="196" width="12" height="11">
<path d="M74.0716 206.712C76.9592 206.712 79.3 204.379 79.3 201.5C79.3 198.621 76.9592 196.288 74.0716 196.288C71.184 196.288 68.8432 198.621 68.8432 201.5C68.8432 204.379 71.184 206.712 74.0716 206.712Z" fill="#FC8E9E"/>
</mask>
<g mask="url(#mask30)">
<path d="M74.0716 206.712C76.9592 206.712 79.3 204.379 79.3 201.5C79.3 198.621 76.9592 196.288 74.0716 196.288C71.184 196.288 68.8432 198.621 68.8432 201.5C68.8432 204.379 71.184 206.712 74.0716 206.712Z" fill="#FC8E9E"/>
</g>
<mask id="mask31" mask-type="alpha" maskUnits="userSpaceOnUse" x="99" y="196" width="11" height="11">
<path d="M104.353 206.712C107.24 206.712 109.581 204.379 109.581 201.5C109.581 198.621 107.24 196.288 104.353 196.288C101.465 196.288 99.1243 198.621 99.1243 201.5C99.1243 204.379 101.465 206.712 104.353 206.712Z" fill="#FC8E9E"/>
</mask>
<g mask="url(#mask31)">
<path d="M104.353 206.712C107.24 206.712 109.581 204.379 109.581 201.5C109.581 198.621 107.24 196.288 104.353 196.288C101.465 196.288 99.1243 198.621 99.1243 201.5C99.1243 204.379 101.465 206.712 104.353 206.712Z" fill="#FC8E9E"/>
</g>
<mask id="mask32" mask-type="alpha" maskUnits="userSpaceOnUse" x="8" y="222" width="11" height="11">
<path d="M13.5095 232.883C16.397 232.883 18.7378 230.55 18.7378 227.671C18.7378 224.792 16.397 222.458 13.5095 222.458C10.6219 222.458 8.28107 224.792 8.28107 227.671C8.28107 230.55 10.6219 232.883 13.5095 232.883Z" fill="#FC8E9E"/>
</mask>
<g mask="url(#mask32)">
<path d="M13.5095 232.883C16.397 232.883 18.7378 230.55 18.7378 227.671C18.7378 224.792 16.397 222.458 13.5095 222.458C10.6219 222.458 8.28107 224.792 8.28107 227.671C8.28107 230.55 10.6219 232.883 13.5095 232.883Z" fill="#FC8E9E"/>
</g>
<mask id="mask33" mask-type="alpha" maskUnits="userSpaceOnUse" x="38" y="222" width="12" height="11">
<path d="M43.7905 232.883C46.6781 232.883 49.0189 230.55 49.0189 227.671C49.0189 224.792 46.6781 222.458 43.7905 222.458C40.903 222.458 38.5621 224.792 38.5621 227.671C38.5621 230.55 40.903 232.883 43.7905 232.883Z" fill="#FC8E9E"/>
</mask>
<g mask="url(#mask33)">
<path d="M43.7905 232.883C46.6781 232.883 49.0189 230.55 49.0189 227.671C49.0189 224.792 46.6781 222.458 43.7905 222.458C40.903 222.458 38.5621 224.792 38.5621 227.671C38.5621 230.55 40.903 232.883 43.7905 232.883Z" fill="#FC8E9E"/>
</g>
<mask id="mask34" mask-type="alpha" maskUnits="userSpaceOnUse" x="68" y="222" width="12" height="11">
<path d="M74.0716 232.883C76.9592 232.883 79.3 230.55 79.3 227.671C79.3 224.792 76.9592 222.458 74.0716 222.458C71.184 222.458 68.8432 224.792 68.8432 227.671C68.8432 230.55 71.184 232.883 74.0716 232.883Z" fill="#FC8E9E"/>
</mask>
<g mask="url(#mask34)">
<path d="M74.0716 232.883C76.9592 232.883 79.3 230.55 79.3 227.671C79.3 224.792 76.9592 222.458 74.0716 222.458C71.184 222.458 68.8432 224.792 68.8432 227.671C68.8432 230.55 71.184 232.883 74.0716 232.883Z" fill="#FC8E9E"/>
</g>
<mask id="mask35" mask-type="alpha" maskUnits="userSpaceOnUse" x="99" y="222" width="11" height="11">
<path d="M104.353 232.883C107.24 232.883 109.581 230.55 109.581 227.671C109.581 224.792 107.24 222.458 104.353 222.458C101.465 222.458 99.1243 224.792 99.1243 227.671C99.1243 230.55 101.465 232.883 104.353 232.883Z" fill="#FC8E9E"/>
</mask>
<g mask="url(#mask35)">
<path d="M104.353 232.883C107.24 232.883 109.581 230.55 109.581 227.671C109.581 224.792 107.24 222.458 104.353 222.458C101.465 222.458 99.1243 224.792 99.1243 227.671C99.1243 230.55 101.465 232.883 104.353 232.883Z" fill="#FC8E9E"/>
</g>
<mask id="mask36" mask-type="alpha" maskUnits="userSpaceOnUse" x="8" y="248" width="11" height="11">
<path d="M13.5095 259C16.397 259 18.7378 256.666 18.7378 253.788C18.7378 250.909 16.397 248.575 13.5095 248.575C10.6219 248.575 8.28107 250.909 8.28107 253.788C8.28107 256.666 10.6219 259 13.5095 259Z" fill="#FC8E9E"/>
</mask>
<g mask="url(#mask36)">
<path d="M13.5095 259C16.397 259 18.7378 256.666 18.7378 253.788C18.7378 250.909 16.397 248.575 13.5095 248.575C10.6219 248.575 8.28107 250.909 8.28107 253.788C8.28107 256.666 10.6219 259 13.5095 259Z" fill="#FC8E9E"/>
</g>
<mask id="mask37" mask-type="alpha" maskUnits="userSpaceOnUse" x="38" y="248" width="12" height="11">
<path d="M43.7905 259C46.6781 259 49.0189 256.666 49.0189 253.788C49.0189 250.909 46.6781 248.575 43.7905 248.575C40.903 248.575 38.5621 250.909 38.5621 253.788C38.5621 256.666 40.903 259 43.7905 259Z" fill="#FC8E9E"/>
</mask>
<g mask="url(#mask37)">
<path d="M43.7905 259C46.6781 259 49.0189 256.666 49.0189 253.788C49.0189 250.909 46.6781 248.575 43.7905 248.575C40.903 248.575 38.5621 250.909 38.5621 253.788C38.5621 256.666 40.903 259 43.7905 259Z" fill="#FC8E9E"/>
</g>
<mask id="mask38" mask-type="alpha" maskUnits="userSpaceOnUse" x="68" y="248" width="12" height="11">
<path d="M74.0716 259C76.9592 259 79.3 256.666 79.3 253.788C79.3 250.909 76.9592 248.575 74.0716 248.575C71.184 248.575 68.8432 250.909 68.8432 253.788C68.8432 256.666 71.184 259 74.0716 259Z" fill="#FC8E9E"/>
</mask>
<g mask="url(#mask38)">
<path d="M74.0716 259C76.9592 259 79.3 256.666 79.3 253.788C79.3 250.909 76.9592 248.575 74.0716 248.575C71.184 248.575 68.8432 250.909 68.8432 253.788C68.8432 256.666 71.184 259 74.0716 259Z" fill="#FC8E9E"/>
</g>
<mask id="mask39" mask-type="alpha" maskUnits="userSpaceOnUse" x="99" y="248" width="11" height="11">
<path d="M104.353 259C107.24 259 109.581 256.666 109.581 253.788C109.581 250.909 107.24 248.575 104.353 248.575C101.465 248.575 99.1243 250.909 99.1243 253.788C99.1243 256.666 101.465 259 104.353 259Z" fill="#FC8E9E"/>
</mask>
<g mask="url(#mask39)">
<path d="M104.353 259C107.24 259 109.581 256.666 109.581 253.788C109.581 250.909 107.24 248.575 104.353 248.575C101.465 248.575 99.1243 250.909 99.1243 253.788C99.1243 256.666 101.465 259 104.353 259Z" fill="#FC8E9E"/>
</g>
</g>
</g>
<defs>
<linearGradient id="paint0_linear" x1="408.058" y1="96.5456" x2="417.513" y2="87.5406" gradientUnits="userSpaceOnUse">
<stop stop-color="#FF9085"/>
<stop offset="1" stop-color="#FB6FBB"/>
</linearGradient>
<linearGradient id="paint1_linear" x1="513.553" y1="80.0587" x2="545.768" y2="219.445" gradientUnits="userSpaceOnUse">
<stop stop-color="#FF9085"/>
<stop offset="1" stop-color="#FB6FBB"/>
</linearGradient>
<linearGradient id="paint2_linear" x1="483.719" y1="159.341" x2="443.276" y2="307.235" gradientUnits="userSpaceOnUse">
<stop offset="0.004" stop-color="#E38DDD"/>
<stop offset="1" stop-color="#9571F6"/>
</linearGradient>
<linearGradient id="paint3_linear" x1="458.432" y1="152.534" x2="417.811" y2="301.079" gradientUnits="userSpaceOnUse">
<stop offset="0.004" stop-color="#E38DDD"/>
<stop offset="1" stop-color="#9571F6"/>
</linearGradient>
<linearGradient id="paint4_linear" x1="470.087" y1="155.819" x2="429.794" y2="303.164" gradientUnits="userSpaceOnUse">
<stop offset="0.004" stop-color="#E38DDD"/>
<stop offset="1" stop-color="#9571F6"/>
</linearGradient>
<linearGradient id="paint5_linear" x1="493.012" y1="161.628" x2="452.618" y2="309.343" gradientUnits="userSpaceOnUse">
<stop offset="0.004" stop-color="#E38DDD"/>
<stop offset="1" stop-color="#9571F6"/>
</linearGradient>
<linearGradient id="paint6_linear" x1="482.759" y1="158.915" x2="442.541" y2="305.985" gradientUnits="userSpaceOnUse">
<stop offset="0.004" stop-color="#E38DDD"/>
<stop offset="1" stop-color="#9571F6"/>
</linearGradient>
<linearGradient id="paint7_linear" x1="520.66" y1="418.461" x2="441.813" y2="289.144" gradientUnits="userSpaceOnUse">
<stop stop-color="#444B8C"/>
<stop offset="0.996" stop-color="#26264F"/>
</linearGradient>
<linearGradient id="paint8_linear" x1="-15.9838" y1="-253.74" x2="104.943" y2="-101.988" gradientUnits="userSpaceOnUse">
<stop stop-color="#AA80F9"/>
<stop offset="0.996" stop-color="#6165D7"/>
</linearGradient>
<linearGradient id="paint9_linear" x1="-61.5853" y1="-286.52" x2="84.4277" y2="-103.285" gradientUnits="userSpaceOnUse">
<stop stop-color="#AA80F9"/>
<stop offset="0.996" stop-color="#6165D7"/>
</linearGradient>
<linearGradient id="paint10_linear" x1="316.291" y1="270.324" x2="485.616" y2="326.661" gradientUnits="userSpaceOnUse">
<stop stop-color="#444B8C"/>
<stop offset="0.996" stop-color="#26264F"/>
</linearGradient>
<linearGradient id="paint11_linear" x1="128.296" y1="-237.693" x2="219.377" y2="-123.399" gradientUnits="userSpaceOnUse">
<stop stop-color="#AA80F9"/>
<stop offset="0.996" stop-color="#6165D7"/>
</linearGradient>
<linearGradient id="paint12_linear" x1="416.469" y1="299.636" x2="410.865" y2="287.79" gradientUnits="userSpaceOnUse">
<stop stop-color="#FFC444"/>
<stop offset="0.996" stop-color="#F36F56"/>
</linearGradient>
<linearGradient id="paint13_linear" x1="304.034" y1="164.743" x2="418.022" y2="457.163" gradientUnits="userSpaceOnUse">
<stop stop-color="#AA80F9"/>
<stop offset="0.996" stop-color="#6165D7"/>
</linearGradient>
<linearGradient id="paint14_linear" x1="297.137" y1="166.811" x2="411.125" y2="459.231" gradientUnits="userSpaceOnUse">
<stop stop-color="#AA80F9"/>
<stop offset="0.996" stop-color="#6165D7"/>
</linearGradient>
<linearGradient id="paint15_linear" x1="417.435" y1="354.987" x2="668.562" y2="417.054" gradientUnits="userSpaceOnUse">
<stop stop-color="#AA80F9"/>
<stop offset="0.996" stop-color="#6165D7"/>
</linearGradient>
<linearGradient id="paint16_linear" x1="446.918" y1="557.58" x2="433.964" y2="557.47" gradientUnits="userSpaceOnUse">
<stop stop-color="#444B8C"/>
<stop offset="0.996" stop-color="#26264F"/>
</linearGradient>
<linearGradient id="paint17_linear" x1="445.035" y1="567.604" x2="448.331" y2="547.643" gradientUnits="userSpaceOnUse">
<stop stop-color="#FFC444"/>
<stop offset="0.996" stop-color="#F36F56"/>
</linearGradient>
<linearGradient id="paint18_linear" x1="498.08" y1="560.371" x2="486.149" y2="560.269" gradientUnits="userSpaceOnUse">
<stop stop-color="#444B8C"/>
<stop offset="0.996" stop-color="#26264F"/>
</linearGradient>
<linearGradient id="paint19_linear" x1="498.84" y1="568.323" x2="499.332" y2="549.902" gradientUnits="userSpaceOnUse">
<stop stop-color="#FFC444"/>
<stop offset="0.996" stop-color="#F36F56"/>
</linearGradient>
<linearGradient id="paint20_linear" x1="493.169" y1="575.212" x2="478.578" y2="449.075" gradientUnits="userSpaceOnUse">
<stop stop-color="#40447E"/>
<stop offset="0.996" stop-color="#3C3B6B"/>
</linearGradient>
<linearGradient id="paint21_linear" x1="493.164" y1="575.338" x2="478.481" y2="448.403" gradientUnits="userSpaceOnUse">
<stop stop-color="#40447E"/>
<stop offset="0.996" stop-color="#3C3B6B"/>
</linearGradient>
<linearGradient id="paint22_linear" x1="481.184" y1="392.085" x2="421.771" y2="429.187" gradientUnits="userSpaceOnUse">
<stop stop-color="#40447E"/>
<stop offset="0.996" stop-color="#3C3B6B"/>
</linearGradient>
<linearGradient id="paint23_linear" x1="593.683" y1="363.405" x2="340.189" y2="682.244" gradientUnits="userSpaceOnUse">
<stop stop-color="#AA80F9"/>
<stop offset="0.996" stop-color="#6165D7"/>
</linearGradient>
<linearGradient id="paint24_linear" x1="539.905" y1="378.832" x2="544.418" y2="397.254" gradientUnits="userSpaceOnUse">
<stop stop-color="#FFC444"/>
<stop offset="0.996" stop-color="#F36F56"/>
</linearGradient>
<linearGradient id="paint25_linear" x1="446.378" y1="275.371" x2="464.302" y2="310.196" gradientUnits="userSpaceOnUse">
<stop stop-color="#FFC444"/>
<stop offset="0.996" stop-color="#F36F56"/>
</linearGradient>
<linearGradient id="paint26_linear" x1="477.454" y1="-613.287" x2="477.495" y2="-639.778" gradientUnits="userSpaceOnUse">
<stop stop-color="#FFC444"/>
<stop offset="0.996" stop-color="#F36F56"/>
</linearGradient>
<linearGradient id="paint27_linear" x1="560.043" y1="345.375" x2="420.934" y2="812.384" gradientUnits="userSpaceOnUse">
<stop stop-color="#AA80F9"/>
<stop offset="0.996" stop-color="#6165D7"/>
</linearGradient>
<linearGradient id="paint28_linear" x1="517.667" y1="270.538" x2="668.036" y2="791.493" gradientUnits="userSpaceOnUse">
<stop stop-color="#AA80F9"/>
<stop offset="0.996" stop-color="#6165D7"/>
</linearGradient>
<linearGradient id="paint29_linear" x1="244.735" y1="245.1" x2="244.487" y2="262.9" gradientUnits="userSpaceOnUse">
<stop stop-color="#FFC444"/>
<stop offset="0.996" stop-color="#F36F56"/>
</linearGradient>
<linearGradient id="paint30_linear" x1="284.728" y1="316.585" x2="261.269" y2="384.831" gradientUnits="userSpaceOnUse">
<stop stop-color="#FF9085"/>
<stop offset="1" stop-color="#FB6FBB"/>
</linearGradient>
<linearGradient id="paint31_linear" x1="279.698" y1="333.998" x2="271.42" y2="358.08" gradientUnits="userSpaceOnUse">
<stop stop-color="#FF9085"/>
<stop offset="1" stop-color="#FB6FBB"/>
</linearGradient>
<linearGradient id="paint32_linear" x1="176.428" y1="555.95" x2="157.901" y2="556.378" gradientUnits="userSpaceOnUse">
<stop stop-color="#444B8C"/>
<stop offset="0.996" stop-color="#26264F"/>
</linearGradient>
<linearGradient id="paint33_linear" x1="169.955" y1="558.362" x2="162.115" y2="542.25" gradientUnits="userSpaceOnUse">
<stop stop-color="#FFC444"/>
<stop offset="0.996" stop-color="#F36F56"/>
</linearGradient>
<linearGradient id="paint34_linear" x1="230.952" y1="546.837" x2="211.392" y2="548.093" gradientUnits="userSpaceOnUse">
<stop stop-color="#444B8C"/>
<stop offset="0.996" stop-color="#26264F"/>
</linearGradient>
<linearGradient id="paint35_linear" x1="222.388" y1="550.642" x2="214.522" y2="534.151" gradientUnits="userSpaceOnUse">
<stop stop-color="#FFC444"/>
<stop offset="0.996" stop-color="#F36F56"/>
</linearGradient>
<linearGradient id="paint36_linear" x1="198.085" y1="526.501" x2="170" y2="396.911" gradientUnits="userSpaceOnUse">
<stop stop-color="#AA80F9"/>
<stop offset="0.996" stop-color="#6165D7"/>
</linearGradient>
<linearGradient id="paint37_linear" x1="197.484" y1="523.416" x2="170.736" y2="399.996" gradientUnits="userSpaceOnUse">
<stop stop-color="#AA80F9"/>
<stop offset="0.996" stop-color="#6165D7"/>
</linearGradient>
<linearGradient id="paint38_linear" x1="160.547" y1="553.932" x2="109.169" y2="438.981" gradientUnits="userSpaceOnUse">
<stop stop-color="#AA80F9"/>
<stop offset="0.996" stop-color="#6165D7"/>
</linearGradient>
<linearGradient id="paint39_linear" x1="278.819" y1="334.957" x2="211.895" y2="449.911" gradientUnits="userSpaceOnUse">
<stop stop-color="#FC6F83"/>
<stop offset="1" stop-color="#FC8E9E"/>
</linearGradient>
<linearGradient id="paint40_linear" x1="288.014" y1="318.791" x2="210.304" y2="452.269" gradientUnits="userSpaceOnUse">
<stop stop-color="#FF9085"/>
<stop offset="1" stop-color="#FB6FBB"/>
</linearGradient>
<linearGradient id="paint41_linear" x1="174.245" y1="264.539" x2="178.508" y2="240.366" gradientUnits="userSpaceOnUse">
<stop stop-color="#FFC444"/>
<stop offset="0.996" stop-color="#F36F56"/>
</linearGradient>
<linearGradient id="paint42_linear" x1="195.751" y1="233.867" x2="217.484" y2="233.867" gradientUnits="userSpaceOnUse">
<stop stop-color="#444B8C"/>
<stop offset="0.996" stop-color="#26264F"/>
</linearGradient>
<linearGradient id="paint43_linear" x1="200.399" y1="272.845" x2="160.36" y2="342.265" gradientUnits="userSpaceOnUse">
<stop stop-color="#FFC444"/>
<stop offset="0.996" stop-color="#F36F56"/>
</linearGradient>
<linearGradient id="paint44_linear" x1="197.166" y1="243.323" x2="210.469" y2="243.323" gradientUnits="userSpaceOnUse">
<stop stop-color="#444B8C"/>
<stop offset="0.996" stop-color="#26264F"/>
</linearGradient>
<linearGradient id="paint45_linear" x1="176.49" y1="351.172" x2="119.735" y2="462.832" gradientUnits="userSpaceOnUse">
<stop stop-color="#FF9085"/>
<stop offset="1" stop-color="#FB6FBB"/>
</linearGradient>
<linearGradient id="paint46_linear" x1="206.47" y1="258.984" x2="210.075" y2="255.4" gradientUnits="userSpaceOnUse">
<stop stop-color="#FFC444"/>
<stop offset="0.996" stop-color="#F36F56"/>
</linearGradient>
<linearGradient id="paint47_linear" x1="146.303" y1="394.017" x2="156.449" y2="426.564" gradientUnits="userSpaceOnUse">
<stop stop-color="#FFC444"/>
<stop offset="0.996" stop-color="#F36F56"/>
</linearGradient>
<linearGradient id="paint48_linear" x1="340.35" y1="135.791" x2="226.441" y2="135.791" gradientUnits="userSpaceOnUse">
<stop stop-color="#FBC171"/>
<stop offset="1" stop-color="#F8A026"/>
</linearGradient>
<linearGradient id="paint49_linear" x1="293.927" y1="125.716" x2="195.078" y2="255.897" gradientUnits="userSpaceOnUse">
<stop offset="0.004" stop-color="#E38DDD"/>
<stop offset="1" stop-color="#9571F6"/>
</linearGradient>
<linearGradient id="paint50_linear" x1="322.41" y1="446.245" x2="397.427" y2="446.245" gradientUnits="userSpaceOnUse">
<stop stop-color="#FF9085"/>
<stop offset="1" stop-color="#FB6FBB"/>
</linearGradient>
<linearGradient id="paint51_linear" x1="289.694" y1="383.461" x2="391.313" y2="407.566" gradientUnits="userSpaceOnUse">
<stop stop-color="#FFC444"/>
<stop offset="0.996" stop-color="#F36F56"/>
</linearGradient>
<linearGradient id="paint52_linear" x1="258.549" y1="502.38" x2="342.735" y2="502.38" gradientUnits="userSpaceOnUse">
<stop offset="0.004" stop-color="#E38DDD"/>
<stop offset="1" stop-color="#9571F6"/>
</linearGradient>
<clipPath id="clip0">
<rect width="667" height="667" fill="white"/>
</clipPath>
</defs>
</svg>
