<svg width="611" height="611" viewBox="0 0 611 611" fill="none" xmlns="http://www.w3.org/2000/svg">
<path opacity="0.302" d="M512.025 381.964C465.638 490.389 343.191 536.961 247.251 529.019C221.057 526.852 168.351 522.489 127.198 483.571C48.1668 408.835 60.3374 252.612 135.993 160.637C145.736 148.793 213.175 69.435 318.267 70.4973C395.208 71.2762 449.213 114.74 455.78 120.153C464.075 126.994 482.372 143.249 498.861 169.035C537.606 229.626 541.012 314.209 512.025 381.964Z" fill="url(#paint0_linear)"/>
<path d="M206.388 276.049C200.499 254.761 205.396 228.926 206.581 205.527C207.208 193.155 206.727 181.009 203.316 169.03C199.925 157.119 192.646 144.67 196.457 131.941C204.137 106.299 230.665 114.371 247.299 130.989C266.6 150.273 275.349 184.517 284.922 210.546C290.693 226.236 298.456 242.111 302.452 258.326C309.071 285.191 305.176 304.858 293.664 319.204C282.625 332.965 263.876 337.791 247.552 331.103C232.804 325.06 215.89 310.388 206.388 276.049Z" fill="url(#paint1_linear)"/>
<path d="M275.963 369.738C275.959 369.738 275.956 369.736 275.953 369.736C275.492 369.714 275.136 369.323 275.157 368.863C275.174 368.529 276.682 334.922 271.371 289.407C266.47 247.425 254.599 186.437 225.871 134.296C225.647 133.893 225.795 133.384 226.198 133.162C226.602 132.939 227.111 133.086 227.333 133.49C256.198 185.877 268.119 247.106 273.035 289.245C278.359 334.889 276.842 368.606 276.827 368.942C276.806 369.4 276.419 369.754 275.963 369.738Z" fill="url(#paint2_linear)"/>
<path d="M228.035 258.911C226.128 231.001 215.265 206.457 199.398 189.695C185.215 174.711 177.206 154.842 177.468 134.232C177.496 132.065 177.437 129.871 177.285 127.655C174.991 94.0891 152.564 68.2821 127.193 70.0163C101.823 71.7505 83.1157 100.367 85.4098 133.934C85.8792 140.797 87.1901 147.335 89.1977 153.379C95.6008 172.666 94.8202 193.717 86.2465 212.152C78.5834 228.628 74.7692 248.362 76.1987 269.286C78.3314 300.495 91.6615 327.494 110.663 344.113C117.849 350.398 123.87 357.954 128.326 366.389C135.731 380.408 148.796 389.357 163.04 388.384C178.405 387.333 190.841 375.031 195.601 358.275C198.293 348.794 202.819 339.965 208.631 331.995C222.351 313.181 229.963 287.129 228.035 258.911Z" fill="url(#paint3_linear)"/>
<path d="M138.517 105.118C143.348 127.075 147.47 149.171 151.36 171.309C152.335 176.843 153.221 182.393 154.123 187.938L155.479 196.258L156.763 204.588C157.598 210.146 158.511 215.691 159.282 221.258L161.6 237.957C163.002 249.11 164.499 260.251 165.695 271.429C166.301 277.017 167.014 282.593 167.506 288.194L169.059 304.985C170.904 327.394 172.187 349.858 172.33 372.344L171.362 372.359L170.614 355.539L170.436 351.337L170.153 347.137L169.571 338.739L169.007 330.343C168.822 327.544 168.536 324.752 168.305 321.956C167.808 316.366 167.353 310.775 166.819 305.189C164.539 282.86 161.961 260.561 158.923 238.318C157.32 227.21 155.812 216.086 154.13 204.986L152.892 196.66L151.586 188.343C150.716 182.798 149.848 177.251 148.923 171.714C147.169 160.625 145.336 149.548 143.41 138.486C141.544 127.416 139.573 116.358 137.569 105.313L138.517 105.118Z" fill="url(#paint4_linear)"/>
<g opacity="0.302">
<path opacity="0.302" d="M468.181 150.08C467.145 150.039 466.341 149.165 466.382 148.129C466.465 146.118 466.462 144.072 466.373 142.052C466.326 141.029 467.109 140.161 468.127 140.097C468.138 140.095 468.151 140.095 468.163 140.094C469.199 140.047 470.075 140.851 470.121 141.885C470.215 144.013 470.218 146.166 470.132 148.284C470.093 149.252 469.325 150.018 468.378 150.079C468.313 150.082 468.247 150.084 468.181 150.08ZM465.261 132.241C464.897 130.252 464.444 128.259 463.914 126.317C463.642 125.318 464.232 124.287 465.231 124.013C466.234 123.743 467.262 124.331 467.534 125.331C468.09 127.375 468.568 129.473 468.952 131.566C469.138 132.584 468.462 133.562 467.443 133.748C467.369 133.763 467.296 133.771 467.222 133.776C466.287 133.835 465.434 133.186 465.261 132.241ZM460.663 117.001C459.867 115.146 458.981 113.307 458.029 111.526C457.54 110.614 457.884 109.476 458.797 108.987C459.711 108.499 460.847 108.844 461.336 109.756C462.339 111.629 463.273 113.569 464.111 115.52C464.52 116.472 464.078 117.575 463.127 117.984C462.924 118.071 462.715 118.121 462.506 118.134C461.737 118.182 460.984 117.75 460.663 117.001ZM452.772 103.17C451.582 101.54 450.305 99.9421 448.98 98.4204C448.299 97.6398 448.382 96.454 449.162 95.7738C449.945 95.0953 451.129 95.176 451.809 95.9566C453.204 97.5574 454.548 99.2406 455.803 100.957C456.414 101.793 456.231 102.966 455.394 103.577C455.095 103.796 454.752 103.913 454.408 103.936C453.79 103.975 453.166 103.707 452.772 103.17ZM441.997 91.4425C440.477 90.12 438.879 88.8453 437.247 87.6513C436.41 87.0387 436.228 85.8661 436.84 85.0294C437.451 84.1928 438.626 84.0117 439.461 84.6227C441.178 85.8793 442.86 87.2215 444.461 88.6131C445.241 89.2916 445.323 90.4774 444.643 91.258C444.301 91.6533 443.831 91.869 443.347 91.9003C442.873 91.93 442.385 91.7801 441.997 91.4425ZM428.896 82.3911C427.119 81.4376 425.279 80.5466 423.426 79.7462C422.474 79.3345 422.036 78.231 422.448 77.2808C422.858 76.3289 423.963 75.8908 424.915 76.3025C426.863 77.1441 428.802 78.0812 430.673 79.0858C431.585 79.5766 431.928 80.7146 431.437 81.627C431.119 82.2198 430.526 82.5723 429.9 82.6118C429.564 82.6332 429.217 82.564 428.896 82.3911ZM359.237 81.5183C358.749 80.6042 359.095 79.4679 360.009 78.9804C361.883 77.9824 363.825 77.0519 365.781 76.2152C366.735 75.8085 367.837 76.2515 368.244 77.2034C368.65 78.1569 368.207 79.2587 367.255 79.6655C365.398 80.4593 363.553 81.342 361.775 82.2907C361.531 82.4208 361.272 82.4916 361.012 82.508C360.301 82.5542 359.594 82.1886 359.237 81.5183ZM414.123 76.4738C412.18 75.9386 410.188 75.4807 408.206 75.1151C407.186 74.9257 406.513 73.9475 406.7 72.928C406.89 71.9102 407.868 71.2416 408.887 71.4244C410.976 71.8114 413.072 72.2923 415.119 72.8572C416.119 73.1322 416.705 74.1648 416.43 75.1629C416.213 75.955 415.518 76.4886 414.741 76.538C414.538 76.5512 414.33 76.5298 414.123 76.4738ZM374.279 75.1102C374.009 74.1105 374.601 73.0812 375.602 72.8094C377.651 72.2561 379.75 71.7834 381.842 71.4046C382.861 71.2152 383.838 71.8971 384.023 72.9165C384.207 73.9359 383.53 74.9109 382.511 75.097C380.523 75.4577 378.527 75.9056 376.58 76.4326C376.457 76.4656 376.332 76.4853 376.208 76.4936C375.337 76.5496 374.517 75.9863 374.279 75.1102ZM398.402 74.0051C396.387 73.9195 394.344 73.9178 392.326 74.0034C391.29 74.0479 390.416 73.2442 390.371 72.2083C390.329 71.1873 391.111 70.3226 392.127 70.2568C392.14 70.2568 392.153 70.2551 392.166 70.2551C394.291 70.1645 396.443 70.1662 398.563 70.2568C399.597 70.3012 400.401 71.1774 400.356 72.2116C400.315 73.1784 399.548 73.9425 398.603 74.0034C398.537 74.0067 398.469 74.0084 398.402 74.0051Z" fill="url(#paint5_linear)"/>
<path opacity="0.302" d="M349.998 89.733C350.366 89.7099 350.732 89.5782 351.043 89.3311C351.801 88.7284 352.583 88.1339 353.369 87.5591C354.205 86.9497 354.39 85.7755 353.779 84.9389C353.168 84.1006 351.994 83.9162 351.157 84.5288C350.33 85.1332 349.507 85.759 348.71 86.3914C347.899 87.0354 347.763 88.2162 348.407 89.0265C348.804 89.5271 349.405 89.7709 349.998 89.733Z" fill="url(#paint6_linear)"/>
</g>
<g opacity="0.302">
<path opacity="0.302" d="M322.648 139.965C323.552 139.907 324.305 139.203 324.395 138.272C324.488 137.31 324.601 136.332 324.733 135.369C324.875 134.343 324.156 133.396 323.13 133.254C322.099 133.112 321.157 133.83 321.016 134.856C320.877 135.873 320.757 136.9 320.66 137.915C320.561 138.946 321.317 139.861 322.348 139.96C322.45 139.97 322.549 139.972 322.648 139.965Z" fill="url(#paint7_linear)"/>
<path opacity="0.302" d="M396.239 220.054C395.203 220.069 394.35 219.24 394.335 218.204C394.321 217.169 395.147 216.319 396.185 216.302C398.158 216.274 400.159 216.161 402.158 215.966C403.182 215.863 404.106 216.622 404.207 217.653C404.307 218.684 403.551 219.601 402.52 219.701C401.654 219.785 400.791 219.855 399.93 219.911C398.701 219.988 397.458 220.036 396.239 220.054ZM410.348 216.63C410.109 215.622 410.732 214.611 411.741 214.372C413.677 213.914 415.613 213.367 417.497 212.752C418.481 212.425 419.541 212.964 419.864 213.949C420.187 214.934 419.65 215.993 418.667 216.315C416.682 216.966 414.643 217.541 412.606 218.023C412.501 218.048 412.395 218.063 412.29 218.069C411.394 218.127 410.562 217.532 410.348 216.63ZM386.032 219.501C383.96 219.245 381.87 218.898 379.821 218.466C378.808 218.254 378.16 217.257 378.372 216.245C378.584 215.23 379.579 214.583 380.594 214.794C382.539 215.204 384.523 215.535 386.49 215.777C387.519 215.904 388.248 216.839 388.122 217.868C388.01 218.778 387.264 219.454 386.381 219.51C386.267 219.517 386.149 219.515 386.032 219.501ZM425.635 211.61C425.18 210.678 425.566 209.555 426.498 209.1C428.281 208.229 430.05 207.272 431.755 206.253C432.644 205.721 433.795 206.012 434.327 206.902C434.857 207.791 434.567 208.942 433.678 209.474C431.885 210.546 430.022 211.554 428.143 212.473C427.916 212.584 427.677 212.644 427.44 212.659C426.704 212.705 425.977 212.313 425.635 211.61ZM369.993 215.681C368.029 214.976 366.07 214.179 364.166 213.308C363.224 212.878 362.809 211.765 363.239 210.823C363.67 209.879 364.783 209.466 365.725 209.896C367.534 210.723 369.396 211.482 371.261 212.15C372.236 212.5 372.743 213.575 372.392 214.55C372.132 215.276 371.47 215.742 370.745 215.788C370.496 215.805 370.241 215.77 369.993 215.681ZM355.182 208.438C353.416 207.318 351.677 206.111 350.012 204.851C349.186 204.226 349.024 203.05 349.65 202.223C350.276 201.396 351.453 201.233 352.277 201.861C353.86 203.058 355.513 204.206 357.191 205.27C358.066 205.825 358.326 206.982 357.771 207.859C357.437 208.386 356.883 208.689 356.304 208.727C355.921 208.75 355.529 208.659 355.182 208.438ZM342.302 198.139C340.819 196.661 339.385 195.103 338.034 193.511C337.366 192.72 337.463 191.538 338.253 190.868C339.046 190.197 340.228 190.296 340.897 191.085C342.18 192.598 343.543 194.077 344.951 195.482C345.684 196.215 345.686 197.402 344.955 198.135C344.617 198.473 344.186 198.656 343.746 198.684C343.227 198.717 342.697 198.534 342.302 198.139ZM331.974 185.275C330.851 183.509 329.792 181.674 328.823 179.822C328.344 178.904 328.7 177.77 329.619 177.29C330.534 176.811 331.669 177.167 332.15 178.086C333.067 179.843 334.074 181.586 335.141 183.264C335.696 184.138 335.437 185.296 334.563 185.853C334.286 186.027 333.983 186.121 333.677 186.141C333.016 186.184 332.354 185.874 331.974 185.275ZM324.721 170.448C324.018 168.483 323.389 166.462 322.852 164.44C322.587 163.438 323.183 162.411 324.184 162.146C325.182 161.88 326.213 162.475 326.478 163.476C326.989 165.398 327.585 167.317 328.254 169.184C328.603 170.159 328.095 171.233 327.119 171.582C326.949 171.643 326.776 171.678 326.605 171.689C325.791 171.74 325.009 171.253 324.721 170.448ZM320.905 154.408C320.714 152.882 320.567 151.33 320.47 149.799C320.436 149.244 320.408 148.69 320.385 148.137C320.34 147.103 321.131 146.208 322.18 146.185C323.216 146.141 324.09 146.946 324.133 147.981C324.154 148.506 324.182 149.033 324.215 149.56C324.308 151.017 324.446 152.491 324.629 153.942C324.757 154.97 324.028 155.909 323 156.036C322.96 156.04 322.923 156.045 322.883 156.047C321.901 156.11 321.029 155.397 320.905 154.408Z" fill="url(#paint8_linear)"/>
<path opacity="0.302" d="M441.06 204.016C441.432 203.993 441.801 203.858 442.114 203.608C442.906 202.972 443.7 202.309 444.474 201.633C445.254 200.953 445.335 199.767 444.653 198.987C443.973 198.206 442.789 198.125 442.007 198.806C441.272 199.448 440.518 200.079 439.767 200.681C438.958 201.329 438.828 202.509 439.477 203.318C439.874 203.814 440.472 204.054 441.06 204.016Z" fill="url(#paint9_linear)"/>
</g>
<path d="M444.604 172.052C444.821 171.747 444.823 171.339 444.605 171.034L438.425 162.333C440.325 157.725 441.503 152.783 441.84 147.664L451.218 142.585C451.545 142.407 451.725 142.04 451.664 141.671L449.571 129.043C449.51 128.674 449.22 128.384 448.851 128.322L438.337 126.541C436.366 121.806 433.655 117.508 430.37 113.76L433.411 103.531C433.518 103.173 433.385 102.786 433.08 102.569L422.67 95.12C422.367 94.9026 421.957 94.901 421.652 95.1184L412.954 101.299C408.346 99.3987 403.402 98.2211 398.285 97.8835L393.206 88.5061C393.028 88.1783 392.66 87.9972 392.292 88.0598L379.663 90.153C379.294 90.2139 379.004 90.5038 378.942 90.8727L377.161 101.386C372.427 103.358 368.128 106.069 364.38 109.354L354.151 106.312C353.792 106.205 353.407 106.339 353.188 106.643L345.74 117.053C345.521 117.356 345.521 117.767 345.739 118.071L351.918 126.77C350.019 131.378 348.841 136.322 348.504 141.439L339.126 146.518C338.797 146.696 338.617 147.063 338.678 147.432L340.773 160.061C340.834 160.43 341.122 160.719 341.491 160.782L352.007 162.562C353.978 167.297 356.689 171.596 359.973 175.344L356.933 185.573C356.826 185.932 356.959 186.317 357.262 186.536L367.672 193.983C367.977 194.203 368.385 194.203 368.69 193.985L377.39 187.806C381.998 189.705 386.941 190.882 392.059 191.22L397.138 200.597C397.316 200.927 397.684 201.106 398.052 201.045L410.681 198.951C411.05 198.89 411.34 198.601 411.402 198.233L413.182 187.717C417.917 185.746 422.216 183.035 425.964 179.751L436.193 182.791C436.55 182.898 436.937 182.765 437.155 182.462L444.604 172.052Z" fill="url(#paint10_linear)"/>
<path opacity="0.561" fill-rule="evenodd" clip-rule="evenodd" d="M394.106 157.374C387.036 156.787 381.761 150.556 382.349 143.486C382.634 140.061 384.235 136.951 386.858 134.731C389.48 132.511 392.812 131.444 396.238 131.729C403.308 132.317 408.581 138.547 407.995 145.619C407.46 152.05 402.255 156.996 395.995 157.393C395.375 157.432 394.744 157.427 394.106 157.374ZM388.799 137.022C386.786 138.725 385.559 141.108 385.34 143.735C384.89 149.155 388.934 153.932 394.355 154.384C399.777 154.837 404.553 150.79 405.002 145.369C405.454 139.949 401.41 135.171 395.989 134.721C395.498 134.68 395.009 134.675 394.526 134.707C392.427 134.84 390.432 135.639 388.799 137.022Z" fill="white"/>
<path opacity="0.561" d="M396.91 175.956C397.985 175.889 399.062 175.765 400.141 175.587C400.478 175.531 400.818 175.469 401.155 175.401C402.817 175.072 404.451 174.609 406.03 174.021C406.051 174.013 406.073 174.005 406.094 173.998C406.155 173.975 406.216 173.952 406.277 173.927C406.396 173.883 406.514 173.837 406.631 173.791C406.942 173.667 407.125 173.361 407.105 173.046C407.101 172.969 407.082 172.891 407.053 172.816C406.901 172.43 406.465 172.243 406.079 172.394C404.097 173.18 402.017 173.754 399.895 174.105C389.36 175.854 379.174 171.884 372.519 164.474C368.815 160.352 366.205 155.166 365.233 149.306C365.063 148.279 364.946 147.249 364.881 146.225C364.444 139.324 366.378 132.539 370.455 126.839C375.139 120.293 382.092 115.962 390.034 114.646C406.435 111.927 421.977 123.053 424.694 139.445C424.862 140.456 424.978 141.472 425.042 142.488C425.32 146.889 424.633 151.304 423.013 155.41C422.972 155.517 422.955 155.625 422.962 155.732C422.98 156.014 423.156 156.274 423.436 156.383C423.822 156.535 424.258 156.347 424.409 155.96C426.111 151.648 426.832 147.014 426.541 142.393C426.473 141.327 426.351 140.262 426.175 139.201C423.321 121.989 406.994 110.311 389.788 113.165C381.452 114.547 374.153 119.094 369.235 125.966C364.953 131.95 362.924 139.072 363.382 146.317C363.451 147.393 363.575 148.473 363.752 149.552C365.136 157.888 369.681 165.187 376.554 170.105C382.539 174.387 389.663 176.416 396.91 175.956Z" fill="white"/>
<g opacity="0.302">
<path opacity="0.302" d="M535.401 195.362C535.901 195.331 536.341 194.975 536.456 194.461C536.674 193.501 536.865 192.521 537.023 191.549C537.127 190.919 536.698 190.324 536.066 190.22C535.435 190.113 534.839 190.545 534.737 191.175C534.585 192.101 534.403 193.035 534.197 193.95C534.055 194.575 534.447 195.194 535.071 195.335C535.182 195.36 535.292 195.368 535.401 195.362Z" fill="url(#paint11_linear)"/>
<path opacity="0.302" d="M536.438 186.526C535.799 186.502 535.3 185.963 535.325 185.324C535.388 183.71 535.366 182.073 535.264 180.462C535.243 180.121 535.216 179.781 535.188 179.44C535.134 178.802 535.608 178.242 536.246 178.188C536.85 178.16 537.443 178.608 537.497 179.245C537.528 179.603 537.555 179.96 537.576 180.316C537.685 182.004 537.706 183.72 537.64 185.413C537.617 186.011 537.143 186.487 536.558 186.525C536.519 186.526 536.479 186.526 536.438 186.526ZM534.337 173.618C533.935 171.701 533.411 169.792 532.78 167.944C532.573 167.338 532.896 166.679 533.502 166.474C534.105 166.268 534.767 166.589 534.973 167.195C535.635 169.132 536.185 171.133 536.605 173.142C536.735 173.769 536.335 174.382 535.707 174.514C535.653 174.525 535.597 174.532 535.542 174.537C534.976 174.571 534.455 174.188 534.337 173.618ZM530.534 162.505C529.676 160.747 528.699 159.026 527.631 157.386C527.281 156.851 527.433 156.133 527.968 155.784C528.507 155.433 529.222 155.583 529.572 156.12C530.694 157.839 531.717 159.646 532.617 161.488C532.897 162.063 532.659 162.758 532.084 163.038C531.944 163.106 531.796 163.144 531.649 163.153C531.195 163.181 530.747 162.939 530.534 162.505ZM524.118 152.666C522.853 151.171 521.484 149.739 520.052 148.415C519.581 147.981 519.551 147.248 519.986 146.777C520.419 146.309 521.153 146.278 521.623 146.712C523.128 148.102 524.561 149.601 525.888 151.171C526.3 151.658 526.239 152.391 525.75 152.804C525.552 152.969 525.317 153.06 525.076 153.074C524.722 153.098 524.363 152.958 524.118 152.666ZM515.493 144.692C513.904 143.549 512.23 142.495 510.516 141.554C509.954 141.248 509.75 140.543 510.057 139.982C510.365 139.42 511.068 139.214 511.629 139.524C513.426 140.507 515.18 141.612 516.847 142.809C517.365 143.183 517.484 143.908 517.11 144.427C516.899 144.72 516.577 144.886 516.242 144.907C515.984 144.924 515.719 144.855 515.493 144.692ZM505.195 139.053C503.377 138.331 501.498 137.717 499.609 137.226C498.989 137.067 498.617 136.434 498.777 135.815C498.938 135.196 499.569 134.825 500.19 134.983C502.171 135.497 504.144 136.143 506.05 136.899C506.644 137.136 506.936 137.808 506.698 138.402C506.529 138.834 506.129 139.104 505.696 139.132C505.529 139.143 505.36 139.119 505.195 139.053ZM493.835 136.105C491.901 135.853 489.926 135.718 487.965 135.706C487.326 135.701 486.811 135.179 486.814 134.54C486.817 133.901 487.339 133.394 487.98 133.387C490.037 133.402 492.107 133.542 494.134 133.807C494.768 133.89 495.216 134.471 495.134 135.107C495.06 135.663 494.6 136.078 494.059 136.111C493.986 136.116 493.91 136.115 493.835 136.105ZM474.899 136.223C474.747 135.601 475.127 134.975 475.75 134.823C477.471 134.404 479.245 134.071 481.017 133.834C481.285 133.797 481.554 133.765 481.822 133.732C482.453 133.639 483.034 134.114 483.107 134.751C483.181 135.387 482.725 135.961 482.089 136.036C481.837 136.064 481.585 136.095 481.328 136.131C479.632 136.357 477.939 136.675 476.298 137.073C476.231 137.091 476.163 137.101 476.096 137.104C475.546 137.139 475.034 136.777 474.899 136.223Z" fill="url(#paint12_linear)"/>
</g>
<g opacity="0.302">
<path opacity="0.302" d="M490.104 233.422C488.087 233.524 486.046 233.503 484.039 233.361C483.401 233.316 482.919 232.763 482.965 232.124C483.009 231.485 483.568 231.011 484.202 231.05C486.117 231.185 488.064 231.205 489.987 231.108C490.626 231.075 491.171 231.567 491.203 232.206C491.234 232.84 490.751 233.381 490.119 233.422C490.114 233.422 490.109 233.422 490.104 233.422ZM494.798 231.806C494.689 231.177 495.112 230.578 495.743 230.469C497.64 230.143 499.536 229.698 501.379 229.146C501.99 228.965 502.639 229.311 502.822 229.925C503.004 230.538 502.657 231.184 502.043 231.366C500.111 231.945 498.125 232.411 496.135 232.753C496.094 232.76 496.053 232.765 496.012 232.768C495.429 232.804 494.898 232.397 494.798 231.806ZM478.021 232.564C476.038 232.175 474.062 231.661 472.148 231.039C471.54 230.839 471.208 230.186 471.405 229.578C471.603 228.969 472.255 228.638 472.866 228.834C474.691 229.428 476.577 229.917 478.467 230.289C479.096 230.413 479.505 231.022 479.381 231.65C479.278 232.177 478.831 232.551 478.319 232.584C478.222 232.588 478.121 232.584 478.021 232.564ZM506.216 228.679C505.959 228.092 506.226 227.409 506.812 227.152C508.574 226.38 510.307 225.49 511.96 224.509C512.512 224.183 513.222 224.366 513.548 224.914C513.876 225.464 513.694 226.175 513.143 226.502C511.408 227.531 509.592 228.465 507.742 229.275C507.614 229.329 507.482 229.361 507.351 229.369C506.878 229.4 506.417 229.137 506.216 228.679ZM466.509 228.81C464.681 227.959 462.888 226.986 461.176 225.919C460.633 225.579 460.468 224.865 460.806 224.321C461.145 223.778 461.86 223.611 462.403 223.95C464.035 224.97 465.747 225.897 467.489 226.711C468.069 226.981 468.319 227.669 468.049 228.251C467.863 228.647 467.481 228.891 467.071 228.918C466.885 228.929 466.69 228.896 466.509 228.81ZM456.231 222.406C454.658 221.138 453.148 219.762 451.743 218.32C451.297 217.862 451.307 217.129 451.766 216.683C452.224 216.236 452.957 216.246 453.405 216.704C454.744 218.081 456.185 219.392 457.685 220.601C458.184 221.003 458.261 221.732 457.86 222.231C457.647 222.493 457.344 222.64 457.031 222.659C456.751 222.677 456.465 222.595 456.231 222.406ZM447.781 213.723C446.557 212.114 445.421 210.416 444.404 208.679C444.082 208.125 444.268 207.416 444.82 207.093C445.373 206.77 446.083 206.958 446.405 207.508C447.374 209.166 448.457 210.785 449.625 212.318C450.014 212.827 449.915 213.555 449.404 213.942C449.217 214.086 448.998 214.163 448.777 214.176C448.405 214.201 448.026 214.043 447.781 213.723Z" fill="url(#paint13_linear)"/>
<path opacity="0.302" d="M517.575 223.3C517.799 223.285 518.019 223.206 518.21 223.059C518.994 222.453 519.765 221.821 520.499 221.18C520.98 220.759 521.031 220.028 520.611 219.545C520.19 219.064 519.459 219.013 518.976 219.433C518.274 220.044 517.54 220.648 516.792 221.226C516.285 221.618 516.193 222.346 516.585 222.852C516.829 223.168 517.204 223.323 517.575 223.3Z" fill="url(#paint14_linear)"/>
</g>
<path d="M520.651 201.457C520.796 201.253 520.796 200.979 520.651 200.775L516.516 194.953C517.787 191.87 518.574 188.562 518.8 185.138L525.076 181.739C525.295 181.62 525.415 181.375 525.374 181.128L523.973 172.677C523.933 172.43 523.739 172.236 523.493 172.195L516.456 171.004C515.137 167.836 513.324 164.958 511.125 162.45L513.161 155.606C513.232 155.367 513.143 155.107 512.94 154.962L505.974 149.978C505.77 149.832 505.496 149.832 505.292 149.977L499.472 154.112C496.387 152.841 493.08 152.053 489.655 151.828L486.257 145.551C486.137 145.332 485.891 145.212 485.644 145.253L477.194 146.655C476.947 146.694 476.754 146.889 476.712 147.136L475.521 154.171C472.352 155.49 469.475 157.304 466.969 159.502L460.124 157.467C459.884 157.396 459.625 157.485 459.478 157.687L454.495 164.654C454.35 164.858 454.348 165.131 454.493 165.336L458.629 171.157C457.359 174.24 456.57 177.547 456.344 180.973L450.07 184.37C449.849 184.491 449.729 184.736 449.77 184.983L451.172 193.433C451.213 193.68 451.405 193.873 451.652 193.916L458.688 195.107C460.007 198.275 461.822 201.152 464.019 203.659L461.985 210.503C461.913 210.744 462.002 211.002 462.206 211.149L469.172 216.133C469.375 216.279 469.648 216.279 469.852 216.134L475.674 211.999C478.757 213.269 482.066 214.057 485.49 214.283L488.889 220.558C489.007 220.778 489.253 220.899 489.5 220.857L497.95 219.456C498.197 219.415 498.391 219.222 498.433 218.975L499.623 211.94C502.792 210.62 505.669 208.805 508.177 206.609L515.022 208.642C515.261 208.715 515.521 208.626 515.666 208.422L520.651 201.457Z" fill="url(#paint15_linear)"/>
<path opacity="0.561" fill-rule="evenodd" clip-rule="evenodd" d="M486.847 191.79C484.513 191.595 482.395 190.505 480.883 188.718C479.37 186.931 478.644 184.662 478.838 182.33C479.238 177.514 483.476 173.927 488.299 174.321C493.115 174.723 496.707 178.965 496.307 183.781C496.112 186.115 495.022 188.232 493.235 189.744C491.783 190.974 490.012 191.684 488.146 191.801C487.718 191.829 487.283 191.826 486.847 191.79ZM481.147 182.521C481.005 184.237 481.539 185.905 482.652 187.221C483.764 188.535 485.322 189.337 487.038 189.481C488.756 189.621 490.424 189.089 491.738 187.975C493.052 186.864 493.854 185.304 493.998 183.59C494.292 180.047 491.649 176.925 488.107 176.63C487.787 176.604 487.471 176.6 487.16 176.62C484.024 176.819 481.415 179.298 481.147 182.521Z" fill="white"/>
<path opacity="0.561" d="M488.8 204.723C489.531 204.675 490.266 204.591 491.005 204.469C492.471 204.227 493.914 203.835 495.297 203.303C495.358 203.278 495.421 203.254 495.482 203.231C495.961 203.041 496.244 202.569 496.213 202.08C496.206 201.963 496.18 201.842 496.134 201.725C495.898 201.131 495.225 200.843 494.63 201.075C493.344 201.584 491.997 201.956 490.626 202.183C490.551 202.196 490.475 202.208 490.401 202.22C487.153 202.725 483.902 202.404 480.888 201.325C479.251 200.739 477.683 199.93 476.224 198.906C476.213 198.898 476.201 198.89 476.19 198.881C476.153 198.855 476.117 198.83 476.081 198.804C471.843 195.77 469.039 191.269 468.187 186.129C468.077 185.464 468.001 184.799 467.958 184.135C467.675 179.667 468.927 175.275 471.567 171.584C474.6 167.347 479.101 164.544 484.241 163.692C489.38 162.841 494.548 164.04 498.787 167.071C503.024 170.103 505.827 174.604 506.68 179.746C506.789 180.4 506.863 181.057 506.906 181.714C507.086 184.565 506.641 187.422 505.592 190.08C505.528 190.245 505.503 190.413 505.514 190.578C505.541 191.012 505.813 191.413 506.244 191.582C506.84 191.816 507.512 191.526 507.748 190.93C508.922 187.956 509.419 184.757 509.218 181.571C509.172 180.833 509.088 180.098 508.966 179.367C508.013 173.615 504.877 168.578 500.134 165.186C495.393 161.795 489.617 160.446 483.863 161.405C478.112 162.358 473.075 165.494 469.683 170.237C466.728 174.364 465.328 179.278 465.646 184.277C465.692 185.019 465.778 185.764 465.9 186.508C467.748 197.643 477.767 205.423 488.8 204.723Z" fill="white"/>
<path d="M97.6067 448.726C97.6067 452.82 100.96 456.172 105.057 456.172H507.999C512.099 456.172 515.452 452.82 515.452 448.726L518.805 217.167C518.805 213.073 513.981 205.079 505.14 205.68L111.34 195.49C106.199 195.357 101.227 197.337 97.5853 200.966C93.944 204.596 91.9512 209.558 92.0731 214.695L97.6067 448.726Z" fill="url(#paint16_linear)"/>
<path d="M104.963 441.585C104.963 445.462 108.135 448.634 112.012 448.634H498.283C502.16 448.634 505.333 445.462 505.333 441.585L508.497 231.373C508.123 218.723 497.033 214.176 490.31 214.444L112.888 204.319C109.277 204.222 105.784 205.614 103.224 208.167C100.667 210.718 99.2586 214.211 99.3492 217.824L104.963 441.585Z" fill="url(#paint17_linear)"/>
<path opacity="0.329" d="M115.68 433.367C115.68 436.873 118.628 439.744 122.231 439.744H481.223C484.826 439.744 487.774 436.873 487.774 433.367L490.714 243.236C490.368 231.795 480.061 227.682 473.813 227.924L123.046 218.766C119.688 218.679 116.442 219.937 114.064 222.246C111.688 224.555 110.378 227.714 110.464 230.981L115.68 433.367Z" fill="white"/>
<path d="M501.158 312.83C501.153 312.83 501.148 312.83 501.144 312.83C500.572 312.824 500.116 312.463 500.126 312.022L500.376 298.866C500.384 298.431 500.845 298.082 501.407 298.082C501.414 298.082 501.419 298.082 501.423 298.082C501.993 298.087 502.449 298.45 502.441 298.891L502.191 312.045C502.183 312.481 501.722 312.83 501.158 312.83Z" fill="white"/>
<path d="M501.773 280.596C501.768 280.596 501.761 280.596 501.756 280.596C501.186 280.589 500.73 280.225 500.738 279.785L501.697 229.403C501.679 226.409 500.503 224.021 498.199 222.317C493.897 219.137 487.069 219.3 486.781 219.309L366.148 216.814C365.579 216.803 365.127 216.436 365.144 215.996C365.159 215.556 365.597 215.181 366.205 215.22L486.764 217.717C487.515 217.682 494.785 217.585 499.627 221.166C502.351 223.18 503.742 225.955 503.764 229.41L502.805 279.81C502.797 280.246 502.336 280.596 501.773 280.596Z" fill="white"/>
<path d="M82.1358 472.945H527.272C527.784 472.945 528.204 472.527 528.204 472.015V455.979C528.204 455.467 527.784 455.047 527.272 455.047H82.1358C81.6236 455.047 81.2053 455.467 81.2053 455.979V472.015C81.2053 472.527 81.6236 472.945 82.1358 472.945Z" fill="url(#paint18_linear)"/>
<path d="M314.715 324.991C314.033 330.206 309.261 333.88 304.041 333.197C304.041 333.197 290.828 331.469 283.745 330.538C278.572 329.858 275.39 335.817 278.378 339.703L289.376 354.003C289.834 354.598 290.688 354.709 291.283 354.252L299.999 347.551C300.592 347.095 300.471 347.011 301.124 342.026C301.467 339.383 303.887 337.486 306.569 337.84C309.224 338.184 311.105 340.616 310.756 343.285L309.882 349.979C309.713 351.265 309.054 352.409 308.024 353.2C293.494 364.371 294.081 364.052 292.568 364.714C288.956 366.261 285.173 365.611 282.507 363.589L269.863 353.993C261.039 347.296 256.388 336.434 257.85 325.249C258.967 316.723 266.806 310.692 275.335 311.807C280.096 312.43 285.12 312.588 290.613 316.759C294.066 319.378 298.164 321.062 302.466 321.626L313.209 323.03C314.156 323.151 314.842 324.021 314.715 324.991Z" fill="white"/>
<path d="M293.167 372.712L298.964 380.253C300.335 382.036 299.999 384.604 298.216 385.975C296.428 387.35 293.869 387.015 292.494 385.227L272.853 359.679L280.862 365.757C282.544 367.03 284.539 367.882 286.836 368.182C286.851 368.184 287.297 368.237 287.311 368.234C287.335 368.238 287.068 368.04 293.167 372.712Z" fill="white"/>
<path d="M317.149 377.207C317.721 381.496 312.807 384.325 309.38 381.702C298.228 373.161 297.079 372.281 291.427 367.952C294.583 367.219 290.184 366.948 309.372 369.456L315.288 373.988C316.318 374.778 316.979 375.92 317.149 377.207Z" fill="white"/>
<path d="M326.324 360.567C328.978 364.019 326.093 368.9 321.843 368.344C285.075 363.538 318.322 367.882 297.011 365.098L307.903 356.725L323.102 358.712C324.389 358.879 325.533 359.539 326.324 360.567Z" fill="white"/>
<path d="M322.145 334.373C322.77 329.151 327.502 325.425 332.729 326.051C332.729 326.051 345.96 327.636 353.052 328.489C358.233 329.114 361.35 323.121 358.32 319.267L347.168 305.088C346.703 304.497 345.847 304.396 345.258 304.859L336.615 311.654C336.027 312.116 336.149 312.199 335.551 317.191C335.236 319.838 332.836 321.76 330.151 321.436C327.493 321.121 325.585 318.709 325.905 316.036L326.706 309.333C326.861 308.045 327.508 306.895 328.529 306.092C342.937 294.765 342.354 295.09 343.859 294.412C347.454 292.825 351.244 293.435 353.932 295.427L366.679 304.885C375.575 311.486 380.344 322.297 379.003 333.498C377.979 342.035 370.206 348.151 361.666 347.128C356.897 346.558 351.873 346.454 346.334 342.342C342.853 339.761 338.738 338.121 334.43 337.605L323.671 336.317C322.724 336.206 322.029 335.343 322.145 334.373Z" fill="white"/>
<path d="M343.174 286.42L337.295 278.943C335.905 277.175 336.213 274.603 337.981 273.213C339.754 271.819 342.317 272.126 343.711 273.899L363.628 299.232L355.553 293.242C353.858 291.987 351.854 291.157 349.554 290.882C349.539 290.88 349.092 290.831 349.077 290.834C349.054 290.832 349.323 291.026 343.174 286.42Z" fill="white"/>
<path d="M319.144 282.185C318.526 277.903 323.409 275.021 326.864 277.606C338.108 286.026 339.267 286.893 344.965 291.161C341.818 291.928 346.219 292.151 327.005 289.851L321.04 285.384C320.002 284.606 319.328 283.47 319.144 282.185Z" fill="white"/>
<path d="M310.15 298.924C307.459 295.501 310.291 290.59 314.546 291.099C351.364 295.506 318.072 291.523 339.412 294.075L328.612 302.566L313.392 300.744C312.103 300.591 310.952 299.944 310.15 298.924Z" fill="white"/>
<path d="M122.668 325.572C121.958 353.362 119.655 449.218 120.754 483.187C120.871 486.787 123.844 489.674 127.554 489.793C145.899 490.376 198.674 491.852 228.68 490.63C234.93 490.376 239.901 485.465 240.031 479.396C240.655 450.228 242.03 368.186 238.761 330.604C238.369 326.101 234.726 322.514 230.09 322.064C210.111 320.126 157.047 315.386 131.123 317.018C126.447 317.312 122.785 321.029 122.668 325.572Z" fill="url(#paint19_linear)"/>
<path d="M130.122 334.207C129.12 356.967 125.96 432.682 126.963 460.681C127.109 464.773 130.434 468.082 134.647 468.321C151.996 469.306 196.492 471.478 221.936 469.502C226.518 469.144 230.113 465.551 230.362 461.097C231.651 437.878 235.354 367.376 234.392 339.691C234.239 335.274 230.713 331.668 226.175 331.272C207.407 329.637 159.206 325.749 137.584 326.893C133.524 327.107 130.296 330.266 130.122 334.207Z" fill="url(#paint20_linear)"/>
<path opacity="0.329" d="M132.503 338.137C131.556 359.596 128.568 430.985 129.517 457.384C129.655 461.242 132.798 464.363 136.78 464.589C153.18 465.516 195.24 467.565 219.293 465.701C223.624 465.365 227.023 461.975 227.257 457.777C228.476 435.883 231.976 369.409 231.067 343.306C230.922 339.143 227.588 335.742 223.3 335.37C205.559 333.828 159.995 330.161 139.555 331.239C135.719 331.442 132.668 334.421 132.503 338.137Z" fill="white"/>
<path opacity="0.502" d="M168.007 321.874C168.007 322.727 168.692 323.43 169.57 323.474C173.903 323.695 186.11 324.318 191.564 324.624C192.64 324.685 193.484 323.748 193.28 322.72L193.246 322.545C193.106 321.845 192.508 321.318 191.775 321.253C188.087 320.925 176.961 320.016 169.589 320.271C168.703 320.302 168.007 321.014 168.007 321.874Z" fill="white"/>
<path d="M203.675 367.944L200.955 365.709C200.283 365.159 199.25 365.228 198.647 365.867L155.313 411.753C154.688 412.415 154.743 413.402 155.434 413.953L158.241 416.197C158.932 416.748 159.998 416.659 160.62 415.997L203.802 370.096C204.403 369.457 204.346 368.494 203.675 367.944Z" fill="white"/>
<path d="M183.914 374.877V376.557L159.687 402.419H155.887C154.382 402.419 153.162 401.747 153.162 400.241V381.656C153.162 380.151 154.382 378.863 155.887 378.863H166.902V378.988C171.482 376.799 175.876 374.615 180.337 372.425C181.18 372.015 182.098 372.068 182.892 372.563C183.692 373.062 183.914 373.935 183.914 374.877Z" fill="white"/>
<path d="M173.885 406.349L183.914 395.531V407.018C183.914 407.96 183.613 408.833 182.814 409.334C182.019 409.828 181.052 409.88 180.209 409.465C178.089 408.428 175.999 407.387 173.885 406.349Z" fill="white"/>
<path d="M203.166 391.554C203.166 397.772 200.887 403.461 197.126 407.833C196.352 408.729 194.983 408.797 194.146 407.955L194.062 407.876C193.321 407.128 193.264 405.934 193.952 405.134C197.099 401.493 199.005 396.746 199.005 391.554C199.005 388.181 198.199 384.997 196.768 382.181L199.772 378.988C201.93 382.682 203.166 386.975 203.166 391.554Z" fill="white"/>
<path d="M196.231 391.554C196.231 395.852 194.726 399.793 192.216 402.893C191.464 403.818 190.069 403.878 189.222 403.034L189.211 403.02C188.47 402.282 188.433 401.109 189.086 400.294C191.011 397.904 192.169 394.862 192.169 391.554C192.169 390.202 191.974 388.896 191.61 387.659L194.726 384.35C195.695 386.554 196.231 388.991 196.231 391.554Z" fill="white"/>
<path d="M423.377 402.203C422.97 420.816 421.652 485.024 422.282 507.776C422.347 510.187 424.05 512.122 426.175 512.199C436.68 512.59 466.903 513.579 484.087 512.761C487.665 512.591 490.511 509.301 490.585 505.236C490.943 485.699 491.732 430.747 489.859 405.572C489.633 402.557 487.548 400.154 484.894 399.853C473.453 398.555 443.065 395.38 428.219 396.473C425.542 396.669 423.444 399.158 423.377 402.203Z" fill="url(#paint21_linear)"/>
<path d="M427.645 407.987C427.072 423.23 425.262 473.947 425.837 492.7C425.921 495.44 427.825 497.657 430.238 497.819C440.172 498.477 465.653 499.932 480.225 498.607C482.848 498.37 484.907 495.961 485.048 492.978C485.786 477.427 487.907 430.203 487.356 411.659C487.268 408.701 485.249 406.285 482.652 406.02C471.904 404.925 444.301 402.32 431.919 403.087C429.594 403.23 427.746 405.347 427.645 407.987Z" fill="url(#paint22_linear)"/>
<path opacity="0.329" d="M429.735 411.243C429.203 425.383 427.524 472.428 428.057 489.824C428.135 492.367 429.9 494.422 432.14 494.572C441.354 495.183 464.991 496.532 478.507 495.305C480.941 495.083 482.851 492.85 482.983 490.083C483.668 475.656 485.634 431.85 485.124 414.65C485.042 411.905 483.169 409.665 480.76 409.419C470.789 408.403 445.185 405.986 433.698 406.697C431.542 406.83 429.828 408.794 429.735 411.243Z" fill="white"/>
<path opacity="0.502" d="M449.342 399.724V399.726C449.342 400.296 449.734 400.767 450.236 400.796C452.718 400.944 459.707 401.361 462.832 401.567C463.447 401.608 463.93 400.979 463.813 400.292L463.793 400.175C463.714 399.706 463.372 399.352 462.952 399.309C460.84 399.09 454.469 398.481 450.248 398.652C449.741 398.672 449.342 399.149 449.342 399.724Z" fill="white"/>
<g clip-path="url(#clip0)">
<path d="M445.452 465.976C445.452 465.976 445.452 465.975 445.452 465.974V465.976ZM450.389 441.384C452.216 440.16 454.3 439.527 456.417 439.556C462.183 439.634 466.875 444.387 466.875 450.152C466.875 452.307 466.199 454.409 464.92 456.229C464.467 456.875 464.623 457.766 465.269 458.219C465.518 458.394 465.804 458.478 466.088 458.478C466.537 458.478 466.98 458.267 467.258 457.871C468.876 455.567 469.731 452.898 469.731 450.152C469.731 446.591 468.352 443.234 465.849 440.7C463.348 438.169 460.012 436.748 456.455 436.7C453.758 436.663 451.109 437.463 448.799 439.012C448.144 439.451 447.968 440.338 448.408 440.993C448.847 441.648 449.734 441.823 450.389 441.384ZM474.383 472.842C474.104 473.12 473.738 473.26 473.373 473.26C473.007 473.26 472.642 473.12 472.363 472.842L462.401 462.879C461.191 464.375 460.285 466.142 459.752 468.058C459.671 468.35 459.568 468.635 459.447 468.906C458.257 471.555 455.634 473.26 452.755 473.26C452.74 473.26 452.725 473.26 452.71 473.26C448.764 473.236 445.512 469.92 445.452 465.976C445.459 463.489 447.479 461.406 449.966 461.406C450.375 461.406 450.758 461.245 451.044 460.954C451.313 460.68 451.457 460.323 451.45 459.95C451.442 459.53 451.251 459.137 450.925 458.871C449.444 457.661 448.594 455.876 448.594 453.975V449.909C448.594 449.9 448.618 449.377 448.648 449.127L446.24 446.718C445.884 447.752 445.688 448.84 445.666 449.936C445.651 450.715 445.014 451.335 444.239 451.335C444.229 451.335 444.22 451.335 444.21 451.335C443.421 451.319 442.795 450.667 442.81 449.879C442.847 448.031 443.273 446.201 444.048 444.527L438.658 439.137C438.101 438.579 438.101 437.675 438.658 437.117C439.216 436.559 440.12 436.559 440.678 437.117L474.383 470.822C474.94 471.38 474.94 472.284 474.383 472.842ZM460.371 460.85L451.451 451.929V453.975C451.451 455.015 451.918 455.994 452.732 456.659C453.708 457.457 454.282 458.636 454.306 459.895C454.328 461.042 453.894 462.128 453.083 462.954C452.268 463.786 451.131 464.262 449.966 464.262C449.05 464.262 448.311 465.06 448.309 465.976C448.352 468.373 450.327 470.389 452.728 470.403C452.737 470.403 452.746 470.404 452.755 470.404C454.511 470.404 456.112 469.359 456.841 467.736C456.903 467.596 456.957 467.447 457 467.293C457.665 464.9 458.821 462.698 460.371 460.85ZM445.452 465.974C445.452 465.973 445.452 465.972 445.452 465.974V465.974ZM463.339 453.043C463.743 452.103 463.947 451.106 463.947 450.08C463.947 448.049 463.161 446.135 461.733 444.689C460.307 443.246 458.404 442.436 456.376 442.408C455.226 442.393 454.113 442.626 453.071 443.101C452.354 443.429 452.038 444.276 452.365 444.993C452.692 445.711 453.54 446.027 454.257 445.7C454.912 445.401 455.613 445.254 456.337 445.264C458.958 445.3 461.091 447.46 461.091 450.08C461.091 450.717 460.964 451.335 460.714 451.917C460.403 452.642 460.739 453.482 461.464 453.793C461.648 453.871 461.838 453.909 462.026 453.909C462.58 453.909 463.107 453.584 463.339 453.043Z" fill="white"/>
</g>
<path d="M175.95 324.637C167.384 344.403 160.467 352.968 155.196 350.332C149.926 347.697 145.314 335.508 141.36 313.768C160.808 307.918 172.338 311.541 175.95 324.637Z" fill="url(#paint23_linear)"/>
<path d="M131.218 508.619C130.502 512.672 129.968 516.705 129.618 520.717C129.412 523.069 131.225 525.112 133.585 525.21C141.6 525.544 158.745 526.193 164.898 525.918C165.821 525.877 166.426 524.93 166.085 524.07C165.797 523.349 165.243 522.767 164.54 522.443L136.218 509.427L131.218 508.619Z" fill="url(#paint24_linear)"/>
<path d="M130.339 505.045L131.202 512.318C134.509 513.857 137.292 513.76 139.55 512.028L137.496 503.922L130.339 505.045Z" fill="url(#paint25_linear)"/>
<path d="M130.986 368.316C130.614 370.215 128.987 463.092 138.914 504.714C139.076 505.393 138.732 506.093 138.086 506.356C136.563 506.979 133.578 507.879 130 508C128.893 508.038 127.898 507.318 127.587 506.254C124.748 496.597 111.151 448.214 109.376 401.995C108.055 367.563 108.055 366.979 109.376 400.236L110.538 368.313L130.986 368.316Z" fill="url(#paint26_linear)"/>
<path d="M98.641 511.791C97.5013 513.836 96.3798 517.578 95.2763 523.016C94.9766 524.488 96.0059 525.9 97.5013 526.046C100.15 526.307 104.222 526.641 107.486 526.618C108.992 526.608 110.166 525.299 109.985 523.805C109.623 520.827 108.496 515.943 105.018 512.135L98.641 511.791Z" fill="url(#paint27_linear)"/>
<path d="M97.139 502.436L99.1548 513.434C100.484 514.422 102.463 514.559 105.092 513.843L104.13 502.008L97.139 502.436Z" fill="url(#paint28_linear)"/>
<path d="M91.6928 371.167C83.5719 420.169 93.4533 492.28 96.7866 506.394C96.9908 507.258 97.6875 507.92 98.5636 508.065C100.051 508.312 102.5 508.513 104.914 507.812C105.746 507.569 106.33 506.82 106.365 505.954C106.811 494.544 106.008 424.493 113.572 396.809C113.956 395.406 114.812 394.182 115.998 393.339L130.683 382.899L131.808 366.025L91.6928 371.167Z" fill="url(#paint29_linear)"/>
<path d="M144.326 280.166C124.56 278.189 107.202 279.703 92.2494 284.705C87.4141 312.919 86.9908 343.298 90.9813 375.842C103.539 379.136 116.902 378.128 131.068 372.822C133.157 361.029 139.069 338.537 148.809 305.348C160.698 303.873 151.795 280.913 144.326 280.166Z" fill="url(#paint30_linear)"/>
<path d="M123.275 327.629C103.57 336.77 91.4194 338.459 86.8229 332.702C84.8763 330.263 84.9553 327.278 85.3967 324.856C77.7468 320.994 70.4346 319.942 66.1395 319.625C65.013 325.528 66.3783 332.914 70.26 339.014C79.6292 353.736 98.5159 352.292 126.92 334.681L123.275 327.629Z" fill="url(#paint31_linear)"/>
<path d="M133.02 334.835L143.509 298.203C143.63 297.788 143.984 297.485 144.413 297.433C146.314 297.213 151.821 296.59 158.178 296.052C165.838 295.404 174.731 294.879 180.046 295.325C180.802 295.39 181.258 296.188 180.922 296.869C177.9 302.982 165.467 327.855 159.242 336.002C159.036 336.272 158.717 336.431 158.377 336.427L134.041 336.202C133.333 336.195 132.826 335.515 133.02 334.835Z" fill="url(#paint32_linear)"/>
<path d="M123.72 336.931C122.426 331.613 122.04 328.01 122.562 326.124C123.345 323.293 124.861 319.655 129.916 320.464C133.284 321.002 136.956 321.982 140.93 323.4C140.729 325.859 139.349 326.691 136.788 325.898L139.17 327.741C138.944 329.709 137.748 330.167 135.584 329.116L137.801 331.56C136.872 333.176 135.612 333.466 134.02 332.43C131.633 330.874 130.489 337.891 123.72 336.931Z" fill="url(#paint33_linear)"/>
<path d="M175.502 325.062C179.423 321.243 181.663 318.397 182.223 316.521C183.064 313.707 183.712 309.818 179.002 307.819C175.859 306.487 172.23 305.365 168.107 304.456C166.973 306.645 167.699 308.084 170.291 308.772L167.294 309.069C166.441 310.856 167.21 311.878 169.601 312.137L166.426 313.031C166.353 314.894 167.267 315.81 169.166 315.777C172.014 315.727 169.255 322.28 175.502 325.062Z" fill="url(#paint34_linear)"/>
<path d="M121.749 260.401L114.007 282.791C113.878 283.163 114.03 283.573 114.374 283.763C116.484 284.93 124.087 288.303 133.251 282.493C134.206 281.888 134.855 280.9 135 279.78L137.508 260.401H121.749Z" fill="url(#paint35_linear)"/>
<path d="M143.389 246.019C145.039 257.987 144.78 265.869 142.616 269.665C139.369 275.36 129.634 271.299 122.803 263.203L122.712 244.766L143.389 246.019Z" fill="url(#paint36_linear)"/>
<path d="M126.105 255.375C126.513 255.349 126.8 254.965 126.707 254.568C126.426 253.356 125.957 250.923 126.213 249.038C125.482 248.074 126.961 247.809 130.65 248.241C136.184 248.886 144.463 249.777 147.645 246.03C150.747 242.379 150.553 230.265 140.935 236.335C140.569 236.566 140.082 236.396 139.952 235.983C139.394 234.201 137.641 230.284 133.101 230.606C128.852 230.905 127.46 233.428 127.015 234.795C126.885 235.197 126.418 235.375 126.055 235.158C124.339 234.13 120.023 232.205 116.291 235.989C113.218 239.107 113.547 241.63 114.176 243.035C114.379 243.491 114.033 243.992 113.536 243.964C112.187 243.891 110.243 244.346 109.359 247.244C108.137 251.251 112.654 252.514 113.97 252.793C114.186 252.839 114.367 252.985 114.45 253.189C115.087 254.769 118.071 261.575 123.076 264.099C123.509 264.318 124.023 264 124.033 263.514L124.181 256.108C124.188 255.765 124.458 255.484 124.8 255.461L126.105 255.375Z" fill="url(#paint37_linear)"/>
<path d="M126.671 256.641C123.835 252.653 121.877 251.702 120.798 253.791C119.18 256.923 124.173 260.423 127.363 260.204L126.671 256.641Z" fill="url(#paint38_linear)"/>
<path d="M101.583 308.267L92.2495 284.705C77.4258 294.777 68.6461 306.238 65.9123 319.089C65.8398 319.425 66.0819 319.749 66.4244 319.779C70.8266 320.157 78.2591 321.346 85.5417 325.022C86.6616 318.86 92.0091 313.273 101.583 308.267Z" fill="url(#paint39_linear)"/>
<path d="M138.476 254.683L137.948 253.982C138.018 253.929 139.682 252.676 141.36 252.923C142.104 253.033 142.724 253.422 143.201 254.074L142.491 254.593C142.154 254.13 141.74 253.868 141.23 253.792C139.939 253.603 138.491 254.672 138.476 254.683Z" fill="url(#paint40_linear)"/>
<path d="M138.7 254.028C138.7 256.419 137.172 258.357 135.286 258.357C133.401 258.357 131.872 256.419 131.872 254.028C131.872 251.638 133.401 249.7 135.286 249.7C137.172 249.7 138.7 251.638 138.7 254.028Z" fill="url(#paint41_linear)"/>
<path d="M147.478 254.028C147.478 256.419 146.36 258.357 144.98 258.357C143.598 258.357 142.48 256.419 142.48 254.028C142.48 251.638 143.598 249.7 144.98 249.7C146.36 249.7 147.478 251.638 147.478 254.028Z" fill="url(#paint42_linear)"/>
<defs>
<linearGradient id="paint0_linear" x1="385.114" y1="750.065" x2="53.4034" y2="392.028" gradientUnits="userSpaceOnUse">
<stop stop-color="#FC8E9E"/>
<stop offset="1" stop-color="#F895E7"/>
</linearGradient>
<linearGradient id="paint1_linear" x1="342.314" y1="403.547" x2="288.667" y2="218.412" gradientUnits="userSpaceOnUse">
<stop stop-color="#E65B6F"/>
<stop offset="1" stop-color="#FE8596"/>
</linearGradient>
<linearGradient id="paint2_linear" x1="278.986" y1="118.937" x2="275.75" y2="548.315" gradientUnits="userSpaceOnUse">
<stop stop-color="#CB236D"/>
<stop offset="1" stop-color="#4C246D"/>
</linearGradient>
<linearGradient id="paint3_linear" x1="100.501" y1="373.125" x2="19.26" y2="94.5868" gradientUnits="userSpaceOnUse">
<stop offset="0.01" stop-color="#BD6F03"/>
<stop offset="1" stop-color="#FBC171"/>
</linearGradient>
<linearGradient id="paint4_linear" x1="306.713" y1="101.634" x2="-27.5409" y2="776.828" gradientUnits="userSpaceOnUse">
<stop stop-color="#CB236D"/>
<stop offset="1" stop-color="#4C246D"/>
</linearGradient>
<linearGradient id="paint5_linear" x1="414.605" y1="150.082" x2="414.605" y2="70.1879" gradientUnits="userSpaceOnUse">
<stop stop-color="#B37CFF"/>
<stop offset="1" stop-color="#F895E7"/>
</linearGradient>
<linearGradient id="paint6_linear" x1="353.759" y1="83.7391" x2="347.982" y2="84.1055" gradientUnits="userSpaceOnUse">
<stop stop-color="#B37CFF"/>
<stop offset="1" stop-color="#F895E7"/>
</linearGradient>
<linearGradient id="paint7_linear" x1="324.487" y1="132.762" x2="320.42" y2="133.019" gradientUnits="userSpaceOnUse">
<stop stop-color="#B37CFF"/>
<stop offset="1" stop-color="#F895E7"/>
</linearGradient>
<linearGradient id="paint8_linear" x1="377.487" y1="220.054" x2="377.487" y2="146.183" gradientUnits="userSpaceOnUse">
<stop stop-color="#B37CFF"/>
<stop offset="1" stop-color="#F895E7"/>
</linearGradient>
<linearGradient id="paint9_linear" x1="444.765" y1="197.902" x2="439.038" y2="198.265" gradientUnits="userSpaceOnUse">
<stop stop-color="#B37CFF"/>
<stop offset="1" stop-color="#F895E7"/>
</linearGradient>
<linearGradient id="paint10_linear" x1="261.779" y1="-128.55" x2="671.534" y2="422.703" gradientUnits="userSpaceOnUse">
<stop stop-color="#E79524"/>
<stop offset="1" stop-color="#FBC171"/>
</linearGradient>
<linearGradient id="paint11_linear" x1="536.859" y1="189.791" x2="534.014" y2="189.971" gradientUnits="userSpaceOnUse">
<stop stop-color="#B37CFF"/>
<stop offset="1" stop-color="#F895E7"/>
</linearGradient>
<linearGradient id="paint12_linear" x1="506.271" y1="186.526" x2="506.271" y2="133.388" gradientUnits="userSpaceOnUse">
<stop stop-color="#B37CFF"/>
<stop offset="1" stop-color="#F895E7"/>
</linearGradient>
<linearGradient id="paint13_linear" x1="478.978" y1="233.486" x2="478.978" y2="206.935" gradientUnits="userSpaceOnUse">
<stop stop-color="#B37CFF"/>
<stop offset="1" stop-color="#F895E7"/>
</linearGradient>
<linearGradient id="paint14_linear" x1="520.669" y1="218.753" x2="516.286" y2="219.03" gradientUnits="userSpaceOnUse">
<stop stop-color="#B37CFF"/>
<stop offset="1" stop-color="#F895E7"/>
</linearGradient>
<linearGradient id="paint15_linear" x1="288.159" y1="-148.066" x2="697.915" y2="403.187" gradientUnits="userSpaceOnUse">
<stop stop-color="#C87809"/>
<stop offset="1" stop-color="#FBC171"/>
</linearGradient>
<linearGradient id="paint16_linear" x1="87.3416" y1="206.36" x2="483.634" y2="-55.9546" gradientUnits="userSpaceOnUse">
<stop stop-color="#2B3582"/>
<stop offset="1" stop-color="#150E42"/>
</linearGradient>
<linearGradient id="paint17_linear" x1="508.068" y1="205.388" x2="519.351" y2="592.81" gradientUnits="userSpaceOnUse">
<stop stop-color="#53D8FF"/>
<stop offset="1" stop-color="#3840F7"/>
</linearGradient>
<linearGradient id="paint18_linear" x1="86.8019" y1="497.587" x2="14.6789" y2="193.068" gradientUnits="userSpaceOnUse">
<stop stop-color="#2B3582"/>
<stop offset="1" stop-color="#150E42"/>
</linearGradient>
<linearGradient id="paint19_linear" x1="321.42" y1="352.962" x2="205.807" y2="537.943" gradientUnits="userSpaceOnUse">
<stop stop-color="#2B3582"/>
<stop offset="1" stop-color="#150E42"/>
</linearGradient>
<linearGradient id="paint20_linear" x1="273.16" y1="409.016" x2="38.5758" y2="709.107" gradientUnits="userSpaceOnUse">
<stop stop-color="#53D8FF"/>
<stop offset="1" stop-color="#3840F7"/>
</linearGradient>
<linearGradient id="paint21_linear" x1="481.897" y1="390.026" x2="586.774" y2="582.44" gradientUnits="userSpaceOnUse">
<stop stop-color="#2B3582"/>
<stop offset="1" stop-color="#150E42"/>
</linearGradient>
<linearGradient id="paint22_linear" x1="514.594" y1="457.264" x2="365.899" y2="647.483" gradientUnits="userSpaceOnUse">
<stop stop-color="#53D8FF"/>
<stop offset="1" stop-color="#3840F7"/>
</linearGradient>
<linearGradient id="paint23_linear" x1="141.36" y1="351.059" x2="175.95" y2="351.059" gradientUnits="userSpaceOnUse">
<stop stop-color="#F9B776"/>
<stop offset="1" stop-color="#F47960"/>
</linearGradient>
<linearGradient id="paint24_linear" x1="165.883" y1="456.197" x2="166.614" y2="536.577" gradientUnits="userSpaceOnUse">
<stop stop-color="#CB236D"/>
<stop offset="1" stop-color="#4C246D"/>
</linearGradient>
<linearGradient id="paint25_linear" x1="130.339" y1="503.631" x2="139.55" y2="503.631" gradientUnits="userSpaceOnUse">
<stop stop-color="#F9B776"/>
<stop offset="1" stop-color="#F47960"/>
</linearGradient>
<linearGradient id="paint26_linear" x1="101.392" y1="538.882" x2="106.962" y2="389.436" gradientUnits="userSpaceOnUse">
<stop stop-color="#CB236D"/>
<stop offset="1" stop-color="#4C246D"/>
</linearGradient>
<linearGradient id="paint27_linear" x1="109.701" y1="456.159" x2="110.44" y2="537.387" gradientUnits="userSpaceOnUse">
<stop stop-color="#CB236D"/>
<stop offset="1" stop-color="#4C246D"/>
</linearGradient>
<linearGradient id="paint28_linear" x1="97.1392" y1="501.695" x2="105.093" y2="501.695" gradientUnits="userSpaceOnUse">
<stop stop-color="#F9B776"/>
<stop offset="1" stop-color="#F47960"/>
</linearGradient>
<linearGradient id="paint29_linear" x1="83.8771" y1="541.837" x2="90.1545" y2="373.394" gradientUnits="userSpaceOnUse">
<stop stop-color="#CB236D"/>
<stop offset="1" stop-color="#4C246D"/>
</linearGradient>
<linearGradient id="paint30_linear" x1="97.0172" y1="283.812" x2="51.5511" y2="403.423" gradientUnits="userSpaceOnUse">
<stop stop-color="#FDF53F"/>
<stop offset="1" stop-color="#D93C65"/>
</linearGradient>
<linearGradient id="paint31_linear" x1="66.4942" y1="319.392" x2="126.921" y2="319.392" gradientUnits="userSpaceOnUse">
<stop stop-color="#F9B776"/>
<stop offset="1" stop-color="#F47960"/>
</linearGradient>
<linearGradient id="paint32_linear" x1="114.233" y1="292.352" x2="133.737" y2="338.111" gradientUnits="userSpaceOnUse">
<stop stop-color="#2B3582"/>
<stop offset="1" stop-color="#150E42"/>
</linearGradient>
<linearGradient id="paint33_linear" x1="122.916" y1="320.048" x2="140.931" y2="320.048" gradientUnits="userSpaceOnUse">
<stop stop-color="#F9B776"/>
<stop offset="1" stop-color="#F47960"/>
</linearGradient>
<linearGradient id="paint34_linear" x1="184.927" y1="310.496" x2="170.366" y2="301.366" gradientUnits="userSpaceOnUse">
<stop stop-color="#F9B776"/>
<stop offset="1" stop-color="#F47960"/>
</linearGradient>
<linearGradient id="paint35_linear" x1="114.044" y1="260.101" x2="137.507" y2="260.101" gradientUnits="userSpaceOnUse">
<stop stop-color="#F9B776"/>
<stop offset="1" stop-color="#F47960"/>
</linearGradient>
<linearGradient id="paint36_linear" x1="130.052" y1="271.055" x2="112.323" y2="248.759" gradientUnits="userSpaceOnUse">
<stop stop-color="#F9B776"/>
<stop offset="1" stop-color="#F47960"/>
</linearGradient>
<linearGradient id="paint37_linear" x1="135.93" y1="208.133" x2="157.932" y2="243.943" gradientUnits="userSpaceOnUse">
<stop stop-color="#2B3582"/>
<stop offset="1" stop-color="#150E42"/>
</linearGradient>
<linearGradient id="paint38_linear" x1="128.678" y1="268.053" x2="115.638" y2="251.656" gradientUnits="userSpaceOnUse">
<stop stop-color="#F9B776"/>
<stop offset="1" stop-color="#F47960"/>
</linearGradient>
<linearGradient id="paint39_linear" x1="78.6171" y1="276.455" x2="30.9405" y2="401.882" gradientUnits="userSpaceOnUse">
<stop stop-color="#FDF53F"/>
<stop offset="1" stop-color="#D93C65"/>
</linearGradient>
<linearGradient id="paint40_linear" x1="143.225" y1="254.372" x2="140.302" y2="256.609" gradientUnits="userSpaceOnUse">
<stop stop-color="#2B3582"/>
<stop offset="1" stop-color="#150E42"/>
</linearGradient>
<linearGradient id="paint41_linear" x1="158.747" y1="242.263" x2="116.029" y2="274.949" gradientUnits="userSpaceOnUse">
<stop stop-color="#2B3582"/>
<stop offset="1" stop-color="#150E42"/>
</linearGradient>
<linearGradient id="paint42_linear" x1="165.641" y1="244.018" x2="128.374" y2="272.533" gradientUnits="userSpaceOnUse">
<stop stop-color="#2B3582"/>
<stop offset="1" stop-color="#150E42"/>
</linearGradient>
<clipPath id="clip0">
<rect width="36.5609" height="36.5611" fill="white" transform="translate(438.24 436.699)"/>
</clipPath>
</defs>
</svg>
