<svg width="65" height="65" viewBox="0 0 65 65" fill="none" xmlns="http://www.w3.org/2000/svg">
<path d="M24.3751 5.41666C17.2792 5.41666 11.5105 11.1854 11.5105 18.2812C11.5105 25.2417 16.9542 30.875 24.0501 31.1187C24.2668 31.0917 24.4834 31.0917 24.6459 31.1187C24.7001 31.1187 24.7272 31.1187 24.7813 31.1187C24.8084 31.1187 24.8084 31.1187 24.8355 31.1187C31.7688 30.875 37.2126 25.2417 37.2397 18.2812C37.2397 11.1854 31.4709 5.41666 24.3751 5.41666Z" fill="#FBC36E"/>
<path d="M38.1333 38.3227C30.5771 33.2852 18.2542 33.2852 10.6438 38.3227C7.20418 40.6248 5.30835 43.7394 5.30835 47.0706C5.30835 50.4019 7.20418 53.4894 10.6167 55.7644C14.4083 58.3102 19.3917 59.5831 24.375 59.5831C29.3583 59.5831 34.3417 58.3102 38.1333 55.7644C41.5458 53.4623 43.4417 50.3748 43.4417 47.0165C43.4146 43.6852 41.5458 40.5977 38.1333 38.3227Z" fill="#FC929B"/>
<path d="M54.1398 19.8793C54.5732 25.1335 50.8357 29.7377 45.6628 30.3606C45.6357 30.3606 45.6357 30.3606 45.6086 30.3606H45.5273C45.3648 30.3606 45.2023 30.3606 45.0669 30.4148C42.4398 30.5502 40.0294 29.7106 38.2148 28.1668C41.0044 25.6752 42.6023 21.9377 42.2773 17.8752C42.0878 15.6814 41.3294 13.6773 40.1919 11.971C41.2211 11.4564 42.4128 11.1314 43.6315 11.0231C48.9398 10.5627 53.6794 14.5168 54.1398 19.8793Z" fill="#FBC36E"/>
<path d="M59.5563 44.9319C59.3396 47.559 57.6605 49.834 54.8438 51.3778C52.1355 52.8673 48.723 53.5715 45.3376 53.4903C47.2876 51.7298 48.4251 49.5361 48.6417 47.2069C48.9126 43.8486 47.3147 40.6257 44.1188 38.0528C42.3042 36.6173 40.1917 35.4798 37.8896 34.6402C43.8751 32.9069 51.4042 34.0715 56.0355 37.809C58.5272 39.8132 59.8001 42.3319 59.5563 44.9319Z" fill="#FC929B"/>
</svg>
