<svg width="40" height="40" viewBox="0 0 40 40" fill="none" xmlns="http://www.w3.org/2000/svg">
<g clip-path="url(#clip0)">
<path d="M36.4625 15.9752C36.1996 7.12165 28.9162 0 20.0001 0C11.0839 0 3.80056 7.12165 3.53758 15.9752L2.35303 17.1598V25.1932L3.5295 26.3696V31.8431C3.5295 35.0435 6.13311 37.6471 9.33342 37.6471H10.7907C11.2763 39.0164 12.584 40 14.1177 40H16.4707C18.0054 40 19.3138 39.015 19.7987 37.6442C19.8659 37.6454 19.9333 37.6471 20.0001 37.6471C25.6815 37.6471 30.4352 33.5987 31.5282 28.2353H34.605L37.6471 25.1932V17.1598L36.4625 15.9752ZM20.0001 2.35294C26.9829 2.35294 32.797 7.44933 33.9206 14.1176H31.5282C30.4352 8.7542 25.6815 4.70588 20.0001 4.70588C14.3187 4.70588 9.56495 8.7542 8.47193 14.1176H6.07962C7.20315 7.44933 13.0173 2.35294 20.0001 2.35294ZM29.114 14.1176C25.311 14.1063 22.6247 14.3379 20.41 11.1004L19.3345 9.52839L18.4103 11.1938C17.0636 13.6204 15.25 14.1176 12.9413 14.1176H10.8861C11.9336 10.0629 15.6226 7.05882 20.0001 7.05882C24.3776 7.05882 28.0666 10.0629 29.114 14.1176ZM8.23538 25.8824H6.36973L4.70597 24.2186V18.1344L6.36973 16.4706H8.23538V25.8824ZM5.88244 31.8431V28.2353H8.46966C8.91256 30.4294 9.97224 32.4435 11.5421 34.0611C11.213 34.4127 10.9549 34.8311 10.7907 35.2941H9.33342C7.43052 35.2941 5.88244 33.746 5.88244 31.8431ZM16.4707 37.6471H14.1177C13.469 37.6471 12.9413 37.1194 12.9413 36.4706C12.9413 35.8219 13.469 35.2941 14.1177 35.2941H16.4707C17.1194 35.2941 17.6471 35.8219 17.6471 36.4706C17.6471 37.1194 17.1194 37.6471 16.4707 37.6471ZM29.4119 25.8824C29.4119 31.072 25.1897 35.2941 20.0001 35.2941C19.9326 35.2941 19.8646 35.2928 19.7967 35.2912C19.3103 33.9234 18.0033 32.9412 16.4707 32.9412C14.055 32.9465 14.0935 32.9291 13.7924 32.9568C11.7499 31.1665 10.5883 28.6166 10.5883 25.8824V16.4706H12.9413C15.0234 16.4706 17.5591 16.1273 19.5219 13.7384C22.1117 16.4524 25.2766 16.4706 28.1176 16.4706H29.4119V25.8824ZM35.2942 24.2186L33.6304 25.8824H31.7648V16.4706H33.6304L35.2942 18.1344V24.2186Z" fill="#3A3A3A"/>
</g>
<defs>
<clipPath id="clip0">
<rect width="40" height="40" fill="white"/>
</clipPath>
</defs>
</svg>
