<svg width="63" height="63" viewBox="0 0 63 63" fill="none" xmlns="http://www.w3.org/2000/svg">
<path d="M59.7188 57.75C59.7188 58.8263 58.8262 59.7188 57.75 59.7188H5.25C4.17375 59.7188 3.28125 58.8263 3.28125 57.75C3.28125 56.6738 4.17375 55.7813 5.25 55.7813H57.75C58.8262 55.7813 59.7188 56.6738 59.7188 57.75Z" fill="#FBC36E"/>
<path d="M55.125 39.375V55.7813H7.875V39.375C7.875 26.3288 18.4538 15.75 31.5 15.75C44.5462 15.75 55.125 26.3288 55.125 39.375Z" fill="#FC929B"/>
<path d="M31.5 9.84372C30.4237 9.84372 29.5312 8.95122 29.5312 7.87497V5.24997C29.5312 4.17372 30.4237 3.28122 31.5 3.28122C32.5763 3.28122 33.4688 4.17372 33.4688 5.24997V7.87497C33.4688 8.95122 32.5763 9.84372 31.5 9.84372Z" fill="#FBC36E"/>
<path d="M13.125 15.0938C12.6263 15.0938 12.1275 14.91 11.7338 14.5163L9.10878 11.8913C8.34753 11.13 8.34753 9.87003 9.10878 9.10878C9.87003 8.34753 11.13 8.34753 11.8913 9.10878L14.5163 11.7338C15.2775 12.495 15.2775 13.755 14.5163 14.5163C14.1225 14.91 13.6238 15.0938 13.125 15.0938Z" fill="#FBC36E"/>
<path d="M49.875 15.0938C49.3763 15.0938 48.8775 14.91 48.4838 14.5163C47.7225 13.755 47.7225 12.495 48.4838 11.7338L51.1088 9.10878C51.87 8.34753 53.13 8.34753 53.8913 9.10878C54.6525 9.87003 54.6525 11.13 53.8913 11.8913L51.2663 14.5163C50.8725 14.91 50.3738 15.0938 49.875 15.0938Z" fill="#FBC36E"/>
</svg>
