<svg width="40" height="40" viewBox="0 0 40 40" fill="none" xmlns="http://www.w3.org/2000/svg">
<g clip-path="url(#clip0)">
<path d="M37.8573 14.1742C37.3295 12.5398 37.5545 10.0864 36.1827 8.19214C34.8 6.28292 32.3952 5.74026 31.0373 4.74714C29.6938 3.76448 28.4438 1.62612 26.1837 0.88862C23.9873 0.171901 21.7414 1.14448 20 1.14448C18.2588 1.14448 16.013 0.171667 13.8163 0.888542C11.5566 1.62589 10.3056 3.76471 8.96289 4.7469C7.60648 5.73885 5.19992 6.283 3.8175 8.1919C2.4468 10.0846 2.66953 12.5436 2.14266 14.1741C1.64125 15.7259 0 17.5883 0 20.0002C0 22.4135 1.63938 24.2688 2.14266 25.8262C2.67047 27.4606 2.44547 29.9139 3.81734 31.8082C5.19992 33.7175 7.60461 34.2601 8.96266 35.2533C10.306 36.2358 11.5562 38.3743 13.8163 39.1117C16.0112 39.828 18.2606 38.8559 20 38.8559C21.737 38.8559 23.9916 39.827 26.1837 39.1118C28.4434 38.3745 29.6937 36.2361 31.0371 35.2535C32.3935 34.2615 34.8001 33.7174 36.1825 31.8085C37.5533 29.9157 37.3304 27.4569 37.8573 25.8263C38.3587 24.2744 40 22.412 40 20.0002C40 17.587 38.361 15.7323 37.8573 14.1742ZM34.8838 24.8653C34.2686 26.7696 34.4298 28.9008 33.6516 29.9753C32.863 31.0642 30.7913 31.5615 29.1926 32.7309C27.6114 33.8872 26.5032 35.7203 25.2143 36.1408C23.9949 36.5388 22.0077 35.7307 20.0001 35.7307C17.9777 35.7307 16.011 36.5405 14.7858 36.1408C13.497 35.7203 12.3904 33.8885 10.8075 32.7308C9.21828 31.5685 7.13469 31.061 6.34836 29.9752C5.57273 28.9042 5.72781 26.7583 5.11633 24.8654C4.51695 23.0108 3.125 21.4049 3.125 20.0002C3.125 18.594 4.5157 16.9937 5.11617 15.135C5.73141 13.2308 5.57023 11.0995 6.34836 10.025C7.13648 8.9369 9.20984 8.43792 10.8075 7.26948C12.3937 6.1094 13.4949 4.28073 14.7856 3.85956C16.004 3.46206 17.9977 4.26964 19.9999 4.26964C22.0259 4.26964 23.9877 3.45932 25.2142 3.85956C26.5028 4.28003 27.6104 6.11253 29.1926 7.26956C30.7816 8.43182 32.8653 8.9394 33.6516 10.0251C34.4274 11.0963 34.2715 13.24 34.8837 15.1349V15.1349C35.483 16.9896 36.875 18.5954 36.875 20.0002C36.875 21.4064 35.4843 23.0067 34.8838 24.8653ZM27.1987 14.9849C27.8089 15.5952 27.8089 16.5845 27.1987 17.1946L19.3779 25.0154C18.7677 25.6257 17.7783 25.6256 17.1681 25.0154L12.8014 20.6487C12.1912 20.0385 12.1911 19.0492 12.8013 18.439C13.4116 17.8289 14.401 17.8288 15.011 18.439L18.273 21.7009L24.9888 14.985C25.5991 14.3748 26.5884 14.3748 27.1987 14.9849Z" fill="#3A3A3A"/>
</g>
<defs>
<clipPath id="clip0">
<rect width="40" height="40" fill="white"/>
</clipPath>
</defs>
</svg>
