<svg width="81" height="81" viewBox="0 0 81 81" fill="none" xmlns="http://www.w3.org/2000/svg">
<path d="M54.6412 6.75H26.3587C14.0737 6.75 6.75 14.0737 6.75 26.3587V54.6075C6.75 66.9263 14.0737 74.25 26.3587 74.25H54.6075C66.8925 74.25 74.2162 66.9263 74.2162 54.6413V26.3587C74.25 14.0737 66.9262 6.75 54.6412 6.75Z" fill="#FC929B"/>
<path d="M52.3125 34.189C55.8168 34.189 58.6575 31.3483 58.6575 27.844C58.6575 24.3398 55.8168 21.499 52.3125 21.499C48.8083 21.499 45.9675 24.3398 45.9675 27.844C45.9675 31.3483 48.8083 34.189 52.3125 34.189Z" fill="#FBC36E"/>
<path d="M28.6875 34.189C32.1918 34.189 35.0325 31.3483 35.0325 27.844C35.0325 24.3398 32.1918 21.499 28.6875 21.499C25.1833 21.499 22.3425 24.3398 22.3425 27.844C22.3425 31.3483 25.1833 34.189 28.6875 34.189Z" fill="#FBC171"/>
<path d="M52.65 43.6048H28.35C25.9875 43.6048 24.0637 45.5285 24.0637 47.9248C24.0637 57.0035 31.455 64.3948 40.5337 64.3948C49.6125 64.3948 57.0037 57.0035 57.0037 47.9248C56.97 45.5623 55.0125 43.6048 52.65 43.6048Z" fill="#FBC36E"/>
</svg>
