<svg width="88" height="88" viewBox="0 0 88 88" fill="none" xmlns="http://www.w3.org/2000/svg">
<path d="M67.7231 61.71L69.1531 73.2966C69.5198 76.3399 66.2564 78.4665 63.6531 76.8899L48.2898 67.7599C46.6031 67.7599 44.9531 67.65 43.3398 67.43C46.0531 64.24 47.6664 60.2066 47.6664 55.8432C47.6664 45.4299 38.6464 36.9967 27.4998 36.9967C23.2464 36.9967 19.3231 38.2066 16.0598 40.3333C15.9498 39.4166 15.9131 38.4999 15.9131 37.5466C15.9131 20.8633 30.3964 7.33331 48.2898 7.33331C66.1831 7.33331 80.6664 20.8633 80.6664 37.5466C80.6664 47.4466 75.5698 56.21 67.7231 61.71Z" fill="#FC929B"/>
<path d="M47.6666 55.8435C47.6666 60.2068 46.0533 64.2403 43.3399 67.4303C39.7099 71.8303 33.9533 74.6535 27.4999 74.6535L17.9299 80.3368C16.3166 81.3268 14.2632 79.9702 14.4832 78.1002L15.3999 70.877C10.4866 67.467 7.33325 62.0035 7.33325 55.8435C7.33325 49.3902 10.7799 43.7069 16.0599 40.3336C19.3233 38.2069 23.2466 36.997 27.4999 36.997C38.6466 36.997 47.6666 45.4302 47.6666 55.8435Z" fill="#FBC36E"/>
</svg>
