<svg width="68" height="71" viewBox="0 0 68 71" fill="none" xmlns="http://www.w3.org/2000/svg">
<path d="M37.6555 1.44842C40.4847 -1.44229 45.5896 0.833374 45.8356 4.95418C47.7422 40.6883 46.0201 8.39844 47.1272 29.064L37.2865 19.4692L36.4869 4.70816C36.3639 3.47807 36.7944 2.30948 37.6555 1.44842Z" fill="#FBC171"/>
<path d="M55.0613 8.5214C59.0591 7.53733 62.5649 11.9657 60.7197 15.5329C54.5693 27.0958 53.9542 28.2644 50.8175 34.1073C49.5874 31.1551 50.0795 35.3989 49.0954 16.763L52.3551 10.6126C52.9087 9.56698 53.8312 8.82892 55.0613 8.5214Z" fill="#FBC171"/>
<path d="M54.9998 31.9546L61.1502 25.6196C62.6264 24.1435 65.0865 24.205 66.6856 25.7426C68.2848 27.3418 68.4693 29.8019 66.9932 31.278L46.2047 52.7431L50.5715 44.44C51.494 42.7179 51.9246 40.6882 51.8016 38.4741C51.8016 38.4741 51.8016 38.0435 51.7401 38.0435C51.8016 37.982 51.617 38.2896 54.9998 31.9546Z" fill="#FBC171"/>
<path d="M5.9192 16.148C10.9626 16.271 15.3294 20.4533 15.5754 25.5582C15.5754 25.5582 16.252 38.4126 16.621 45.2396C16.867 50.283 23.079 52.6817 26.2772 49.422L37.9016 37.4286C38.3936 36.9365 38.3321 36.0755 37.7785 35.5834L29.906 27.8954C29.3524 27.4033 29.2909 27.5263 24.4321 27.4033C21.8489 27.3418 19.6347 25.1892 19.5117 22.606C19.3887 20.0228 21.3568 17.9931 23.94 18.0546L30.4595 18.2392C31.6896 18.3007 32.9197 18.7927 33.8422 19.7153C47.0042 32.5082 46.5737 31.9547 47.4963 33.3693C49.5874 36.6905 49.6489 40.3808 48.1728 43.1485L41.2843 56.249C36.4869 65.3516 27.0153 70.9485 16.129 70.7025C7.82584 70.518 0.752811 63.6295 0.260775 55.3264C0.0147566 50.7135 -0.723286 45.8547 2.29044 40.1963C4.19708 36.629 5.05814 32.5082 4.81212 28.3259L4.25857 17.8701C4.25857 16.8861 4.93513 16.148 5.9192 16.148Z" fill="#FC8E9E"/>
</svg>
