<svg width="66" height="68" viewBox="0 0 66 68" fill="none" xmlns="http://www.w3.org/2000/svg">
<path d="M55 34.5667V39.3834C55 48.3084 50.05 52.1334 42.625 52.1334H17.875C10.45 52.1334 5.5 48.3084 5.5 39.3834V24.0833C5.5 15.1583 10.45 11.3333 17.875 11.3333H25.3C24.9425 12.41 24.75 13.6 24.75 14.875V25.9251C24.75 28.6734 25.63 30.9967 27.1975 32.6117C28.765 34.2267 31.02 35.1334 33.6875 35.1334V39.0716C33.6875 40.5166 35.2825 41.3951 36.465 40.6017L44.4125 35.1334H51.5625C52.8 35.1334 53.955 34.935 55 34.5667Z" fill="#FC929B"/>
<path d="M60.5 14.875V25.9251C60.5 30.1467 58.41 33.32 55 34.5667C53.955 34.935 52.8 35.1334 51.5625 35.1334H44.4125L36.465 40.6017C35.2825 41.395 33.6875 40.5166 33.6875 39.0716V35.1334C31.02 35.1334 28.765 34.2267 27.1975 32.6117C25.63 30.9967 24.75 28.6734 24.75 25.9251V14.875C24.75 13.6 24.9425 12.41 25.3 11.3333C26.51 7.81999 29.59 5.66666 33.6875 5.66666H51.5625C56.925 5.66666 60.5 9.34999 60.5 14.875Z" fill="#FBC36E"/>
<path d="M40.1501 60.209H32.3126V52.1341C32.3126 50.9724 31.3776 50.0091 30.2501 50.0091C29.1226 50.0091 28.1876 50.9724 28.1876 52.1341V60.209H20.3501C19.2226 60.209 18.2876 61.1723 18.2876 62.334C18.2876 63.4957 19.2226 64.459 20.3501 64.459H40.1501C41.2776 64.459 42.2126 63.4957 42.2126 62.334C42.2126 61.1723 41.2776 60.209 40.1501 60.209Z" fill="#FBC36E"/>
<path d="M42.46 22.6667C41.305 22.6667 40.3975 21.7033 40.3975 20.5417C40.3975 19.38 41.3325 18.4167 42.46 18.4167C43.5875 18.4167 44.5225 19.38 44.5225 20.5417C44.5225 21.7033 43.5875 22.6667 42.46 22.6667Z" fill="#FC929B"/>
<path d="M50.1875 22.6667C49.0325 22.6667 48.125 21.7033 48.125 20.5417C48.125 19.38 49.06 18.4167 50.1875 18.4167C51.315 18.4167 52.25 19.38 52.25 20.5417C52.25 21.7033 51.315 22.6667 50.1875 22.6667Z" fill="#FC929B"/>
<path d="M34.7051 22.6667C33.5501 22.6667 32.6426 21.7033 32.6426 20.5417C32.6426 19.38 33.5776 18.4167 34.7051 18.4167C35.8326 18.4167 36.7676 19.38 36.7676 20.5417C36.7676 21.7033 35.8601 22.6667 34.7051 22.6667Z" fill="#FC929B"/>
</svg>
